<svg width="400" height="388" viewBox="0 0 400 388" fill="none" xmlns="http://www.w3.org/2000/svg">
<g opacity="0.7">
<path d="M338.274 382.42V5.38721H399.138V382.42H338.274ZM262.867 60.865V5.38721H393.752V60.865H262.867Z" fill="#F3FF97"/>
<path d="M73.1222 387.805C44.7549 387.805 18.7217 379.906 -4.97753 364.106C-28.3177 347.948 -46.9898 325.326 -60.9939 296.24C-74.998 267.155 -82 232.863 -82 193.364C-82 153.865 -75.1775 119.753 -61.5325 91.0266C-47.5284 61.9412 -28.8563 39.4987 -5.51614 23.6992C17.824 7.89975 43.6777 0 72.0449 0C100.771 0 126.805 7.89975 150.145 23.6992C173.485 39.4987 191.977 61.9412 205.622 91.0266C219.626 119.753 226.629 154.045 226.629 193.903C226.629 233.401 219.626 267.694 205.622 296.779C191.977 325.864 173.485 348.307 150.145 364.106C127.164 379.906 101.489 387.805 73.1222 387.805ZM72.0449 329.635C90.7171 329.635 106.876 324.608 120.521 314.553C134.166 304.499 144.758 289.418 152.299 269.309C160.199 249.201 164.149 223.886 164.149 193.364C164.149 163.201 160.199 138.066 152.299 117.957C144.758 97.849 133.986 82.9473 119.982 73.2522C106.337 63.1979 90.358 58.1708 72.0449 58.1708C53.7319 58.1708 37.5733 63.1979 23.5693 73.2522C9.92426 82.9473 -0.668579 97.849 -8.20924 117.957C-15.7499 137.707 -19.5202 162.842 -19.5202 193.364C-19.5202 223.886 -15.7499 249.201 -8.20924 269.309C-0.668579 289.418 9.92426 304.499 23.5693 314.553C37.5733 324.608 53.7319 329.635 72.0449 329.635Z" fill="#F3FF97"/>
</g>
</svg>
