<svg width="187" height="150" viewBox="0 0 187 150" fill="none" xmlns="http://www.w3.org/2000/svg">
<g id="01" opacity="0.7">
<path id="Vector" d="M162.557 147.917V2.08398H186.099V147.917H162.557ZM133.391 23.5423V2.08398H184.016V23.5423H133.391Z" fill="#F3FF97"/>
<path id="Vector_2" d="M60 150C49.0278 150 38.9583 146.944 29.7917 140.833C20.7639 134.583 13.5417 125.833 8.125 114.583C2.70833 103.333 0 90.0695 0 74.7917C0 59.5139 2.63889 46.3194 7.91667 35.2083C13.3333 23.9583 20.5556 15.2778 29.5833 9.16667C38.6111 3.05556 48.6111 0 59.5833 0C70.6944 0 80.7639 3.05556 89.7917 9.16667C98.8194 15.2778 105.972 23.9583 111.25 35.2083C116.667 46.3194 119.375 59.5833 119.375 75C119.375 90.2778 116.667 103.542 111.25 114.792C105.972 126.042 98.8194 134.722 89.7917 140.833C80.9028 146.944 70.9722 150 60 150ZM59.5833 127.5C66.8056 127.5 73.0556 125.556 78.3333 121.667C83.6111 117.778 87.7083 111.944 90.625 104.167C93.6806 96.3889 95.2083 86.5972 95.2083 74.7917C95.2083 63.125 93.6806 53.4028 90.625 45.625C87.7083 37.8472 83.5417 32.0833 78.125 28.3333C72.8472 24.4444 66.6667 22.5 59.5833 22.5C52.5 22.5 46.25 24.4444 40.8333 28.3333C35.5556 32.0833 31.4583 37.8472 28.5417 45.625C25.625 53.2639 24.1667 62.9861 24.1667 74.7917C24.1667 86.5972 25.625 96.3889 28.5417 104.167C31.4583 111.944 35.5556 117.778 40.8333 121.667C46.25 125.556 52.5 127.5 59.5833 127.5Z" fill="#F3FF97"/>
</g>
</svg>
