<svg width="233" height="151" viewBox="0 0 233 151" fill="none" xmlns="http://www.w3.org/2000/svg">
<g opacity="0.7">
<path d="M133.805 134.539L187.555 77.4555C192 72.7333 195.611 68.4972 198.389 64.7472C201.166 60.9972 203.18 57.4556 204.43 54.1223C205.68 50.7889 206.305 47.3862 206.305 43.9139C206.305 37.3862 204.153 32.3168 199.847 28.7057C195.68 24.9557 190.333 23.0807 183.805 23.0807C176.861 23.0807 170.75 24.8168 165.472 28.289C160.194 31.7612 155.472 37.1779 151.305 44.539L134.638 30.789C140.333 20.9279 147.346 13.4974 155.68 8.49738C164.013 3.3585 173.666 0.789062 184.639 0.789062C193.666 0.789062 201.583 2.59461 208.389 6.20572C215.194 9.81682 220.472 14.8862 224.222 21.414C227.972 27.8029 229.847 35.2334 229.847 43.7056C229.847 49.8167 229.083 55.3028 227.556 60.1639C226.167 64.8861 223.736 69.6778 220.264 74.5389C216.792 79.2611 212 84.8166 205.889 91.2055L164.638 133.914L133.805 134.539ZM133.805 148.705V134.539L154.43 127.247H232.764V148.705H133.805Z" fill="#F3FF97"/>
<path d="M60.0006 150.789C49.0283 150.789 38.9587 147.734 29.792 141.623C20.7641 135.373 13.5418 126.623 8.12508 115.373C2.70836 104.123 0 90.8588 0 75.581C0 60.3033 2.63892 47.1089 7.91675 35.9978C13.3335 24.7478 20.5558 16.0673 29.5836 9.9562C38.6115 3.8451 48.6116 0.789551 59.5839 0.789551C70.6951 0.789551 80.7647 3.8451 89.7926 9.9562C98.8204 16.0673 105.973 24.7478 111.251 35.9978C116.668 47.1089 119.376 60.3727 119.376 75.7894C119.376 91.0671 116.668 104.331 111.251 115.581C105.973 126.831 98.8204 135.511 89.7926 141.623C80.9036 147.734 70.9729 150.789 60.0006 150.789ZM59.5839 128.289C66.8062 128.289 73.0563 126.345 78.3341 122.456C83.6119 118.567 87.7092 112.734 90.6259 104.956C93.6815 97.1782 95.2093 87.3866 95.2093 75.581C95.2093 63.9144 93.6815 54.1922 90.6259 46.4144C87.7092 38.6367 83.5425 32.8728 78.1258 29.1228C72.8479 25.2339 66.6673 23.2895 59.5839 23.2895C52.5005 23.2895 46.2505 25.2339 40.8337 29.1228C35.5559 32.8728 31.4586 38.6367 28.5419 46.4144C25.6253 54.0533 24.1669 63.7755 24.1669 75.581C24.1669 87.3866 25.6253 97.1782 28.5419 104.956C31.4586 112.734 35.5559 118.567 40.8337 122.456C46.2505 126.345 52.5005 128.289 59.5839 128.289Z" fill="#F3FF97"/>
</g>
</svg>
