<svg width="489" height="383" viewBox="0 0 489 383" fill="none" xmlns="http://www.w3.org/2000/svg">
<g opacity="0.7">
<path d="M236.758 340.719L373.642 195.347C384.961 183.321 394.157 172.533 401.231 162.983C408.305 153.433 413.434 144.414 416.617 135.925C419.801 127.436 421.392 118.77 421.392 109.927C421.392 93.3034 415.91 80.3932 404.945 71.197C394.334 61.647 380.716 56.872 364.092 56.872C346.407 56.872 330.844 61.2933 317.403 70.1359C303.962 78.9784 291.936 92.7729 281.325 111.519L238.88 76.5025C253.382 51.3896 271.244 32.4664 292.467 19.7331C313.689 6.64605 338.271 0.102539 366.214 0.102539C389.205 0.102539 409.366 4.70069 426.698 13.897C444.03 23.0933 457.47 36.0034 467.02 52.6275C476.57 68.8979 481.346 87.821 481.346 109.397C481.346 124.96 479.4 138.931 475.509 151.311C471.972 163.337 465.783 175.54 456.94 187.919C448.097 199.945 435.894 214.093 420.331 230.364L315.281 339.127L236.758 340.719ZM236.758 376.797V340.719L289.283 322.15H488.773V376.797H236.758Z" fill="#F3FF97"/>
<path d="M48.801 382.103C20.8582 382.103 -4.78547 374.322 -28.1301 358.759C-51.121 342.842 -69.5137 320.559 -83.3082 291.909C-97.1027 263.259 -104 229.48 -104 190.573C-104 151.665 -97.2796 118.064 -83.8388 89.7674C-70.0442 61.1174 -51.6515 39.0109 -28.6606 23.448C-5.66972 7.885 19.7971 0.103516 47.7399 0.103516C76.0364 0.103516 101.68 7.885 124.671 23.448C147.662 39.0109 165.878 61.1174 179.319 89.7674C193.113 118.064 200.01 151.842 200.01 191.103C200.01 230.011 193.113 263.789 179.319 292.439C165.878 321.089 147.662 343.196 124.671 358.759C102.034 374.322 76.7438 382.103 48.801 382.103ZM47.7399 324.803C66.1326 324.803 82.0494 319.852 95.4902 309.948C108.931 300.044 119.365 285.189 126.793 265.381C134.575 245.574 138.465 220.638 138.465 190.573C138.465 160.862 134.575 136.103 126.793 116.295C119.365 96.4877 108.754 81.809 94.9596 72.2591C81.5188 62.3553 65.7789 57.4035 47.7399 57.4035C29.7009 57.4035 13.7841 62.3553 -0.0104294 72.2591C-13.4513 81.809 -23.8856 96.4877 -31.3134 116.295C-38.7412 135.749 -42.4552 160.508 -42.4552 190.573C-42.4552 220.638 -38.7412 245.574 -31.3134 265.381C-23.8856 285.189 -13.4513 300.044 -0.0104294 309.948C13.7841 319.852 29.7009 324.803 47.7399 324.803Z" fill="#F3FF97"/>
</g>
</svg>
