<svg width="233" height="151" viewBox="0 0 233 151" fill="none" xmlns="http://www.w3.org/2000/svg">
<g id="03" opacity="0.7">
<path id="Vector" d="M179.226 150.3C169.504 150.3 160.685 148.564 152.768 145.092C144.99 141.481 138.393 136.273 132.977 129.467L149.226 113.217C152.143 117.662 156.24 121.203 161.518 123.842C166.796 126.481 172.56 127.8 178.809 127.8C184.782 127.8 189.92 126.689 194.226 124.467C198.531 122.245 201.865 119.12 204.226 115.092C206.726 111.064 207.976 106.412 207.976 101.134C207.976 95.5782 206.726 90.856 204.226 86.9671C201.865 83.0782 198.393 80.0921 193.809 78.0088C189.365 75.7866 183.948 74.6754 177.559 74.6754C175.059 74.6754 172.49 74.8838 169.851 75.3004C167.212 75.5782 164.851 76.0643 162.768 76.7588L173.393 63.0088C176.309 61.8977 179.365 60.9949 182.559 60.3004C185.893 59.4671 189.087 59.0504 192.143 59.0504C199.643 59.0504 206.379 60.856 212.351 64.4671C218.462 68.0782 223.253 73.1477 226.726 79.6754C230.337 86.0643 232.142 93.6338 232.142 102.384C232.142 111.828 229.92 120.162 225.476 127.384C221.031 134.606 214.851 140.231 206.934 144.259C199.018 148.287 189.782 150.3 179.226 150.3ZM162.768 76.7588V62.5921L201.726 17.1755L230.476 16.5505L189.851 63.2171L162.768 76.7588ZM140.268 23.8421V2.38379L230.476 2.38379V16.5505L209.851 23.8421H140.268Z" fill="#F3FF97"/>
<path id="Vector_2" d="M59.9994 150.301C49.0273 150.301 38.9579 147.245 29.7914 141.134C20.7637 134.884 13.5415 126.134 8.12492 114.884C2.70831 103.634 0 90.3702 0 75.0924C0 59.8147 2.63886 46.6202 7.91659 35.5091C13.3332 24.2591 20.5554 15.5786 29.583 9.46745C38.6107 3.35634 48.6106 0.300781 59.5827 0.300781C70.6937 0.300781 80.7631 3.35634 89.7908 9.46745C98.8184 15.5786 105.971 24.2591 111.249 35.5091C116.665 46.6202 119.374 59.8841 119.374 75.3008C119.374 90.5785 116.665 103.842 111.249 115.092C105.971 126.342 98.8184 135.023 89.7908 141.134C80.902 147.245 70.9715 150.301 59.9994 150.301ZM59.5827 127.801C66.8049 127.801 73.0548 125.856 78.3325 121.967C83.6103 118.079 87.7074 112.245 90.6241 104.467C93.6796 96.6896 95.2074 86.898 95.2074 75.0924C95.2074 63.4258 93.6796 53.7035 90.6241 45.9258C87.7074 38.148 83.5408 32.3841 78.1242 28.6341C72.8465 24.7452 66.666 22.8008 59.5827 22.8008C52.4995 22.8008 46.2495 24.7452 40.8329 28.6341C35.5552 32.3841 31.458 38.148 28.5414 45.9258C25.6247 53.5647 24.1664 63.2869 24.1664 75.0924C24.1664 86.898 25.6247 96.6896 28.5414 104.467C31.458 112.245 35.5552 118.079 40.8329 121.967C46.2495 125.856 52.4995 127.801 59.5827 127.801Z" fill="#F3FF97"/>
</g>
</svg>
