<svg width="492" height="383" viewBox="0 0 492 383" fill="none" xmlns="http://www.w3.org/2000/svg">
<g opacity="0.7">
<path d="M356.352 382.118C331.593 382.118 309.133 377.697 288.973 368.855C269.165 359.658 252.365 346.394 238.57 329.063L279.953 287.68C287.381 298.998 297.815 308.018 311.256 314.738C324.696 321.458 339.375 324.819 355.291 324.819C370.5 324.819 383.587 321.989 394.552 316.33C405.517 310.67 414.005 302.712 420.018 292.455C426.385 282.197 429.568 270.348 429.568 256.908C429.568 242.759 426.385 230.734 420.018 220.83C414.005 210.926 405.163 203.322 393.491 198.016C382.172 192.357 368.378 189.527 352.108 189.527C345.741 189.527 339.198 190.058 332.478 191.119C325.757 191.826 319.744 193.064 314.439 194.833L341.497 159.816C348.925 156.986 356.706 154.687 364.841 152.919C373.33 150.797 381.465 149.736 389.246 149.736C408.346 149.736 425.501 154.334 440.71 163.53C456.272 172.726 468.475 185.636 477.318 202.26C486.514 218.531 491.112 237.808 491.112 260.091C491.112 284.143 485.453 305.365 474.134 323.757C462.816 342.15 447.076 356.475 426.915 366.732C406.754 376.99 383.233 382.118 356.352 382.118ZM314.439 194.833V158.755L413.652 43.0942L486.867 41.5025L383.41 160.347L314.439 194.833ZM257.14 60.0719V5.4248L486.867 5.4248V41.5025L434.343 60.0719H257.14Z" fill="#F3FF97"/>
<path d="M52.7279 382.118C24.7856 382.118 -0.857582 374.337 -24.2018 358.774C-47.1922 342.857 -65.5846 320.574 -79.3789 291.924C-93.1732 263.274 -100.07 229.495 -100.07 190.588C-100.07 151.681 -93.35 118.079 -79.9094 89.7828C-66.1152 61.1329 -47.7228 39.0265 -24.7323 23.4635C-1.74182 7.90061 23.7245 0.119141 51.6668 0.119141C79.9628 0.119141 105.606 7.90061 128.596 23.4635C151.587 39.0265 169.802 61.1329 183.243 89.7828C197.037 118.079 203.934 151.858 203.934 191.119C203.934 230.026 197.037 263.805 183.243 292.455C169.802 321.104 151.587 343.211 128.596 358.774C105.96 374.337 80.6702 382.118 52.7279 382.118ZM51.6668 324.818C70.0592 324.818 85.9757 319.867 99.4163 309.963C112.857 300.059 123.291 285.204 130.719 265.396C138.5 245.589 142.391 220.653 142.391 190.588C142.391 160.877 138.5 136.118 130.719 116.311C123.291 96.5032 112.68 81.8245 98.8857 72.2746C85.4451 62.3708 69.7055 57.419 51.6668 57.419C33.6281 57.419 17.7117 62.3708 3.91737 72.2746C-9.52322 81.8245 -19.9574 96.5032 -27.385 116.311C-34.8127 135.764 -38.5266 160.523 -38.5266 190.588C-38.5266 220.653 -34.8127 245.589 -27.385 265.396C-19.9574 285.204 -9.52322 300.059 3.91737 309.963C17.7117 319.867 33.6281 324.818 51.6668 324.818Z" fill="#F3FF97"/>
</g>
</svg>
