<svg width="529" height="383" viewBox="0 0 529 383" fill="none" xmlns="http://www.w3.org/2000/svg">
<g opacity="0.7">
<path d="M240.758 244.622L372.867 5.87207H441.84L306.547 244.622H240.758ZM240.758 281.761V244.622L266.755 227.114H528.852V281.761H240.758ZM416.904 377.261V134.267H476.857V377.261H416.904Z" fill="#F3FF97"/>
<path d="M52.8014 382.564C24.8586 382.564 -0.785194 374.783 -24.1298 359.22C-47.1208 343.303 -65.5136 321.02 -79.3081 292.37C-93.1027 263.72 -100 229.941 -100 191.034C-100 152.126 -93.2796 118.525 -79.8387 90.2283C-66.0441 61.5783 -47.6514 39.4719 -24.6604 23.9089C-1.66945 8.34594 23.7974 0.564453 51.7403 0.564453C80.0369 0.564453 105.681 8.34594 128.672 23.9089C151.663 39.4719 169.878 61.5783 183.319 90.2283C197.114 118.525 204.011 152.303 204.011 191.564C204.011 230.472 197.114 264.251 183.319 292.901C169.878 321.551 151.663 343.657 128.672 359.22C106.034 374.783 80.7443 382.564 52.8014 382.564ZM51.7403 325.264C70.1331 325.264 86.0499 320.313 99.4908 310.409C112.932 300.505 123.366 285.65 130.794 265.842C138.575 246.035 142.466 221.099 142.466 191.034C142.466 161.323 138.575 136.563 130.794 116.756C123.366 96.9487 112.755 82.27 98.9602 72.72C85.5193 62.8163 69.7794 57.8644 51.7403 57.8644C33.7012 57.8644 17.7844 62.8163 3.98986 72.72C-9.451 82.27 -19.8854 96.9487 -27.3132 116.756C-34.7411 136.21 -38.455 160.969 -38.455 191.034C-38.455 221.099 -34.7411 246.035 -27.3132 265.842C-19.8854 285.65 -9.451 300.505 3.98986 310.409C17.7844 320.313 33.7012 325.264 51.7403 325.264Z" fill="#F3FF97"/>
</g>
</svg>
