<svg width="247" height="151" viewBox="0 0 247 151" fill="none" xmlns="http://www.w3.org/2000/svg">
<g id="04" opacity="0.7">
<path id="Vector" d="M133.805 96.6416L185.68 2.8916H212.764L159.638 96.6416H133.805ZM133.805 111.225V96.6416L144.013 89.7666H246.931V111.225H133.805ZM202.972 148.725V53.3083H226.514V148.725H202.972Z" fill="#F3FF97"/>
<path id="Vector_2" d="M60.0007 150.808C49.0283 150.808 38.9588 147.752 29.792 141.641C20.7641 135.391 13.5418 126.641 8.12509 115.391C2.70836 104.141 0 90.8771 0 75.5993C0 60.3215 2.63892 47.1271 7.91676 36.016C13.3335 24.766 20.5558 16.0854 29.5837 9.97429C38.6116 3.86317 48.6117 0.807617 59.584 0.807617C70.6952 0.807617 80.7648 3.86317 89.7927 9.97429C98.8206 16.0854 105.973 24.766 111.251 36.016C116.668 47.1271 119.376 60.391 119.376 75.8076C119.376 91.0854 116.668 104.349 111.251 115.599C105.973 126.849 98.8206 135.53 89.7927 141.641C80.9037 147.752 70.973 150.808 60.0007 150.808ZM59.584 128.308C66.8063 128.308 73.0564 126.363 78.3342 122.474C83.6121 118.585 87.7093 112.752 90.626 104.974C93.6816 97.1965 95.2094 87.4048 95.2094 75.5993C95.2094 63.9326 93.6816 54.2104 90.626 46.4326C87.7093 38.6548 83.5426 32.891 78.1259 29.141C72.848 25.2521 66.6674 23.3076 59.584 23.3076C52.5006 23.3076 46.2505 25.2521 40.8338 29.141C35.556 32.891 31.4587 38.6548 28.542 46.4326C25.6253 54.0715 24.1669 63.7937 24.1669 75.5993C24.1669 87.4048 25.6253 97.1965 28.542 104.974C31.4587 112.752 35.556 118.585 40.8338 122.474C46.2505 126.363 52.5006 128.308 59.584 128.308Z" fill="#F3FF97"/>
</g>
</svg>
