<svg width="504" height="382" viewBox="0 0 504 382" fill="none" xmlns="http://www.w3.org/2000/svg">
<path d="M361.226 382C335.548 382 312.156 377.603 291.051 368.809C269.947 359.664 252.359 346.649 238.289 329.765L285.775 282.806C292.81 293.359 302.835 301.801 315.85 308.132C329.216 314.464 343.814 317.63 359.643 317.63C374.064 317.63 386.551 314.992 397.104 309.715C408.008 304.439 416.45 297.052 422.43 287.555C428.761 277.706 431.927 266.274 431.927 253.259C431.927 239.541 428.761 227.934 422.43 218.436C416.45 208.939 408.36 201.728 398.159 196.804C387.958 191.879 376.527 189.417 363.864 189.417C350.497 189.417 338.362 191.176 327.458 194.693C316.905 197.859 306.704 203.135 296.855 210.522L301.076 165.146C307.76 158.111 314.795 152.483 322.181 148.262C329.568 143.69 337.834 140.348 346.98 138.237C356.477 135.775 367.557 134.544 380.22 134.544C407.305 134.544 429.817 140.172 447.756 151.428C466.047 162.332 479.941 177.106 489.438 195.748C498.935 214.039 503.684 234.265 503.684 256.425C503.684 280.696 497.704 302.329 485.745 321.323C473.785 340.317 457.077 355.267 435.621 366.171C414.516 376.724 389.717 382 361.226 382ZM296.855 210.522L262.56 176.754L279.444 5.80371H344.342L325.347 179.392L296.855 210.522ZM290.524 68.0634L279.444 5.80371H483.107V68.0634H290.524Z" fill="#F3FF97"/>
<path d="M56.1768 382C26.9816 382 0.600365 374.086 -22.9669 358.257C-46.5341 342.428 -65.3527 320.092 -79.4227 291.249C-93.1409 262.405 -100 228.813 -100 190.472C-100 152.132 -93.1409 118.715 -79.4227 90.2238C-65.7044 61.7321 -47.2376 39.5718 -24.0221 23.7431C-0.454887 7.91437 25.7505 0 54.5939 0C84.1409 0 110.522 7.91437 133.738 23.7431C157.305 39.5718 175.948 61.9079 189.666 90.7514C203.384 119.243 210.243 152.835 210.243 191.528C210.243 229.868 203.384 263.46 189.666 292.304C175.948 320.796 157.481 342.956 134.265 358.785C111.05 374.262 85.0203 382 56.1768 382ZM55.1215 317.102C72.0055 317.102 86.6031 312.354 98.9144 302.856C111.226 293.359 120.723 279.289 127.406 260.646C134.441 242.004 137.959 218.788 137.959 191C137.959 163.212 134.441 139.996 127.406 121.354C120.723 102.711 111.05 88.8168 98.3867 79.6713C86.0755 70.174 71.4779 65.4254 54.5939 65.4254C38.0617 65.4254 23.64 70.174 11.3287 79.6713C-0.982506 88.8168 -10.6556 102.711 -17.6906 121.354C-24.3739 139.645 -27.7155 162.684 -27.7155 190.472C-27.7155 218.612 -24.3739 242.004 -17.6906 260.646C-10.6556 279.289 -0.982506 293.359 11.3287 302.856C23.64 312.354 38.2375 317.102 55.1215 317.102Z" fill="#F3FF97"/>
</svg>
