<svg width="507" height="383" viewBox="0 0 507 383" fill="none" xmlns="http://www.w3.org/2000/svg">
<path d="M374.772 382.599C350.013 382.599 327.73 376.94 307.923 365.622C288.116 353.95 272.376 338.387 260.704 318.934C249.386 299.48 243.727 277.905 243.727 254.207C243.727 220.252 255.575 185.943 279.273 151.28L380.608 5.91016H451.171L342.939 158.178L320.656 171.441C324.193 163.306 328.614 156.409 333.92 150.75C339.579 144.737 346.83 140.139 355.672 136.956C364.868 133.772 376.187 132.181 389.627 132.181C411.203 132.181 430.656 137.309 447.988 147.567C465.673 157.47 479.821 171.441 490.432 189.48C501.042 207.165 506.348 228.033 506.348 252.085C506.348 276.136 500.512 298.065 488.84 317.873C477.168 337.68 461.251 353.419 441.091 365.091C421.283 376.763 399.177 382.599 374.772 382.599ZM374.772 325.3C388.213 325.3 400.238 322.117 410.849 315.75C421.46 309.384 429.772 300.718 435.785 289.754C442.152 278.435 445.335 265.879 445.335 252.085C445.335 238.29 442.152 225.911 435.785 214.946C429.772 203.982 421.46 195.493 410.849 189.48C400.238 183.113 388.213 179.93 374.772 179.93C361.331 179.93 349.306 183.113 338.695 189.48C328.084 195.846 319.772 204.512 313.759 215.477C307.746 226.088 304.74 238.29 304.74 252.085C304.74 265.879 307.746 278.435 313.759 289.754C319.772 300.718 328.084 309.384 338.695 315.75C349.306 322.117 361.331 325.3 374.772 325.3Z" fill="white"/>
<path d="M52.6026 382.594C24.6604 382.594 -0.98278 374.813 -24.3269 359.25C-47.3173 343.334 -65.7097 321.051 -79.5039 292.401C-93.2982 263.752 -100.195 229.973 -100.195 191.066C-100.195 152.16 -93.475 118.558 -80.0345 90.2623C-66.2402 61.6127 -47.8479 39.5065 -24.8574 23.9438C-1.86702 8.38099 23.5993 0.599609 51.5415 0.599609C79.8374 0.599609 105.481 8.38099 128.471 23.9438C151.461 39.5065 169.677 61.6127 183.118 90.2623C196.912 118.558 203.809 152.336 203.809 191.597C203.809 230.504 196.912 264.282 183.118 292.932C169.677 321.581 151.461 343.688 128.471 359.25C105.834 374.813 80.5448 382.594 52.6026 382.594ZM51.5415 325.295C69.9339 325.295 85.8503 320.343 99.2909 310.44C112.731 300.536 123.166 285.681 130.593 265.874C138.375 246.067 142.265 221.131 142.265 191.066C142.265 161.356 138.375 136.597 130.593 116.79C123.166 96.9825 112.555 82.3041 98.7603 72.7542C85.3197 62.8506 69.5802 57.8988 51.5415 57.8988C33.5029 57.8988 17.5864 62.8506 3.79216 72.7542C-9.6484 82.3041 -20.0825 96.9825 -27.5102 116.79C-34.9379 136.243 -38.6517 161.002 -38.6517 191.066C-38.6517 221.131 -34.9379 246.067 -27.5102 265.874C-20.0825 285.681 -9.6484 300.536 3.79216 310.44C17.5864 320.343 33.5029 325.295 51.5415 325.295Z" fill="white"/>
</svg>
