<svg width="44" height="44" viewBox="0 0 44 44" fill="none" xmlns="http://www.w3.org/2000/svg">
<rect width="44" height="44" rx="22" fill="#F5F4F2"/>
<g clip-path="url(#clip0_6381_20053)">
<path d="M29.7081 29.7118C31.3238 28.0961 29.1809 23.3337 24.9219 19.0747C20.6629 14.8156 15.9005 12.6728 14.2848 14.2884C12.6691 15.9041 14.812 20.6665 19.071 24.9255C23.3301 29.1846 28.0925 31.3274 29.7081 29.7118Z" stroke="#8E8E89" stroke-linecap="round" stroke-linejoin="round"/>
<path d="M24.9219 24.9253C29.1809 20.6663 31.3238 15.9039 29.7081 14.2882C28.0925 12.6726 23.3301 14.8154 19.071 19.0745C14.812 23.3335 12.6691 28.0959 14.2848 29.7116C15.9005 31.3272 20.6629 29.1844 24.9219 24.9253Z" stroke="#8E8E89" stroke-linecap="round" stroke-linejoin="round"/>
<path d="M22 23.125C22.6213 23.125 23.125 22.6213 23.125 22C23.125 21.3787 22.6213 20.875 22 20.875C21.3787 20.875 20.875 21.3787 20.875 22C20.875 22.6213 21.3787 23.125 22 23.125Z" fill="#8E8E89"/>
</g>
<defs>
<clipPath id="clip0_6381_20053">
<rect width="24" height="24" fill="white" transform="translate(10 10)"/>
</clipPath>
</defs>
</svg>
