<svg width="44" height="45" viewBox="0 0 44 45" fill="none" xmlns="http://www.w3.org/2000/svg">
<rect y="0.5" width="44" height="44" rx="22" fill="#F5F4F2"/>
<g clip-path="url(#clip0_6381_19660)">
<path d="M22 15.75C14.5 15.75 11.5 22.5 11.5 22.5C11.5 22.5 14.5 29.25 22 29.25C29.5 29.25 32.5 22.5 32.5 22.5C32.5 22.5 29.5 15.75 22 15.75Z" stroke="#8E8E89" stroke-linecap="round" stroke-linejoin="round"/>
<path d="M22 26.25C24.0711 26.25 25.75 24.5711 25.75 22.5C25.75 20.4289 24.0711 18.75 22 18.75C19.9289 18.75 18.25 20.4289 18.25 22.5C18.25 24.5711 19.9289 26.25 22 26.25Z" stroke="#8E8E89" stroke-linecap="round" stroke-linejoin="round"/>
</g>
<defs>
<clipPath id="clip0_6381_19660">
<rect width="24" height="24" fill="white" transform="translate(10 10.5)"/>
</clipPath>
</defs>
</svg>
