<svg width="44" height="44" viewBox="0 0 44 44" fill="none" xmlns="http://www.w3.org/2000/svg">
<rect width="44" height="44" rx="22" fill="#F3FF97"/>
<g clip-path="url(#clip0_6381_19923)">
<path d="M15.25 24.25C16.4926 24.25 17.5 23.2426 17.5 22C17.5 20.7574 16.4926 19.75 15.25 19.75C14.0074 19.75 13 20.7574 13 22C13 23.2426 14.0074 24.25 15.25 24.25Z" stroke="#8E8E89" stroke-linecap="round" stroke-linejoin="round"/>
<path d="M24.25 24.25C25.4926 24.25 26.5 23.2426 26.5 22C26.5 20.7574 25.4926 19.75 24.25 19.75C23.0074 19.75 22 20.7574 22 22C22 23.2426 23.0074 24.25 24.25 24.25Z" stroke="#8E8E89" stroke-linecap="round" stroke-linejoin="round"/>
<path d="M26.5 30.25C28.9853 30.25 31 26.5563 31 22C31 17.4437 28.9853 13.75 26.5 13.75C24.0147 13.75 22 17.4437 22 22C22 26.5563 24.0147 30.25 26.5 30.25Z" stroke="#8E8E89" stroke-linecap="round" stroke-linejoin="round"/>
<path d="M17.5 30.25C19.9853 30.25 22 26.5563 22 22C22 17.4437 19.9853 13.75 17.5 13.75C15.0147 13.75 13 17.4437 13 22C13 26.5563 15.0147 30.25 17.5 30.25Z" stroke="#8E8E89" stroke-linecap="round" stroke-linejoin="round"/>
</g>
<defs>
<clipPath id="clip0_6381_19923">
<rect width="24" height="24" fill="white" transform="translate(10 10)"/>
</clipPath>
</defs>
</svg>
