<svg width="44" height="44" viewBox="0 0 44 44" fill="none" xmlns="http://www.w3.org/2000/svg">
<rect width="44" height="44" rx="22" fill="#F5F4F2"/>
<g clip-path="url(#clip0_6381_20065)">
<path d="M29.5 13.75H14.5C14.0858 13.75 13.75 14.0858 13.75 14.5V29.5C13.75 29.9142 14.0858 30.25 14.5 30.25H29.5C29.9142 30.25 30.25 29.9142 30.25 29.5V14.5C30.25 14.0858 29.9142 13.75 29.5 13.75Z" stroke="#8E8E89" stroke-linecap="round" stroke-linejoin="round"/>
<path d="M26.5 12.25V15.25" stroke="#8E8E89" stroke-linecap="round" stroke-linejoin="round"/>
<path d="M17.5 12.25V15.25" stroke="#8E8E89" stroke-linecap="round" stroke-linejoin="round"/>
<path d="M13.75 18.25H30.25" stroke="#8E8E89" stroke-linecap="round" stroke-linejoin="round"/>
<path d="M22 23.5C22.6213 23.5 23.125 22.9963 23.125 22.375C23.125 21.7537 22.6213 21.25 22 21.25C21.3787 21.25 20.875 21.7537 20.875 22.375C20.875 22.9963 21.3787 23.5 22 23.5Z" fill="#8E8E89"/>
<path d="M26.125 23.5C26.7463 23.5 27.25 22.9963 27.25 22.375C27.25 21.7537 26.7463 21.25 26.125 21.25C25.5037 21.25 25 21.7537 25 22.375C25 22.9963 25.5037 23.5 26.125 23.5Z" fill="#8E8E89"/>
<path d="M17.875 27.25C18.4963 27.25 19 26.7463 19 26.125C19 25.5037 18.4963 25 17.875 25C17.2537 25 16.75 25.5037 16.75 26.125C16.75 26.7463 17.2537 27.25 17.875 27.25Z" fill="#8E8E89"/>
<path d="M22 27.25C22.6213 27.25 23.125 26.7463 23.125 26.125C23.125 25.5037 22.6213 25 22 25C21.3787 25 20.875 25.5037 20.875 26.125C20.875 26.7463 21.3787 27.25 22 27.25Z" fill="#8E8E89"/>
<path d="M26.125 27.25C26.7463 27.25 27.25 26.7463 27.25 26.125C27.25 25.5037 26.7463 25 26.125 25C25.5037 25 25 25.5037 25 26.125C25 26.7463 25.5037 27.25 26.125 27.25Z" fill="#8E8E89"/>
</g>
<defs>
<clipPath id="clip0_6381_20065">
<rect width="24" height="24" fill="white" transform="translate(10 10)"/>
</clipPath>
</defs>
</svg>
