<svg width="44" height="44" viewBox="0 0 44 44" fill="none" xmlns="http://www.w3.org/2000/svg">
<rect width="44" height="44" rx="22" fill="#F5F4F2"/>
<g clip-path="url(#clip0_6381_19645)">
<path d="M28 21.25C28.8734 21.2493 29.7349 21.4524 30.516 21.843C31.2972 22.2335 31.9765 22.8009 32.5 23.5" stroke="#8E8E89" stroke-linecap="round" stroke-linejoin="round"/>
<path d="M11.5 23.5C12.0235 22.8009 12.7028 22.2335 13.484 21.843C14.2651 21.4524 15.1266 21.2493 16 21.25" stroke="#8E8E89" stroke-linecap="round" stroke-linejoin="round"/>
<path d="M22 27.25C24.0711 27.25 25.75 25.5711 25.75 23.5C25.75 21.4289 24.0711 19.75 22 19.75C19.9289 19.75 18.25 21.4289 18.25 23.5C18.25 25.5711 19.9289 27.25 22 27.25Z" stroke="#8E8E89" stroke-linecap="round" stroke-linejoin="round"/>
<path d="M16.75 30.25C17.2884 29.3364 18.0559 28.579 18.9767 28.0529C19.8974 27.5267 20.9395 27.25 22 27.25C23.0605 27.25 24.1026 27.5267 25.0233 28.0529C25.9441 28.579 26.7116 29.3364 27.25 30.25" stroke="#8E8E89" stroke-linecap="round" stroke-linejoin="round"/>
<path d="M25.0938 17.5C25.234 16.9568 25.5238 16.4638 25.9302 16.077C26.3366 15.6902 26.8433 15.4251 27.3927 15.3118C27.9422 15.1985 28.5125 15.2416 29.0387 15.4361C29.5649 15.6306 30.0261 15.9688 30.3697 16.4123C30.7134 16.8557 30.9258 17.3867 30.9829 17.9448C31.04 18.5029 30.9394 19.0659 30.6926 19.5697C30.4458 20.0735 30.0627 20.4981 29.5867 20.7951C29.1108 21.0921 28.561 21.2497 28 21.25" stroke="#8E8E89" stroke-linecap="round" stroke-linejoin="round"/>
<path d="M15.9985 21.25C15.4375 21.2497 14.8877 21.0921 14.4118 20.7951C13.9358 20.4981 13.5527 20.0735 13.3059 19.5697C13.0591 19.0659 12.9585 18.5029 13.0156 17.9448C13.0726 17.3867 13.2851 16.8557 13.6288 16.4123C13.9724 15.9688 14.4336 15.6306 14.9598 15.4361C15.486 15.2416 16.0563 15.1985 16.6058 15.3118C17.1552 15.4251 17.6619 15.6902 18.0683 16.077C18.4747 16.4638 18.7645 16.9568 18.9047 17.5" stroke="#8E8E89" stroke-linecap="round" stroke-linejoin="round"/>
</g>
<defs>
<clipPath id="clip0_6381_19645">
<rect width="24" height="24" fill="white" transform="translate(10 10)"/>
</clipPath>
</defs>
</svg>
