<svg width="44" height="45" viewBox="0 0 44 45" fill="none" xmlns="http://www.w3.org/2000/svg">
<rect y="0.5" width="44" height="44" rx="22" fill="#F5F4F2"/>
<g clip-path="url(#clip0_6381_20033)">
<path d="M31 29.25V30C31 30.7956 30.6839 31.5587 30.1213 32.1213C29.5587 32.6839 28.7956 33 28 33H22.75" stroke="#8E8E89" stroke-linecap="round" stroke-linejoin="round"/>
<path d="M31 22.5H28C27.6022 22.5 27.2206 22.658 26.9393 22.9393C26.658 23.2206 26.5 23.6022 26.5 24V27.75C26.5 28.1478 26.658 28.5294 26.9393 28.8107C27.2206 29.092 27.6022 29.25 28 29.25H31V22.5ZM31 22.5C31 21.3181 30.7672 20.1478 30.3149 19.0558C29.8626 17.9639 29.1997 16.9718 28.364 16.136C27.5282 15.3003 26.5361 14.6374 25.4442 14.1851C24.3522 13.7328 23.1819 13.5 22 13.5C20.8181 13.5 19.6478 13.7328 18.5558 14.1851C17.4639 14.6374 16.4718 15.3003 15.636 16.136C14.8003 16.9718 14.1374 17.9639 13.6851 19.0558C13.2328 20.1478 13 21.3181 13 22.5M13 22.5V27.75C13 28.1478 13.158 28.5294 13.4393 28.8107C13.7206 29.092 14.1022 29.25 14.5 29.25H16C16.3978 29.25 16.7794 29.092 17.0607 28.8107C17.342 28.5294 17.5 28.1478 17.5 27.75V24C17.5 23.6022 17.342 23.2206 17.0607 22.9393C16.7794 22.658 16.3978 22.5 16 22.5H13Z" stroke="#8E8E89" stroke-linecap="round" stroke-linejoin="round"/>
</g>
<defs>
<clipPath id="clip0_6381_20033">
<rect width="24" height="24" fill="white" transform="translate(10 10.5)"/>
</clipPath>
</defs>
</svg>
