<svg width="44" height="44" viewBox="0 0 44 44" fill="none" xmlns="http://www.w3.org/2000/svg">
<rect width="44" height="44" rx="22" fill="#F5F4F2"/>
<g clip-path="url(#clip0_6381_19838)">
<path d="M17.5 28.75C19.1569 28.75 20.5 27.4069 20.5 25.75C20.5 24.0931 19.1569 22.75 17.5 22.75C15.8431 22.75 14.5 24.0931 14.5 25.75C14.5 27.4069 15.8431 28.75 17.5 28.75Z" stroke="#8E8E89" stroke-linecap="round" stroke-linejoin="round"/>
<path d="M17.5 19C19.1569 19 20.5 17.6569 20.5 16C20.5 14.3431 19.1569 13 17.5 13C15.8431 13 14.5 14.3431 14.5 16C14.5 17.6569 15.8431 19 17.5 19Z" stroke="#8E8E89" stroke-linecap="round" stroke-linejoin="round"/>
<path d="M26.5 28.75C28.1569 28.75 29.5 27.4069 29.5 25.75C29.5 24.0931 28.1569 22.75 26.5 22.75C24.8431 22.75 23.5 24.0931 23.5 25.75C23.5 27.4069 24.8431 28.75 26.5 28.75Z" stroke="#8E8E89" stroke-linecap="round" stroke-linejoin="round"/>
<path d="M13 31C13.524 30.3014 14.2034 29.7344 14.9844 29.3438C15.7655 28.9533 16.6267 28.75 17.5 28.75C18.3733 28.75 19.2345 28.9533 20.0156 29.3438C20.7966 29.7344 21.476 30.3014 22 31C22.524 30.3014 23.2034 29.7344 23.9844 29.3438C24.7655 28.9533 25.6267 28.75 26.5 28.75C27.3733 28.75 28.2345 28.9533 29.0156 29.3438C29.7966 29.7344 30.476 30.3014 31 31" stroke="#8E8E89" stroke-linecap="round" stroke-linejoin="round"/>
<path d="M26.5 19C28.1569 19 29.5 17.6569 29.5 16C29.5 14.3431 28.1569 13 26.5 13C24.8431 13 23.5 14.3431 23.5 16C23.5 17.6569 24.8431 19 26.5 19Z" stroke="#8E8E89" stroke-linecap="round" stroke-linejoin="round"/>
<path d="M13 21.25C13.524 20.5514 14.2034 19.9844 14.9844 19.5938C15.7655 19.2033 16.6267 19 17.5 19C18.3733 19 19.2345 19.2033 20.0156 19.5938C20.7966 19.9844 21.476 20.5514 22 21.25C22.524 20.5514 23.2034 19.9844 23.9844 19.5938C24.7655 19.2033 25.6267 19 26.5 19C27.3733 19 28.2345 19.2033 29.0156 19.5938C29.7966 19.9844 30.476 20.5514 31 21.25" stroke="#8E8E89" stroke-linecap="round" stroke-linejoin="round"/>
</g>
<defs>
<clipPath id="clip0_6381_19838">
<rect width="24" height="24" fill="white" transform="translate(10 10)"/>
</clipPath>
</defs>
</svg>
