<svg width="44" height="44" viewBox="0 0 44 44" fill="none" xmlns="http://www.w3.org/2000/svg">
<rect width="44" height="44" rx="22" fill="#F5F4F2"/>
<g clip-path="url(#clip0_6381_19672)">
<path d="M22 19C22.8284 19 23.5 18.3284 23.5 17.5C23.5 16.6716 22.8284 16 22 16C21.1716 16 20.5 16.6716 20.5 17.5C20.5 18.3284 21.1716 19 22 19Z" fill="#8E8E89"/>
<path d="M27.25 17.5C27.25 22.75 22 25.75 22 25.75C22 25.75 16.75 22.75 16.75 17.5C16.75 16.1076 17.3031 14.7723 18.2877 13.7877C19.2723 12.8031 20.6076 12.25 22 12.25C23.3924 12.25 24.7277 12.8031 25.7123 13.7877C26.6969 14.7723 27.25 16.1076 27.25 17.5Z" stroke="#8E8E89" stroke-linecap="round" stroke-linejoin="round"/>
<path d="M28.75 24.5444C30.5987 25.2269 31.75 26.1869 31.75 27.2501C31.75 29.321 27.385 31.0001 22 31.0001C16.615 31.0001 12.25 29.321 12.25 27.2501C12.25 26.1869 13.4013 25.2269 15.25 24.5444" stroke="#8E8E89" stroke-linecap="round" stroke-linejoin="round"/>
</g>
<defs>
<clipPath id="clip0_6381_19672">
<rect width="24" height="24" fill="white" transform="translate(10 10)"/>
</clipPath>
</defs>
</svg>
