<svg width="44" height="44" viewBox="0 0 44 44" fill="none" xmlns="http://www.w3.org/2000/svg">
<rect width="44" height="44" rx="22" fill="#F5F4F2"/>
<g clip-path="url(#clip0_6381_19720)">
<path d="M29.5 15.25H14.5C13.6716 15.25 13 15.9216 13 16.75V27.25C13 28.0784 13.6716 28.75 14.5 28.75H29.5C30.3284 28.75 31 28.0784 31 27.25V16.75C31 15.9216 30.3284 15.25 29.5 15.25Z" stroke="#8E8E89" stroke-linecap="round" stroke-linejoin="round"/>
<path d="M13 21.25H19C19 22.0456 19.3161 22.8087 19.8787 23.3713C20.4413 23.9339 21.2044 24.25 22 24.25C22.7956 24.25 23.5587 23.9339 24.1213 23.3713C24.6839 22.8087 25 22.0456 25 21.25H31" stroke="#8E8E89" stroke-linecap="round" stroke-linejoin="round"/>
<path d="M13 18.25H31" stroke="#8E8E89" stroke-linecap="round" stroke-linejoin="round"/>
</g>
<defs>
<clipPath id="clip0_6381_19720">
<rect width="24" height="24" fill="white" transform="translate(10 10)"/>
</clipPath>
</defs>
</svg>
