<svg width="44" height="45" viewBox="0 0 44 45" fill="none" xmlns="http://www.w3.org/2000/svg">
<rect y="0.5" width="44" height="44" rx="22" fill="#F3FF97"/>
<g clip-path="url(#clip0_6381_19629)">
<path d="M17.125 30.75C18.5747 30.75 19.75 29.5747 19.75 28.125C19.75 26.6753 18.5747 25.5 17.125 25.5C15.6753 25.5 14.5 26.6753 14.5 28.125C14.5 29.5747 15.6753 30.75 17.125 30.75Z" stroke="#8E8E89" stroke-linecap="round" stroke-linejoin="round"/>
<path d="M14.5 17.25L18.25 21" stroke="#8E8E89" stroke-linecap="round" stroke-linejoin="round"/>
<path d="M18.25 17.25L14.5 21" stroke="#8E8E89" stroke-linecap="round" stroke-linejoin="round"/>
<path d="M27.25 26.25L31 30" stroke="#8E8E89" stroke-linecap="round" stroke-linejoin="round"/>
<path d="M31 26.25L27.25 30" stroke="#8E8E89" stroke-linecap="round" stroke-linejoin="round"/>
<path d="M23.5 18V14.25H27.25" stroke="#8E8E89" stroke-linecap="round" stroke-linejoin="round"/>
<path d="M23.5 14.25L25 15.75C28.75 19.5 25.75 24 22.75 24.75" stroke="#8E8E89" stroke-linecap="round" stroke-linejoin="round"/>
</g>
<defs>
<clipPath id="clip0_6381_19629">
<rect width="24" height="24" fill="white" transform="translate(10 10.5)"/>
</clipPath>
</defs>
</svg>
