<svg width="44" height="44" viewBox="0 0 44 44" fill="none" xmlns="http://www.w3.org/2000/svg">
<rect width="44" height="44" rx="22" fill="#F5F4F2"/>
<g clip-path="url(#clip0_6381_19708)">
<path d="M22 25.75V31" stroke="#8E8E89" stroke-linecap="round" stroke-linejoin="round"/>
<path d="M14.2058 17.5C13.2152 19.2157 12.8184 21.2104 13.077 23.1746C13.3356 25.1388 14.235 26.9628 15.6359 28.3638C17.0367 29.7647 18.8607 30.6643 20.8249 30.923C22.7891 31.1816 24.7837 30.785 26.4995 29.7945C28.2153 28.804 29.5564 27.2751 30.3147 25.4448C31.073 23.6145 31.2061 21.5851 30.6936 19.6714C30.181 17.7577 29.0513 16.0666 27.4796 14.8604C25.908 13.6542 23.9823 13.0002 22.0011 13V18.25C22.8266 18.2502 23.6289 18.5227 24.2837 19.0254C24.9385 19.528 25.4091 20.2327 25.6226 21.03C25.8362 21.8274 25.7806 22.673 25.4646 23.4355C25.1486 24.1981 24.5898 24.8352 23.8749 25.2478C23.16 25.6605 22.3289 25.8257 21.5105 25.7179C20.6921 25.6101 19.9321 25.2352 19.3485 24.6515C18.7648 24.0678 18.39 23.3078 18.2823 22.4894C18.1746 21.671 18.3399 20.8399 18.7527 20.125L14.2058 17.5Z" stroke="#8E8E89" stroke-linecap="round" stroke-linejoin="round"/>
<path d="M18.3766 22.9712L13.3047 24.3296" stroke="#8E8E89" stroke-linecap="round" stroke-linejoin="round"/>
</g>
<defs>
<clipPath id="clip0_6381_19708">
<rect width="24" height="24" fill="white" transform="translate(10 10)"/>
</clipPath>
</defs>
</svg>
