<svg width="44" height="44" viewBox="0 0 44 44" fill="none" xmlns="http://www.w3.org/2000/svg">
<rect width="44" height="44" rx="22" fill="#F5F4F2"/>
<g clip-path="url(#clip0_6381_20020)">
<path d="M25 16.75H19" stroke="#8E8E89" stroke-linecap="round" stroke-linejoin="round"/>
<path d="M25 19.75H19" stroke="#8E8E89" stroke-linecap="round" stroke-linejoin="round"/>
<path d="M28.75 30.25V13.75C28.75 13.3358 28.4142 13 28 13H16C15.5858 13 15.25 13.3358 15.25 13.75L15.25 30.25C15.25 30.6642 15.5858 31 16 31H28C28.4142 31 28.75 30.6642 28.75 30.25Z" stroke="#8E8E89" stroke-linecap="round" stroke-linejoin="round"/>
<path d="M22 28C22.6213 28 23.125 27.4963 23.125 26.875C23.125 26.2537 22.6213 25.75 22 25.75C21.3787 25.75 20.875 26.2537 20.875 26.875C20.875 27.4963 21.3787 28 22 28Z" fill="#8E8E89"/>
</g>
<defs>
<clipPath id="clip0_6381_20020">
<rect width="24" height="24" fill="white" transform="translate(10 10)"/>
</clipPath>
</defs>
</svg>
