<svg width="44" height="44" viewBox="0 0 44 44" fill="none" xmlns="http://www.w3.org/2000/svg">
<rect width="44" height="44" rx="22" fill="#F5F4F2"/>
<g clip-path="url(#clip0_6381_20242)">
<path d="M22 18.625C22 18.1277 21.8025 17.6508 21.4508 17.2992C21.0992 16.9475 20.6223 16.75 20.125 16.75C19.6277 16.75 19.1508 16.9475 18.7992 17.2992C18.4475 17.6508 18.25 18.1277 18.25 18.625V21.25" stroke="#8E8E89" stroke-linecap="round" stroke-linejoin="round"/>
<path d="M25.75 20.125V18.625C25.75 18.1277 25.5525 17.6508 25.2008 17.2992C24.8492 16.9475 24.3723 16.75 23.875 16.75C23.3777 16.75 22.9008 16.9475 22.5492 17.2992C22.1975 17.6508 22 18.1277 22 18.625V21.25" stroke="#8E8E89" stroke-linecap="round" stroke-linejoin="round"/>
<path d="M18.25 24.25V21.25H16.375C15.8777 21.25 15.4008 21.4475 15.0492 21.7992C14.6975 22.1508 14.5 22.6277 14.5 23.125V24.25C14.5 26.2391 15.2902 28.1468 16.6967 29.5533C18.1032 30.9598 20.0109 31.75 22 31.75C23.9891 31.75 25.8968 30.9598 27.3033 29.5533C28.7098 28.1468 29.5 26.2391 29.5 24.25V20.125C29.5 19.6277 29.3025 19.1508 28.9508 18.7992C28.5992 18.4475 28.1223 18.25 27.625 18.25C27.1277 18.25 26.6508 18.4475 26.2992 18.7992C25.9475 19.1508 25.75 19.6277 25.75 20.125V21.25" stroke="#8E8E89" stroke-linecap="round" stroke-linejoin="round"/>
</g>
<defs>
<clipPath id="clip0_6381_20242">
<rect width="24" height="24" fill="white" transform="translate(10 10)"/>
</clipPath>
</defs>
</svg>
