<svg width="44" height="44" viewBox="0 0 44 44" fill="none" xmlns="http://www.w3.org/2000/svg">
<rect width="44" height="44" rx="22" fill="#F5F4F2"/>
<g clip-path="url(#clip0_6381_20214)">
<path d="M29.125 20.5C30.5747 20.5 31.75 19.3247 31.75 17.875C31.75 16.4253 30.5747 15.25 29.125 15.25C27.6753 15.25 26.5 16.4253 26.5 17.875C26.5 19.3247 27.6753 20.5 29.125 20.5Z" stroke="#8E8E89" stroke-linecap="round" stroke-linejoin="round"/>
<path d="M14.5 29.5H11.5C11.3011 29.5 11.1103 29.421 10.9697 29.2803C10.829 29.1397 10.75 28.9489 10.75 28.75V25C10.75 24.8011 10.829 24.6103 10.9697 24.4697C11.1103 24.329 11.3011 24.25 11.5 24.25H14.5" stroke="#8E8E89" stroke-linecap="round" stroke-linejoin="round"/>
<path d="M20.5 25H23.5L29.7812 23.5553C30.0122 23.492 30.2546 23.4829 30.4897 23.5285C30.7247 23.5741 30.9461 23.6734 31.1365 23.8185C31.327 23.9636 31.4814 24.1507 31.5878 24.3652C31.6942 24.5797 31.7497 24.8159 31.75 25.0553C31.7501 25.3444 31.6697 25.6279 31.5176 25.8738C31.3656 26.1197 31.148 26.3184 30.8894 26.4475L27.25 28L21.25 29.5H14.5V24.25L16.8438 21.9063C17.0532 21.6975 17.3018 21.5321 17.5753 21.4195C17.8488 21.3069 18.1418 21.2493 18.4375 21.25H23.125C23.6223 21.25 24.0992 21.4476 24.4508 21.7992C24.8025 22.1508 25 22.6277 25 23.125C25 23.6223 24.8025 24.0992 24.4508 24.4508C24.0992 24.8025 23.6223 25 23.125 25H20.5Z" stroke="#8E8E89" stroke-linecap="round" stroke-linejoin="round"/>
<path d="M26.4973 17.996C25.9878 18.237 25.4143 18.3076 24.8616 18.1974C24.309 18.0871 23.8064 17.802 23.4283 17.384C23.0502 16.9661 22.8167 16.4376 22.7623 15.8766C22.7078 15.3157 22.8354 14.7521 23.126 14.2693C23.4167 13.7864 23.855 13.4099 24.3762 13.1955C24.8974 12.9811 25.4738 12.94 26.02 13.0785C26.5663 13.217 27.0536 13.5277 27.4097 13.9645C27.7657 14.4013 27.9718 14.9412 27.9973 15.5042" stroke="#8E8E89" stroke-linecap="round" stroke-linejoin="round"/>
</g>
<defs>
<clipPath id="clip0_6381_20214">
<rect width="24" height="24" fill="white" transform="translate(10 10)"/>
</clipPath>
</defs>
</svg>
