<svg width="500" height="100" viewBox="0 0 500 100" fill="none" xmlns="http://www.w3.org/2000/svg">
<path d="M110.667 79.8221V24.6672C110.667 24.0921 111.137 23.6216 111.712 23.6216H115.529C115.895 23.6216 116.235 23.8176 116.418 24.1182L139.395 61.8641C139.814 62.5568 139.317 63.4456 138.507 63.4456C137.696 63.4456 137.187 62.5568 137.618 61.8641L160.596 24.1182C160.779 23.8046 161.118 23.6216 161.484 23.6216H165.301C165.876 23.6216 166.347 24.0921 166.347 24.6672V79.8221C166.347 80.3972 165.876 80.8676 165.301 80.8676H159.628C159.053 80.8676 158.583 80.3972 158.583 79.8221V37.2404L160.4 37.737L141.565 68.6604C141.382 68.9741 141.042 69.1571 140.676 69.1571H136.402C136.036 69.1571 135.697 68.961 135.514 68.6604L116.679 37.737L118.404 37.2404V79.8221C118.404 80.3972 117.934 80.8676 117.359 80.8676H111.686C111.111 80.8676 110.641 80.3972 110.641 79.8221H110.667Z" fill="black"/>
<path d="M195.211 81.6936C191.63 81.6936 188.388 80.8048 185.474 79.0143C182.559 77.2237 180.259 74.7927 178.586 71.7083C176.913 68.6238 176.076 65.1602 176.076 61.3177C176.076 57.4751 176.913 54.0116 178.586 50.9271C180.259 47.8426 182.546 45.3986 185.435 43.5818C188.323 41.7651 191.578 40.8633 195.211 40.8633C198.178 40.8633 200.832 41.4775 203.171 42.7192C205.511 43.9608 207.393 45.66 208.818 47.8296C210.242 49.9992 211.039 52.5217 211.209 55.3709V67.1599C211.039 69.9699 210.255 72.4662 208.857 74.662C207.458 76.8577 205.589 78.583 203.25 79.8115C200.91 81.0532 198.23 81.6675 195.211 81.6675V81.6936ZM196.453 74.6881C200.139 74.6881 203.106 73.4334 205.367 70.9371C207.615 68.4407 208.752 65.2387 208.752 61.3308C208.752 58.6384 208.242 56.2858 207.223 54.273C206.203 52.2602 204.766 50.7049 202.897 49.5679C201.028 48.4439 198.858 47.8818 196.374 47.8818C193.891 47.8818 191.708 48.4569 189.813 49.6201C187.918 50.7703 186.428 52.3517 185.356 54.3645C184.284 56.3773 183.749 58.6645 183.749 61.2523C183.749 63.8402 184.284 66.2188 185.356 68.2185C186.428 70.2313 187.931 71.7997 189.852 72.9629C191.774 74.1131 193.983 74.6881 196.453 74.6881ZM208.242 79.8246V70.3882C208.242 70.3882 208.242 70.2836 208.242 70.2314L209.615 60.8864C209.628 60.7818 209.628 60.6773 209.615 60.5858L208.242 51.3323C208.242 51.3323 208.242 51.2277 208.242 51.1754V42.7323C208.242 42.1572 208.713 41.6867 209.288 41.6867H214.712C215.287 41.6867 215.758 42.1572 215.758 42.7323V79.8246C215.758 80.3997 215.287 80.8702 214.712 80.8702H209.288C208.713 80.8702 208.242 80.3997 208.242 79.8246Z" fill="black"/>
<path d="M226.521 79.8246V42.7323C226.521 42.1572 226.992 41.6867 227.567 41.6867H232.9C233.475 41.6867 233.945 42.1572 233.945 42.7323V79.8246C233.945 80.3997 233.475 80.8702 232.9 80.8702H227.567C226.992 80.8702 226.521 80.3997 226.521 79.8246ZM232.547 57.9064L231.789 57.5666C231.397 57.3967 231.148 57.0046 231.161 56.5733C231.266 51.9074 232.416 48.1563 234.612 45.3202C236.925 42.3533 240.245 40.8633 244.598 40.8633C246.571 40.8633 248.362 41.2031 249.957 41.8958C251.29 42.4708 252.558 43.3727 253.734 44.5882C254.126 44.9803 254.1 45.6338 253.721 46.0259L250.257 49.607C249.891 49.9861 249.264 50.0514 248.872 49.6985C248.231 49.1496 247.552 48.7313 246.82 48.4438C245.826 48.0648 244.676 47.8687 243.356 47.8687C240.611 47.8687 238.35 48.7444 236.599 50.5089C235.083 52.025 234.233 54.1946 234.011 57.0438C233.959 57.7496 233.2 58.1809 232.56 57.8934L232.547 57.9064Z" fill="black"/>
<path d="M259.619 79.8229V23.0212C259.619 22.4462 260.09 21.9756 260.665 21.9756H265.997C266.573 21.9756 267.043 22.4462 267.043 23.0212V79.8229C267.043 80.398 266.573 80.8685 265.997 80.8685H260.665C260.09 80.8685 259.619 80.398 259.619 79.8229ZM284.374 80.5287L267.03 61.5381C266.664 61.133 266.664 60.5187 267.043 60.1135L284.218 42.0117C284.414 41.8026 284.688 41.685 284.976 41.685H291.08C291.994 41.685 292.465 42.7828 291.838 43.4494L273.317 62.8059L273.461 60.8977C273.526 59.9959 274.65 59.6038 275.264 60.2704L292.648 79.1171C293.262 79.7837 292.792 80.8685 291.877 80.8685H285.146C284.858 80.8685 284.571 80.7509 284.374 80.5287Z" fill="black"/>
<path d="M316.602 81.6917C312.694 81.6917 309.178 80.803 306.041 79.0124C302.904 77.2218 300.434 74.7909 298.617 71.7064C296.8 68.6219 295.898 65.1322 295.898 61.2374C295.898 57.3426 296.787 53.9313 298.578 50.8468C300.369 47.7623 302.787 45.3313 305.832 43.5538C308.877 41.7632 312.302 40.8745 316.105 40.8745C319.909 40.8745 322.941 41.6979 325.712 43.3447C328.483 44.9915 330.666 47.2788 332.234 50.1933C333.803 53.1079 334.587 56.4015 334.587 60.0873C334.587 60.6362 334.561 61.2243 334.508 61.8647C334.469 62.2568 334.417 62.6881 334.338 63.1586C334.26 63.6684 333.816 64.0474 333.306 64.0474H302.146C301.571 64.0474 301.1 63.5769 301.1 63.0018V58.8979C301.1 58.3228 301.571 57.8523 302.146 57.8523H330.221L329.11 58.8325C328.47 59.3945 327.49 58.9894 327.398 58.1399C327.215 56.3885 326.784 54.8593 326.104 53.5261C325.163 51.6833 323.843 50.2587 322.144 49.2393C320.445 48.2198 318.38 47.71 315.961 47.71C313.543 47.71 311.204 48.259 309.283 49.3569C307.361 50.4547 305.871 51.997 304.826 53.9706C303.78 55.9441 303.257 58.2836 303.257 60.976C303.257 63.6684 303.806 66.1256 304.904 68.1906C306.002 70.2556 307.57 71.8501 309.609 72.9741C311.648 74.0981 313.975 74.6601 316.615 74.6601C318.811 74.6601 320.837 74.2811 322.68 73.51C324.183 72.8826 325.529 71.9939 326.679 70.8437C327.097 70.4255 327.764 70.3993 328.182 70.8176L331.515 74.2027C331.907 74.5948 331.934 75.2483 331.541 75.6534C329.803 77.4963 327.725 78.921 325.32 79.9404C322.601 81.0906 319.7 81.6786 316.615 81.6786L316.602 81.6917Z" fill="black"/>
<path d="M337.873 47.4104V42.7314C337.873 42.1563 338.344 41.6858 338.919 41.6858H363.556C364.131 41.6858 364.602 42.1563 364.602 42.7314V47.4104C364.602 47.9855 364.131 48.456 363.556 48.456H338.919C338.344 48.456 337.873 47.9855 337.873 47.4104ZM347.519 79.8237V26.3156C347.519 25.7405 347.99 25.27 348.565 25.27H353.897C354.472 25.27 354.943 25.7405 354.943 26.3156V79.8237C354.943 80.3988 354.472 80.8693 353.897 80.8693H348.565C347.99 80.8693 347.519 80.3988 347.519 79.8237Z" fill="black"/>
<path d="M368.849 81.4102V44.7804H377.067V81.4102H368.849ZM372.958 38.0649C371.563 38.0649 370.393 37.5816 369.446 36.615C368.55 35.6483 368.102 34.4528 368.102 33.0283C368.102 31.6038 368.55 30.4082 369.446 29.4416C370.393 28.475 371.563 27.9917 372.958 27.9917C374.402 27.9917 375.573 28.475 376.469 29.4416C377.366 30.4082 377.814 31.6038 377.814 33.0283C377.814 34.4528 377.366 35.6483 376.469 36.615C375.573 37.5816 374.402 38.0649 372.958 38.0649Z" fill="black"/>
<path d="M380.729 47.4103V42.7312C380.729 42.1561 381.199 41.6856 381.774 41.6856H416.881C417.456 41.6856 417.927 42.1561 417.927 42.7312V47.4103C417.927 47.9853 417.456 48.4558 416.881 48.4558H381.774C381.199 48.4558 380.729 47.9853 380.729 47.4103ZM391.42 80.8691C390.845 80.8691 390.374 80.3986 390.374 79.8236V34.6018C390.374 32.014 390.937 29.7267 392.061 27.7139C393.185 25.7012 394.766 24.1067 396.805 22.9304C398.844 21.7541 401.171 21.1528 403.811 21.1528C405.85 21.1528 407.627 21.4927 409.17 22.1854C410.385 22.7213 411.522 23.427 412.594 24.2896C413.065 24.6687 413.091 25.4006 412.659 25.8319L409.235 29.2562C408.869 29.6221 408.294 29.6483 407.863 29.3477C407.379 29.0079 406.869 28.7465 406.36 28.5373C405.588 28.2367 404.739 28.0799 403.798 28.0799C401.876 28.0799 400.386 28.6681 399.341 29.8574C398.295 31.0337 397.772 32.6152 397.772 34.6018V79.8236C397.772 80.3986 397.302 80.8691 396.727 80.8691H391.394H391.42ZM417.352 37.5686C416.032 37.5686 414.934 37.1112 414.058 36.2094C413.182 35.3075 412.738 34.1574 412.738 32.7851C412.738 31.4127 413.182 30.3541 414.058 29.4392C414.934 28.5374 416.032 28.0799 417.352 28.0799C418.776 28.0799 419.927 28.5374 420.776 29.4392C421.626 30.341 422.057 31.465 422.057 32.7851C422.057 34.1051 421.626 35.2945 420.776 36.2094C419.927 37.1112 418.776 37.5686 417.352 37.5686ZM413.64 79.8236V42.7312C413.64 42.1561 414.11 41.6856 414.685 41.6856H420.11C420.685 41.6856 421.155 42.1561 421.155 42.7312V79.8236C421.155 80.3986 420.685 80.8691 420.11 80.8691H414.685C414.11 80.8691 413.64 80.3986 413.64 79.8236Z" fill="black"/>
<path d="M432.053 79.8246V42.7323C432.053 42.1572 432.523 41.6867 433.098 41.6867H438.431C439.006 41.6867 439.477 42.1572 439.477 42.7323V79.8246C439.477 80.3997 439.006 80.8702 438.431 80.8702H433.098C432.523 80.8702 432.053 80.3997 432.053 79.8246ZM438.078 57.9064L437.32 57.5666C436.928 57.3967 436.68 57.0046 436.693 56.5733C436.797 51.9074 437.947 48.1563 440.143 45.3202C442.457 42.3533 445.777 40.8633 450.129 40.8633C452.103 40.8633 453.893 41.2031 455.488 41.8958C456.821 42.4708 458.089 43.3727 459.265 44.5882C459.657 44.9803 459.631 45.6338 459.252 46.0259L455.789 49.607C455.423 49.9861 454.795 50.0514 454.403 49.6985C453.763 49.1496 453.083 48.7313 452.351 48.4438C451.358 48.0648 450.208 47.8687 448.887 47.8687C446.143 47.8687 443.881 48.7444 442.13 50.5089C440.614 52.025 439.764 54.1946 439.542 57.0438C439.49 57.7496 438.732 58.1809 438.091 57.8934L438.078 57.9064Z" fill="black"/>
<path d="M482.014 81.6917C478.106 81.6917 474.59 80.803 471.453 79.0124C468.316 77.2218 465.846 74.7909 464.029 71.7064C462.212 68.6219 461.311 65.1322 461.311 61.2374C461.311 57.3426 462.199 53.9313 463.99 50.8468C465.781 47.7623 468.199 45.3313 471.244 43.5538C474.289 41.7632 477.714 40.8745 481.517 40.8745C485.321 40.8745 488.353 41.6979 491.124 43.3447C493.895 44.9915 496.078 47.2788 497.646 50.1933C499.215 53.1079 499.999 56.4015 499.999 60.0873C499.999 60.6362 499.973 61.2243 499.92 61.8647C499.881 62.2568 499.829 62.6881 499.751 63.1586C499.672 63.6684 499.228 64.0474 498.718 64.0474H467.558C466.983 64.0474 466.513 63.5769 466.513 63.0018V58.8979C466.513 58.3228 466.983 57.8523 467.558 57.8523H495.633L494.522 58.8325C493.882 59.3945 492.902 58.9894 492.81 58.1399C492.627 56.3885 492.196 54.8593 491.516 53.5261C490.575 51.6833 489.255 50.2587 487.556 49.2393C485.857 48.2198 483.792 47.71 481.374 47.71C478.956 47.71 476.616 48.259 474.695 49.3569C472.773 50.4547 471.283 51.997 470.238 53.9706C469.192 55.9441 468.669 58.2836 468.669 60.976C468.669 63.6684 469.218 66.1256 470.316 68.1906C471.414 70.2556 472.982 71.8501 475.021 72.9741C477.06 74.0981 479.387 74.6601 482.027 74.6601C484.223 74.6601 486.249 74.2811 488.092 73.51C489.595 72.8826 490.941 71.9939 492.091 70.8437C492.51 70.4255 493.176 70.3993 493.594 70.8176L496.927 74.2027C497.319 74.5948 497.346 75.2483 496.954 75.6534C495.215 77.4963 493.137 78.921 490.732 79.9404C488.013 81.0906 485.112 81.6786 482.027 81.6786L482.014 81.6917Z" fill="black"/>
<path d="M35.863 8.70852C35.9022 8.57782 36.4773 8.0027 36.6603 7.92428C37.6275 7.46683 48.5282 7.58448 50.4103 7.70211C86.1186 10.0416 105.332 50.31 82.851 78.8023C68.539 96.9433 42.0976 99.9101 22.9233 87.7682L16.8586 95.2703L0.389943 95.1788C-0.0283095 94.8913 -0.0152391 94.4469 0.0109017 93.9895C0.141606 91.9244 11.1599 79.7041 12.6892 76.7764C6.3239 65.1311 -0.0152391 50.7935 2.5727 37.1878C5.16064 23.582 18.9891 16.1061 31.9811 20.9681C33.3796 21.4909 34.4775 22.4449 35.8499 22.8631V8.7216L35.863 8.70852ZM52.7891 23.6474C48.5151 23.1638 42.542 23.6474 38.0457 23.6474C37.8235 23.6474 36.974 22.7847 36.6472 23.4513C42.2152 27.6467 46.3193 34.8221 46.9467 41.8276C48.0577 54.0218 40.1239 65.7977 33.0529 75.0251C56.0567 89.5065 84.9684 67.3139 74.8912 41.3701C71.5713 32.8355 62.0299 24.693 52.7761 23.6605L52.7891 23.6474ZM23.4069 36.0899C18.3356 36.9525 18.0219 43.6965 18.3879 47.6959C18.7016 51.2901 21.5509 56.4005 20.4138 59.3804C19.6949 61.2625 15.63 65.0396 16.5319 67.0524C17.4337 69.0652 18.976 68.2549 20.1262 67.0655C23.1978 63.9026 30.1251 51.2117 30.6348 46.8987C31.223 41.9321 29.916 34.9659 23.4069 36.0769V36.0899Z" fill="#E4E3D5"/>
</svg>
