<svg width="156" height="28" viewBox="0 0 156 28" fill="none" xmlns="http://www.w3.org/2000/svg">
<g id="Group">
<g id="Group_2">
<path id="Vector" d="M35.3443 23.0665V5.45208C35.3443 5.26842 35.4946 5.11816 35.6782 5.11816H36.8971C37.014 5.11816 37.1225 5.18078 37.1809 5.27678L44.5192 17.3314C44.6528 17.5526 44.4942 17.8365 44.2354 17.8365C43.9766 17.8365 43.8138 17.5526 43.9515 17.3314L51.2898 5.27678C51.3482 5.1766 51.4568 5.11816 51.5736 5.11816H52.7925C52.9762 5.11816 53.1264 5.26842 53.1264 5.45208V23.0665C53.1264 23.2502 52.9762 23.4004 52.7925 23.4004H50.9809C50.7972 23.4004 50.647 23.2502 50.647 23.0665V9.4675L51.2272 9.62611L45.2121 19.5019C45.1537 19.6021 45.0452 19.6605 44.9283 19.6605H43.5633C43.4464 19.6605 43.3379 19.5979 43.2795 19.5019L37.2644 9.62611L37.8154 9.4675V23.0665C37.8154 23.2502 37.6651 23.4004 37.4815 23.4004H35.6699C35.4862 23.4004 35.3359 23.2502 35.3359 23.0665H35.3443Z" fill="black"/>
<path id="Vector_2" d="M62.3454 23.6637C61.2017 23.6637 60.1665 23.3799 59.2356 22.808C58.3048 22.2362 57.5701 21.4598 57.0358 20.4748C56.5015 19.4897 56.2344 18.3836 56.2344 17.1564C56.2344 15.9292 56.5015 14.8231 57.0358 13.838C57.5701 12.853 58.3006 12.0724 59.2231 11.4922C60.1456 10.912 61.185 10.624 62.3454 10.624C63.293 10.624 64.1403 10.8202 64.8875 11.2167C65.6347 11.6133 66.2358 12.1559 66.6908 12.8488C67.1458 13.5417 67.4004 14.3473 67.4547 15.2572V19.0222C67.4004 19.9196 67.1499 20.7168 66.7033 21.4181C66.2567 22.1193 65.6598 22.6703 64.9126 23.0626C64.1654 23.4592 63.3097 23.6554 62.3454 23.6554V23.6637ZM62.742 21.4264C63.9191 21.4264 64.8667 21.0257 65.5888 20.2285C66.3068 19.4312 66.6699 18.4086 66.6699 17.1606C66.6699 16.3007 66.5071 15.5494 66.1815 14.9066C65.8559 14.2638 65.3968 13.7671 64.7999 13.4039C64.203 13.045 63.51 12.8655 62.7169 12.8655C61.9238 12.8655 61.2267 13.0491 60.6215 13.4206C60.0162 13.7879 59.5404 14.293 59.1981 14.9358C58.8558 15.5786 58.6846 16.3091 58.6846 17.1355C58.6846 17.962 58.8558 18.7216 59.1981 19.3603C59.5404 20.0031 60.0204 20.504 60.634 20.8754C61.2476 21.2428 61.9531 21.4264 62.742 21.4264ZM66.5071 23.0668V20.0532C66.5071 20.0532 66.5071 20.0198 66.5071 20.0031L66.9454 17.0186C66.9496 16.9853 66.9496 16.9519 66.9454 16.9226L66.5071 13.9674C66.5071 13.9674 66.5071 13.934 66.5071 13.9173V11.2209C66.5071 11.0372 66.6574 10.887 66.8411 10.887H68.5734C68.757 10.887 68.9073 11.0372 68.9073 11.2209V23.0668C68.9073 23.2505 68.757 23.4007 68.5734 23.4007H66.8411C66.6574 23.4007 66.5071 23.2505 66.5071 23.0668Z" fill="black"/>
<path id="Vector_3" d="M72.3438 23.0668V11.2209C72.3438 11.0372 72.494 10.887 72.6777 10.887H74.3808C74.5644 10.887 74.7147 11.0372 74.7147 11.2209V23.0668C74.7147 23.2505 74.5644 23.4007 74.3808 23.4007H72.6777C72.494 23.4007 72.3438 23.2505 72.3438 23.0668ZM74.2681 16.067L74.026 15.9584C73.9007 15.9042 73.8214 15.779 73.8256 15.6412C73.859 14.1511 74.2263 12.9531 74.9276 12.0474C75.6664 11.0999 76.7267 10.624 78.1167 10.624C78.747 10.624 79.3189 10.7325 79.8281 10.9538C80.2539 11.1374 80.6588 11.4255 81.0345 11.8136C81.1597 11.9389 81.1513 12.1476 81.0303 12.2728L79.9241 13.4165C79.8072 13.5375 79.6069 13.5584 79.4817 13.4457C79.2771 13.2704 79.0601 13.1368 78.8263 13.045C78.5091 12.9239 78.1417 12.8613 77.7201 12.8613C76.8435 12.8613 76.1214 13.141 75.5621 13.7045C75.0779 14.1886 74.8065 14.8815 74.7356 15.7915C74.7189 16.0169 74.4768 16.1546 74.2722 16.0628L74.2681 16.067Z" fill="black"/>
<path id="Vector_4" d="M82.9141 23.0666V4.92623C82.9141 4.74257 83.0643 4.59229 83.248 4.59229H84.9511C85.1347 4.59229 85.285 4.74257 85.285 4.92623V23.0666C85.285 23.2502 85.1347 23.4005 84.9511 23.4005H83.248C83.0643 23.4005 82.9141 23.2502 82.9141 23.0666ZM90.82 23.292L85.2808 17.2271C85.164 17.0977 85.164 16.9015 85.285 16.7721L90.7699 10.9911C90.8325 10.9243 90.9202 10.8867 91.012 10.8867H92.9614C93.2536 10.8867 93.4039 11.2373 93.2035 11.4502L87.2886 17.632L87.3346 17.0226C87.3554 16.7346 87.7144 16.6093 87.9106 16.8222L93.4623 22.8412C93.6585 23.054 93.5082 23.4005 93.216 23.4005H91.0663C90.9745 23.4005 90.8826 23.3629 90.82 23.292Z" fill="black"/>
<path id="Vector_5" d="M101.112 23.6634C99.8639 23.6634 98.741 23.3796 97.7392 22.8078C96.7374 22.2359 95.9485 21.4596 95.3682 20.4745C94.788 19.4894 94.5 18.3749 94.5 17.1311C94.5 15.8872 94.7838 14.7978 95.3557 13.8127C95.9276 12.8276 96.6998 12.0513 97.6724 11.4836C98.645 10.9118 99.7386 10.6279 100.953 10.6279C102.168 10.6279 103.136 10.8909 104.021 11.4168C104.906 11.9428 105.603 12.6732 106.104 13.604C106.605 14.5348 106.856 15.5867 106.856 16.7638C106.856 16.9391 106.847 17.1269 106.831 17.3314C106.818 17.4566 106.801 17.5944 106.776 17.7447C106.751 17.9074 106.609 18.0285 106.447 18.0285H96.4953C96.3116 18.0285 96.1613 17.8782 96.1613 17.6946V16.3839C96.1613 16.2003 96.3116 16.05 96.4953 16.05H105.461L105.107 16.363C104.902 16.5425 104.589 16.4131 104.56 16.1418C104.501 15.5825 104.364 15.0941 104.147 14.6684C103.846 14.0799 103.424 13.6249 102.882 13.2993C102.339 12.9737 101.68 12.8109 100.907 12.8109C100.135 12.8109 99.388 12.9863 98.7744 13.3369C98.1608 13.6875 97.6849 14.18 97.351 14.8103C97.0171 15.4406 96.8501 16.1877 96.8501 17.0476C96.8501 17.9074 97.0254 18.6922 97.376 19.3517C97.7267 20.0112 98.2276 20.5204 98.8788 20.8794C99.5299 21.2383 100.273 21.4178 101.116 21.4178C101.817 21.4178 102.464 21.2967 103.053 21.0505C103.533 20.8501 103.963 20.5663 104.33 20.199C104.464 20.0654 104.677 20.0571 104.81 20.1906L105.875 21.2717C106 21.3969 106.008 21.6056 105.883 21.735C105.328 22.3236 104.664 22.7785 103.896 23.1041C103.028 23.4714 102.101 23.6592 101.116 23.6592L101.112 23.6634Z" fill="black"/>
<path id="Vector_6" d="M107.906 12.7153V11.221C107.906 11.0374 108.057 10.8871 108.24 10.8871H116.109C116.292 10.8871 116.443 11.0374 116.443 11.221V12.7153C116.443 12.899 116.292 13.0493 116.109 13.0493H108.24C108.057 13.0493 107.906 12.899 107.906 12.7153ZM110.987 23.0669V5.97845C110.987 5.79479 111.137 5.64453 111.321 5.64453H113.024C113.207 5.64453 113.358 5.79479 113.358 5.97845V23.0669C113.358 23.2506 113.207 23.4009 113.024 23.4009H111.321C111.137 23.4009 110.987 23.2506 110.987 23.0669Z" fill="black"/>
<path id="Vector_7" d="M117 12.7152V11.2209C117 11.0373 117.15 10.887 117.334 10.887H128.546C128.73 10.887 128.88 11.0373 128.88 11.2209V12.7152C128.88 12.8989 128.73 13.0491 128.546 13.0491H117.334C117.15 13.0491 117 12.8989 117 12.7152ZM120.415 23.4007C120.231 23.4007 120.081 23.2505 120.081 23.0668V8.62469C120.081 7.79823 120.26 7.06776 120.619 6.42496C120.978 5.78216 121.483 5.27294 122.134 4.89728C122.785 4.52161 123.528 4.32959 124.372 4.32959C125.023 4.32959 125.591 4.43813 126.083 4.65935C126.471 4.83049 126.834 5.05588 127.177 5.33137C127.327 5.45241 127.335 5.68616 127.198 5.8239L126.104 6.9175C125.987 7.03437 125.803 7.04272 125.666 6.94672C125.511 6.83819 125.348 6.75471 125.186 6.68793C124.939 6.59193 124.668 6.54185 124.367 6.54185C123.754 6.54185 123.278 6.72967 122.944 7.10951C122.61 7.48517 122.443 7.99023 122.443 8.62469V23.0668C122.443 23.2505 122.293 23.4007 122.109 23.4007H120.406H120.415ZM128.696 9.57217C128.275 9.57217 127.924 9.42609 127.644 9.13808C127.365 8.85008 127.223 8.48276 127.223 8.04449C127.223 7.60622 127.365 7.26812 127.644 6.97594C127.924 6.68793 128.275 6.54185 128.696 6.54185C129.151 6.54185 129.518 6.68793 129.79 6.97594C130.061 7.26395 130.199 7.62291 130.199 8.04449C130.199 8.46607 130.061 8.8459 129.79 9.13808C129.518 9.42609 129.151 9.57217 128.696 9.57217ZM127.511 23.0668V11.2209C127.511 11.0373 127.661 10.887 127.845 10.887H129.577C129.761 10.887 129.911 11.0373 129.911 11.2209V23.0668C129.911 23.2505 129.761 23.4007 129.577 23.4007H127.845C127.661 23.4007 127.511 23.2505 127.511 23.0668Z" fill="black"/>
<path id="Vector_8" d="M133.391 23.0668V11.2209C133.391 11.0372 133.541 10.887 133.725 10.887H135.428C135.611 10.887 135.762 11.0372 135.762 11.2209V23.0668C135.762 23.2505 135.611 23.4007 135.428 23.4007H133.725C133.541 23.4007 133.391 23.2505 133.391 23.0668ZM135.315 16.067L135.073 15.9584C134.948 15.9042 134.868 15.779 134.872 15.6412C134.906 14.1511 135.273 12.9531 135.974 12.0474C136.713 11.0999 137.774 10.624 139.164 10.624C139.794 10.624 140.366 10.7325 140.875 10.9538C141.301 11.1374 141.706 11.4255 142.081 11.8136C142.207 11.9389 142.198 12.1476 142.077 12.2728L140.971 13.4165C140.854 13.5375 140.654 13.5584 140.529 13.4457C140.324 13.2704 140.107 13.1368 139.873 13.045C139.556 12.9239 139.189 12.8613 138.767 12.8613C137.89 12.8613 137.168 13.141 136.609 13.7045C136.125 14.1886 135.853 14.8815 135.782 15.7915C135.766 16.0169 135.524 16.1546 135.319 16.0628L135.315 16.067Z" fill="black"/>
<path id="Vector_9" d="M149.346 23.6634C148.098 23.6634 146.975 23.3796 145.974 22.8078C144.972 22.2359 144.183 21.4596 143.603 20.4745C143.022 19.4894 142.734 18.3749 142.734 17.1311C142.734 15.8872 143.018 14.7978 143.59 13.8127C144.162 12.8276 144.934 12.0513 145.907 11.4836C146.879 10.9118 147.973 10.6279 149.188 10.6279C150.402 10.6279 151.371 10.8909 152.256 11.4168C153.141 11.9428 153.838 12.6732 154.339 13.604C154.84 14.5348 155.09 15.5867 155.09 16.7638C155.09 16.9391 155.082 17.1269 155.065 17.3314C155.052 17.4566 155.036 17.5944 155.011 17.7447C154.986 17.9074 154.844 18.0285 154.681 18.0285H144.73C144.546 18.0285 144.396 17.8782 144.396 17.6946V16.3839C144.396 16.2003 144.546 16.05 144.73 16.05H153.696L153.341 16.363C153.137 16.5425 152.823 16.4131 152.794 16.1418C152.736 15.5825 152.598 15.0941 152.381 14.6684C152.08 14.0799 151.659 13.6249 151.116 13.2993C150.574 12.9737 149.914 12.8109 149.142 12.8109C148.37 12.8109 147.622 12.9863 147.009 13.3369C146.395 13.6875 145.919 14.18 145.585 14.8103C145.251 15.4406 145.084 16.1877 145.084 17.0476C145.084 17.9074 145.26 18.6922 145.61 19.3517C145.961 20.0112 146.462 20.5204 147.113 20.8794C147.764 21.2383 148.507 21.4178 149.351 21.4178C150.052 21.4178 150.699 21.2967 151.287 21.0505C151.767 20.8501 152.197 20.5663 152.565 20.199C152.698 20.0654 152.911 20.0571 153.045 20.1906L154.109 21.2717C154.234 21.3969 154.243 21.6056 154.117 21.735C153.562 22.3236 152.899 22.7785 152.131 23.1041C151.262 23.4714 150.336 23.6592 149.351 23.6592L149.346 23.6634Z" fill="black"/>
</g>
<path id="Vector_10" d="M11.4534 0.355392C11.4659 0.313651 11.6495 0.129979 11.708 0.104934C12.0169 -0.0411567 15.4982 -0.00358325 16.0993 0.033983C27.5032 0.781135 33.6393 13.6413 26.4597 22.7407C21.8889 28.5343 13.4445 29.4818 7.32088 25.6041L5.38404 28L0.124534 27.9708C-0.00904103 27.8789 -0.00486682 27.737 0.00348161 27.591C0.0452238 26.9315 3.56409 23.0287 4.05247 22.0937C2.01963 18.3747 -0.00486683 13.7958 0.821628 9.4506C1.64812 5.10543 6.06444 2.7179 10.2136 4.27064C10.6603 4.4376 11.0109 4.74228 11.4492 4.87585V0.35957L11.4534 0.355392ZM16.859 5.12631C15.494 4.97187 13.5864 5.12631 12.1504 5.12631C12.0795 5.12631 11.8082 4.85081 11.7038 5.06369C13.482 6.40355 14.7927 8.69509 14.9931 10.9324C15.3479 14.8267 12.8141 18.5876 10.5559 21.5344C17.9025 26.1593 27.1359 19.0717 23.9176 10.7863C22.8573 8.06065 19.8101 5.46023 16.8548 5.13049L16.859 5.12631ZM7.47533 9.09999C5.85573 9.37548 5.75555 11.5293 5.87243 12.8065C5.97261 13.9544 6.88259 15.5864 6.51943 16.5381C6.28985 17.1392 4.99167 18.3455 5.27969 18.9883C5.56771 19.6311 6.06027 19.3723 6.4276 18.9924C7.40854 17.9823 9.62087 13.9293 9.78367 12.5519C9.97151 10.9658 9.55409 8.74102 7.47533 9.09582V9.09999Z" fill="#E4E3D5"/>
</g>
</svg>
