<svg width="340" height="181" viewBox="0 0 340 181" fill="none" xmlns="http://www.w3.org/2000/svg">
<g opacity="0.8">
<g clip-path="url(#clip0_6001_8482)">
<rect x="0.5" width="366" height="195" rx="8" fill="#FCFCFA"/>
<g clip-path="url(#clip1_6001_8482)">
<path d="M329.956 17H11.0444C5.49705 17 1 21.5331 1 27.125V168.875C1 174.467 5.49705 179 11.0444 179H329.956C335.503 179 340 174.467 340 168.875V27.125C340 21.5331 335.503 17 329.956 17Z" fill="#FCFCFA"/>
<path d="M23.0835 37.9455C23.0092 37.7028 22.9067 37.4856 22.7759 37.2939C22.648 37.0991 22.4935 36.9328 22.3122 36.7949C22.1338 36.6571 21.9287 36.5538 21.6969 36.4849C21.4651 36.413 21.2124 36.377 20.9389 36.377C20.4484 36.377 20.0115 36.5013 19.6281 36.75C19.2446 36.9987 18.9429 37.3643 18.723 37.8467C18.506 38.3261 18.3975 38.9104 18.3975 39.5995C18.3975 40.2947 18.506 40.8834 18.723 41.3658C18.9399 41.8482 19.2417 42.2152 19.6281 42.4669C20.0145 42.7156 20.4633 42.84 20.9746 42.84C21.4383 42.84 21.8395 42.7501 22.1784 42.5703C22.5202 42.3905 22.7833 42.1358 22.9676 41.8063C23.1519 41.4736 23.2441 41.0841 23.2441 40.6377L23.6185 40.6961H21.1396V39.3928H24.8447V40.4984C24.8447 41.2864 24.6782 41.9681 24.3453 42.5434C24.0124 43.1186 23.5547 43.5621 22.972 43.8737C22.3895 44.1823 21.7206 44.3366 20.9657 44.3366C20.1244 44.3366 19.3858 44.1463 18.7497 43.7658C18.1166 43.3823 17.6217 42.8384 17.265 42.1344C16.9113 41.4272 16.7344 40.5883 16.7344 39.6175C16.7344 38.8744 16.8385 38.2107 17.0465 37.6265C17.2576 37.0422 17.5518 36.5463 17.9293 36.1388C18.3068 35.7283 18.7497 35.4167 19.258 35.2039C19.7663 34.9882 20.3192 34.8804 20.9166 34.8804C21.4219 34.8804 21.8931 34.9553 22.33 35.1051C22.7669 35.2519 23.1548 35.4616 23.4937 35.7343C23.8355 36.007 24.1164 36.3305 24.3364 36.7051C24.5564 37.0796 24.7005 37.4931 24.7689 37.9455H23.0835ZM26.2473 44.2107V37.3073H27.8123V38.4579H27.8836C28.0085 38.0594 28.2225 37.7523 28.5257 37.5365C28.8318 37.3178 29.1811 37.2085 29.5735 37.2085C29.6626 37.2085 29.7622 37.213 29.8722 37.222C29.9852 37.2279 30.0788 37.2384 30.1531 37.2534V38.75C30.0848 38.7261 29.9762 38.7051 29.8276 38.6871C29.682 38.6662 29.5408 38.6557 29.4041 38.6557C29.1098 38.6557 28.8452 38.7201 28.6104 38.8489C28.3786 38.9748 28.1958 39.15 28.062 39.3748C27.9282 39.5995 27.8614 39.8586 27.8614 40.1523V44.2107H26.2473ZM33.8052 44.3456C33.1363 44.3456 32.5567 44.1973 32.0663 43.9006C31.5758 43.604 31.1954 43.189 30.9249 42.6557C30.6574 42.1223 30.5236 41.4991 30.5236 40.786C30.5236 40.0729 30.6574 39.4482 30.9249 38.9118C31.1954 38.3755 31.5758 37.959 32.0663 37.6624C32.5567 37.3657 33.1363 37.2175 33.8052 37.2175C34.4739 37.2175 35.0536 37.3657 35.544 37.6624C36.0345 37.959 36.4135 38.3755 36.6809 38.9118C36.9515 39.4482 37.0867 40.0729 37.0867 40.786C37.0867 41.4991 36.9515 42.1223 36.6809 42.6557C36.4135 43.189 36.0345 43.604 35.544 43.9006C35.0536 44.1973 34.4739 44.3456 33.8052 44.3456ZM33.8141 43.0422C34.1767 43.0422 34.4799 42.9418 34.7236 42.7411C34.9674 42.5373 35.1487 42.2647 35.2676 41.9231C35.3894 41.5815 35.4504 41.201 35.4504 40.7815C35.4504 40.3591 35.3894 39.977 35.2676 39.6355C35.1487 39.2909 34.9674 39.0167 34.7236 38.813C34.4799 38.6092 34.1767 38.5073 33.8141 38.5073C33.4425 38.5073 33.1334 38.6092 32.8867 38.813C32.6429 39.0167 32.4601 39.2909 32.3382 39.6355C32.2193 39.977 32.1599 40.3591 32.1599 40.7815C32.1599 41.201 32.2193 41.5815 32.3382 41.9231C32.4601 42.2647 32.6429 42.5373 32.8867 42.7411C33.1334 42.9418 33.4425 43.0422 33.8141 43.0422ZM39.5483 44.2107L37.6133 37.3073H39.2585L40.4623 42.1613H40.5247L41.7553 37.3073H43.3827L44.6133 42.1344H44.6802L45.8662 37.3073H47.5159L45.5764 44.2107H43.8955L42.6114 39.5455H42.5178L41.2337 44.2107H39.5483ZM51.937 37.3073V38.5657H48V37.3073H51.937ZM48.972 35.6534H50.5861V42.1344C50.5861 42.3531 50.6187 42.5208 50.6842 42.6377C50.7525 42.7515 50.8417 42.8294 50.9517 42.8714C51.0616 42.9134 51.1836 42.9344 51.3173 42.9344C51.4183 42.9344 51.5105 42.9268 51.5937 42.9118C51.6799 42.8969 51.7453 42.8834 51.7899 42.8714L52.0619 44.1434C51.9757 44.1733 51.8523 44.2063 51.6918 44.2422C51.5343 44.2781 51.3411 44.2992 51.1122 44.3051C50.708 44.3171 50.3438 44.2557 50.0198 44.1209C49.6959 43.9831 49.4387 43.7703 49.2485 43.4826C49.0612 43.195 48.9691 42.8355 48.972 42.404V35.6534ZM54.9225 40.1658V44.2107H53.3085V35.0062H54.8868V38.4804H54.9671C55.1276 38.0909 55.3758 37.7837 55.7117 37.559C56.0505 37.3313 56.4816 37.2175 57.0047 37.2175C57.4803 37.2175 57.8949 37.3178 58.2486 37.5186C58.6024 37.7194 58.8758 38.013 59.0691 38.3995C59.2653 38.786 59.3633 39.2579 59.3633 39.8152V44.2107H57.7493V40.0669C57.7493 39.6025 57.6304 39.2415 57.3926 38.9838C57.1578 38.7231 56.8278 38.5928 56.4028 38.5928C56.1175 38.5928 55.8618 38.6557 55.6359 38.7815C55.413 38.9044 55.2376 39.0826 55.1097 39.3163C54.9849 39.55 54.9225 39.8332 54.9225 40.1658Z" fill="#8E8E89"/>
<path d="M288.75 36.8184H289.636L291.409 39.826H291.484L293.257 36.8184H294.143L291.834 40.6062V43.2615H291.06V40.6062L288.75 36.8184ZM296.188 43.3622C295.726 43.3622 295.328 43.2594 294.993 43.0539C294.66 42.8463 294.403 42.5568 294.222 42.1856C294.043 41.8123 293.953 41.3781 293.953 40.8831C293.953 40.3881 294.043 39.9519 294.222 39.5743C294.403 39.1947 294.654 38.899 294.977 38.6871C295.301 38.4732 295.68 38.3662 296.113 38.3662C296.362 38.3662 296.609 38.4082 296.853 38.4921C297.096 38.5759 297.318 38.7123 297.518 38.9011C297.717 39.0878 297.877 39.3352 297.995 39.6436C298.114 39.9519 298.173 40.3315 298.173 40.7824V41.097H294.478V40.4552H297.424C297.424 40.1826 297.37 39.9393 297.261 39.7253C297.155 39.5114 297.003 39.3426 296.806 39.2188C296.61 39.0951 296.379 39.0332 296.113 39.0332C295.819 39.0332 295.566 39.1066 295.352 39.2534C295.14 39.3981 294.976 39.5869 294.861 39.8197C294.747 40.0525 294.69 40.3021 294.69 40.5685V40.9964C294.69 41.3613 294.752 41.6706 294.877 41.9245C295.004 42.1761 295.18 42.3681 295.404 42.5002C295.629 42.6302 295.89 42.6952 296.188 42.6952C296.381 42.6952 296.556 42.668 296.712 42.6135C296.87 42.5568 297.007 42.4729 297.121 42.3617C297.236 42.2485 297.324 42.108 297.386 41.9402L298.098 42.1415C298.023 42.3848 297.897 42.5988 297.72 42.7833C297.543 42.9658 297.325 43.1084 297.065 43.2112C296.805 43.3118 296.512 43.3622 296.188 43.3622ZM300.516 43.3748C300.212 43.3748 299.936 43.3171 299.688 43.2017C299.441 43.0843 299.245 42.9154 299.099 42.6952C298.953 42.4729 298.88 42.2044 298.88 41.8898C298.88 41.613 298.934 41.3885 299.042 41.2166C299.151 41.0425 299.295 40.9061 299.476 40.8076C299.658 40.709 299.857 40.6356 300.076 40.5873C300.296 40.537 300.518 40.4972 300.741 40.4678C301.032 40.4301 301.268 40.4017 301.449 40.3829C301.632 40.3619 301.765 40.3273 301.849 40.279C301.934 40.2308 301.977 40.1469 301.977 40.0274V40.0022C301.977 39.6918 301.892 39.4505 301.724 39.2786C301.557 39.1066 301.304 39.0206 300.965 39.0206C300.614 39.0206 300.338 39.0982 300.138 39.2534C299.938 39.4087 299.798 39.5743 299.717 39.7505L299.018 39.4988C299.142 39.2052 299.309 38.9766 299.517 38.813C299.727 38.6473 299.956 38.5319 300.204 38.4669C300.453 38.3998 300.699 38.3662 300.94 38.3662C301.094 38.3662 301.271 38.3851 301.471 38.4229C301.673 38.4585 301.867 38.533 302.054 38.6462C302.244 38.7595 302.401 38.9304 302.526 39.159C302.65 39.3876 302.713 39.6939 302.713 40.0777V43.2615H301.977V42.6071H301.939C301.889 42.712 301.806 42.8242 301.689 42.9438C301.573 43.0633 301.418 43.165 301.224 43.2489C301.031 43.3328 300.795 43.3748 300.516 43.3748ZM300.628 42.7078C300.919 42.7078 301.165 42.6502 301.365 42.5348C301.567 42.4194 301.719 42.2705 301.82 42.088C301.925 41.9055 301.977 41.7137 301.977 41.5123V40.8327C301.945 40.8705 301.877 40.9051 301.771 40.9366C301.667 40.9659 301.546 40.9921 301.409 41.0152C301.273 41.0362 301.141 41.0551 301.012 41.0719C300.885 41.0866 300.782 41.0991 300.703 41.1096C300.511 41.1348 300.332 41.1757 300.166 41.2323C300.002 41.2868 299.869 41.3697 299.767 41.4809C299.667 41.5899 299.617 41.7388 299.617 41.9276C299.617 42.1856 299.712 42.3807 299.901 42.5128C300.092 42.6428 300.335 42.7078 300.628 42.7078ZM303.869 43.2615V38.4291H304.581V39.159H304.631C304.718 38.9199 304.876 38.7259 305.105 38.577C305.334 38.4281 305.592 38.3536 305.879 38.3536C305.933 38.3536 306.001 38.3547 306.082 38.3568C306.163 38.3589 306.224 38.362 306.266 38.3662V39.1213C306.241 39.115 306.184 39.1055 306.094 39.0929C306.007 39.0783 305.914 39.0709 305.817 39.0709C305.584 39.0709 305.375 39.1202 305.192 39.2188C305.011 39.3153 304.868 39.4495 304.761 39.6215C304.658 39.7914 304.606 39.9854 304.606 40.2035V43.2615H303.869ZM307.688 36.8184V43.2615H306.951V36.8184H307.688ZM309.322 45.0737C309.198 45.0737 309.086 45.0632 308.988 45.0422C308.891 45.0233 308.823 45.0045 308.786 44.9856L308.973 44.3312C309.152 44.3774 309.31 44.3941 309.447 44.3815C309.585 44.369 309.706 44.3071 309.813 44.1959C309.921 44.0868 310.02 43.9096 310.109 43.6643L310.246 43.2867L308.474 38.4291H309.273L310.596 42.28H310.646L311.969 38.4291H312.768L310.734 43.9662C310.642 44.2158 310.528 44.4224 310.393 44.586C310.258 44.7517 310.101 44.8744 309.922 44.9541C309.745 45.0338 309.545 45.0737 309.322 45.0737Z" fill="#8E8E89"/>
<path d="M318.344 38.6738L320.541 40.8887L322.738 38.6738" stroke="#3B3B35" stroke-linecap="round" stroke-linejoin="round"/>
<path d="M51.2188 144.195V62.5625" stroke="#E4E3D5"/>
<path d="M44.8248 161.281V160.778L46.3697 159.165C46.5347 158.989 46.6707 158.835 46.7777 158.704C46.8862 158.57 46.9672 158.444 47.0207 158.324C47.0742 158.204 47.1009 158.077 47.1009 157.942C47.1009 157.789 47.0652 157.657 46.9939 157.546C46.9226 157.434 46.8252 157.348 46.7019 157.288C46.5785 157.227 46.4395 157.196 46.285 157.196C46.1215 157.196 45.9788 157.229 45.857 157.297C45.7351 157.364 45.6414 157.46 45.5761 157.583C45.5107 157.705 45.478 157.849 45.478 158.014H44.8203C44.8203 157.734 44.8842 157.489 45.012 157.279C45.1398 157.069 45.3152 156.907 45.5382 156.791C45.7611 156.674 46.0145 156.616 46.2983 156.616C46.5852 156.616 46.8379 156.674 47.0563 156.789C47.2763 156.903 47.4479 157.059 47.5713 157.257C47.6947 157.453 47.7564 157.674 47.7564 157.922C47.7564 158.093 47.7244 158.26 47.6605 158.423C47.5981 158.586 47.4888 158.768 47.3328 158.969C47.1767 159.168 46.9597 159.41 46.6818 159.695L45.7745 160.652V160.686H47.8299V161.281H44.8248ZM50.076 161.358C49.7238 161.356 49.4228 161.262 49.1731 161.077C48.9235 160.891 48.7325 160.621 48.6002 160.266C48.4679 159.911 48.4018 159.483 48.4018 158.982C48.4018 158.484 48.4679 158.057 48.6002 157.704C48.7339 157.35 48.9257 157.081 49.1753 156.895C49.4265 156.709 49.7268 156.616 50.076 156.616C50.4253 156.616 50.7247 156.71 50.9744 156.897C51.2241 157.083 51.4151 157.352 51.5474 157.706C51.6811 158.058 51.748 158.484 51.748 158.982C51.748 159.484 51.6819 159.913 51.5496 160.268C51.4173 160.621 51.2263 160.891 50.9767 161.079C50.7269 161.265 50.4267 161.358 50.076 161.358ZM50.076 160.758C50.3851 160.758 50.6266 160.605 50.8005 160.302C50.9759 159.997 51.0636 159.558 51.0636 158.982C51.0636 158.6 51.0234 158.277 50.9432 158.014C50.8644 157.749 50.7507 157.548 50.6021 157.412C50.455 157.274 50.2796 157.205 50.076 157.205C49.7684 157.205 49.5268 157.358 49.3515 157.664C49.1761 157.969 49.0877 158.408 49.0862 158.982C49.0862 159.366 49.1255 159.69 49.2043 159.956C49.2846 160.219 49.3983 160.419 49.5454 160.555C49.6926 160.69 49.8694 160.758 50.076 160.758ZM54.0827 156.679V161.281H53.3916V157.376H53.3649L52.2725 158.094V157.429L53.4117 156.679H54.0827ZM56.7234 161.344C56.5198 161.341 56.3191 161.304 56.1214 161.232C55.9253 161.16 55.747 161.04 55.5864 160.873C55.4259 160.705 55.2974 160.479 55.2007 160.196C55.1056 159.913 55.0581 159.559 55.0581 159.135C55.0581 158.734 55.0975 158.377 55.1763 158.065C55.2565 157.754 55.3717 157.491 55.5218 157.277C55.6719 157.061 55.8532 156.897 56.0658 156.785C56.2783 156.673 56.5168 156.616 56.7814 156.616C57.0533 156.616 57.2948 156.67 57.5059 156.778C57.7169 156.886 57.8878 157.035 58.0186 157.225C58.1509 157.415 58.2349 157.632 58.2705 157.874H57.5906C57.5445 157.682 57.4531 157.526 57.3164 157.405C57.1797 157.284 57.0013 157.223 56.7814 157.223C56.4469 157.223 56.1861 157.37 55.9988 157.664C55.8131 157.957 55.7195 158.365 55.718 158.888H55.7514C55.8302 158.758 55.9268 158.647 56.0412 158.555C56.1572 158.463 56.2864 158.391 56.4291 158.342C56.5733 158.291 56.7249 158.265 56.8839 158.265C57.1484 158.265 57.3877 158.33 57.6017 158.461C57.8173 158.59 57.9889 158.768 58.1167 158.996C58.2445 159.223 58.3084 159.484 58.3084 159.778C58.3084 160.071 58.2423 160.338 58.1101 160.576C57.9792 160.814 57.795 161.003 57.5572 161.142C57.3194 161.28 57.0414 161.347 56.7234 161.344ZM56.7212 160.76C56.8966 160.76 57.0533 160.716 57.1916 160.63C57.3298 160.543 57.439 160.426 57.5192 160.279C57.5995 160.132 57.6397 159.968 57.6397 159.787C57.6397 159.61 57.6002 159.449 57.5215 159.304C57.4442 159.158 57.3372 159.043 57.2005 158.958C57.0652 158.872 56.9106 158.83 56.7368 158.83C56.6045 158.83 56.4818 158.855 56.3689 158.906C56.2575 158.957 56.1594 159.027 56.0747 159.117C55.9899 159.207 55.9231 159.311 55.874 159.427C55.8264 159.543 55.8027 159.665 55.8027 159.794C55.8027 159.966 55.8421 160.126 55.9208 160.273C56.0011 160.419 56.1103 160.538 56.2486 160.628C56.3882 160.716 56.5458 160.76 56.7212 160.76Z" fill="#8E8E89"/>
<path d="M87.2422 144.195V62.5625" stroke="#E4E3D5"/>
<path d="M81.0278 161.281V160.778L82.5728 159.165C82.7379 158.989 82.8735 158.835 82.9808 158.704C83.0888 158.57 83.1698 158.444 83.2238 158.324C83.2772 158.204 83.3042 158.077 83.3042 157.942C83.3042 157.789 83.2684 157.657 83.1968 157.546C83.1252 157.434 83.0279 157.348 82.9049 157.288C82.7812 157.227 82.6425 157.196 82.488 157.196C82.3242 157.196 82.1817 157.229 82.0599 157.297C81.9381 157.364 81.8446 157.46 81.7793 157.583C81.7134 157.705 81.6807 157.849 81.6807 158.014H81.0234C81.0234 157.734 81.0875 157.489 81.2149 157.279C81.343 157.069 81.5181 156.907 81.741 156.791C81.9639 156.674 82.2175 156.616 82.5012 156.616C82.7881 156.616 83.0411 156.674 83.2596 156.789C83.4793 156.903 83.6507 157.059 83.7744 157.257C83.8974 157.453 83.9596 157.674 83.9596 157.922C83.9596 158.093 83.9275 158.26 83.8635 158.423C83.8007 158.586 83.6915 158.768 83.5358 158.969C83.3795 159.168 83.1629 159.41 82.8848 159.695L81.9777 160.652V160.686H84.033V161.281H81.0278ZM86.2792 161.358C85.927 161.356 85.6257 161.262 85.3758 161.077C85.1266 160.891 84.9351 160.621 84.8033 160.266C84.6708 159.911 84.6049 159.483 84.6049 158.982C84.6049 158.484 84.6708 158.057 84.8033 157.704C84.937 157.35 85.1285 157.081 85.3783 156.895C85.6294 156.709 85.9295 156.616 86.2792 156.616C86.6282 156.616 86.9277 156.71 87.1775 156.897C87.4268 157.083 87.6182 157.352 87.7501 157.706C87.8838 158.058 87.951 158.484 87.951 158.982C87.951 159.484 87.8851 159.913 87.7526 160.268C87.6201 160.621 87.4293 160.891 87.1794 161.079C86.9302 161.265 86.6295 161.358 86.2792 161.358ZM86.2792 160.758C86.5881 160.758 86.8298 160.605 87.0036 160.302C87.1788 159.997 87.2667 159.558 87.2667 158.982C87.2667 158.6 87.2265 158.277 87.1462 158.014C87.0677 157.749 86.9534 157.548 86.8053 157.412C86.6577 157.274 86.4826 157.205 86.2792 157.205C85.9716 157.205 85.7299 157.358 85.5541 157.664C85.379 157.969 85.2904 158.408 85.2892 158.982C85.2892 159.366 85.3287 159.69 85.4072 159.956C85.4876 160.219 85.6012 160.419 85.7481 160.555C85.8956 160.69 86.0727 160.758 86.2792 160.758ZM90.2857 156.679V161.281H89.5945V157.376H89.5675L88.4752 158.094V157.429L89.6146 156.679H90.2857ZM91.486 161.281L93.4792 157.309V157.274H91.174V156.679H94.1923V157.295L92.206 161.281H91.486Z" fill="#8E8E89"/>
<path d="M123.258 144.195V62.5625" stroke="#E4E3D5"/>
<path d="M116.879 161.281V160.778L118.424 159.165C118.589 158.989 118.726 158.835 118.832 158.704C118.941 158.57 119.022 158.444 119.075 158.324C119.129 158.204 119.156 158.077 119.156 157.942C119.156 157.789 119.12 157.657 119.048 157.546C118.977 157.434 118.88 157.348 118.756 157.288C118.633 157.227 118.494 157.196 118.34 157.196C118.176 157.196 118.033 157.229 117.911 157.297C117.79 157.364 117.696 157.46 117.631 157.583C117.566 157.705 117.533 157.849 117.533 158.014H116.875C116.875 157.734 116.939 157.489 117.066 157.279C117.195 157.069 117.37 156.907 117.593 156.791C117.816 156.674 118.069 156.616 118.353 156.616C118.64 156.616 118.893 156.674 119.111 156.789C119.331 156.903 119.503 157.059 119.626 157.257C119.75 157.453 119.811 157.674 119.811 157.922C119.811 158.093 119.779 158.26 119.715 158.423C119.653 158.586 119.544 158.768 119.387 158.969C119.232 159.168 119.014 159.41 118.736 159.695L117.829 160.652V160.686H119.885V161.281H116.879ZM122.131 161.358C121.779 161.356 121.477 161.262 121.228 161.077C120.978 160.891 120.787 160.621 120.655 160.266C120.522 159.911 120.456 159.483 120.456 158.982C120.456 158.484 120.522 158.057 120.655 157.704C120.789 157.35 120.981 157.081 121.23 156.895C121.481 156.709 121.782 156.616 122.131 156.616C122.48 156.616 122.779 156.71 123.029 156.897C123.279 157.083 123.47 157.352 123.602 157.706C123.736 158.058 123.803 158.484 123.803 158.982C123.803 159.484 123.737 159.913 123.604 160.268C123.472 160.621 123.281 160.891 123.032 161.079C122.782 161.265 122.482 161.358 122.131 161.358ZM122.131 160.758C122.44 160.758 122.681 160.605 122.855 160.302C123.03 159.997 123.118 159.558 123.118 158.982C123.118 158.6 123.078 158.277 122.998 158.014C122.919 157.749 122.806 157.548 122.657 157.412C122.51 157.274 122.334 157.205 122.131 157.205C121.823 157.205 121.581 157.358 121.406 157.664C121.231 157.969 121.143 158.408 121.141 158.982C121.141 159.366 121.18 159.69 121.259 159.956C121.339 160.219 121.453 160.419 121.6 160.555C121.747 160.69 121.924 160.758 122.131 160.758ZM126.137 156.679V161.281H125.446V157.376H125.42L124.327 158.094V157.429L125.466 156.679H126.137ZM128.727 161.344C128.407 161.344 128.125 161.289 127.88 161.178C127.636 161.067 127.445 160.914 127.307 160.719C127.169 160.524 127.1 160.303 127.101 160.054C127.1 159.859 127.14 159.68 127.22 159.517C127.302 159.352 127.412 159.215 127.552 159.106C127.692 158.995 127.848 158.925 128.02 158.895V158.868C127.793 158.812 127.611 158.689 127.474 158.499C127.337 158.309 127.27 158.09 127.271 157.843C127.27 157.608 127.331 157.398 127.456 157.214C127.582 157.028 127.756 156.882 127.975 156.776C128.196 156.669 128.446 156.616 128.727 156.616C129.005 156.616 129.253 156.67 129.471 156.778C129.691 156.885 129.864 157.03 129.991 157.216C130.117 157.4 130.181 157.609 130.183 157.843C130.181 158.09 130.111 158.309 129.973 158.499C129.835 158.689 129.655 158.812 129.434 158.868V158.895C129.604 158.925 129.758 158.995 129.895 159.106C130.033 159.215 130.143 159.352 130.225 159.517C130.308 159.68 130.35 159.859 130.352 160.054C130.35 160.303 130.281 160.524 130.142 160.719C130.004 160.914 129.812 161.067 129.567 161.178C129.324 161.289 129.043 161.344 128.727 161.344ZM128.727 160.776C128.916 160.776 129.079 160.744 129.217 160.681C129.355 160.617 129.463 160.528 129.539 160.414C129.614 160.299 129.653 160.164 129.654 160.009C129.653 159.849 129.611 159.707 129.529 159.585C129.449 159.462 129.34 159.365 129.201 159.295C129.063 159.225 128.905 159.189 128.727 159.189C128.547 159.189 128.387 159.225 128.248 159.295C128.108 159.365 127.998 159.462 127.918 159.585C127.837 159.707 127.798 159.849 127.8 160.009C127.798 160.164 127.834 160.299 127.909 160.414C127.984 160.528 128.092 160.617 128.232 160.681C128.371 160.744 128.537 160.776 128.727 160.776ZM128.727 158.634C128.878 158.634 129.013 158.603 129.13 158.542C129.248 158.48 129.34 158.395 129.407 158.286C129.475 158.177 129.51 158.048 129.512 157.901C129.51 157.758 129.476 157.632 129.409 157.524C129.343 157.416 129.252 157.333 129.135 157.274C129.017 157.215 128.881 157.184 128.727 157.184C128.569 157.184 128.431 157.215 128.312 157.274C128.194 157.333 128.103 157.416 128.038 157.524C127.973 157.632 127.941 157.758 127.942 157.901C127.941 158.048 127.973 158.177 128.04 158.286C128.107 158.395 128.199 158.48 128.317 158.542C128.436 158.603 128.572 158.634 128.727 158.634Z" fill="#8E8E89"/>
<path d="M159.281 144.195V62.5625" stroke="#E4E3D5"/>
<path d="M152.887 161.281V160.778L154.432 159.165C154.597 158.989 154.733 158.836 154.84 158.704C154.948 158.57 155.029 158.444 155.083 158.324C155.137 158.204 155.163 158.077 155.163 157.942C155.163 157.79 155.128 157.657 155.056 157.547C154.985 157.434 154.887 157.348 154.764 157.288C154.641 157.227 154.502 157.196 154.347 157.196C154.184 157.196 154.041 157.23 153.919 157.297C153.797 157.364 153.704 157.46 153.638 157.583C153.573 157.705 153.54 157.849 153.54 158.014H152.883C152.883 157.734 152.946 157.489 153.074 157.279C153.202 157.069 153.377 156.907 153.6 156.792C153.823 156.675 154.077 156.616 154.361 156.616C154.647 156.616 154.9 156.674 155.118 156.789C155.339 156.903 155.51 157.059 155.634 157.257C155.757 157.453 155.818 157.674 155.818 157.922C155.818 158.093 155.786 158.26 155.723 158.423C155.66 158.586 155.551 158.769 155.395 158.969C155.239 159.168 155.022 159.41 154.744 159.695L153.836 160.652V160.686H155.892V161.281H152.887ZM158.138 161.358C157.786 161.356 157.485 161.262 157.235 161.077C156.985 160.891 156.794 160.621 156.663 160.266C156.53 159.911 156.464 159.483 156.464 158.982C156.464 158.484 156.53 158.057 156.663 157.704C156.796 157.35 156.988 157.081 157.238 156.895C157.489 156.709 157.789 156.616 158.138 156.616C158.488 156.616 158.787 156.71 159.037 156.897C159.286 157.083 159.477 157.352 159.609 157.706C159.743 158.058 159.81 158.484 159.81 158.982C159.81 159.484 159.744 159.913 159.612 160.268C159.479 160.621 159.289 160.892 159.039 161.079C158.789 161.265 158.489 161.358 158.138 161.358ZM158.138 160.758C158.447 160.758 158.689 160.606 158.863 160.302C159.038 159.997 159.126 159.558 159.126 158.982C159.126 158.6 159.086 158.277 159.006 158.014C158.926 157.749 158.813 157.548 158.664 157.412C158.517 157.274 158.342 157.205 158.138 157.205C157.83 157.205 157.589 157.358 157.413 157.664C157.238 157.969 157.15 158.408 157.149 158.982C157.149 159.366 157.187 159.691 157.267 159.956C157.347 160.219 157.461 160.42 157.607 160.556C157.755 160.69 157.931 160.758 158.138 160.758ZM162.145 156.679V161.281H161.454V157.376H161.427L160.335 158.095V157.429L161.474 156.679H162.145ZM164.71 156.616C164.914 156.618 165.114 156.655 165.312 156.728C165.509 156.802 165.688 156.922 165.846 157.088C166.007 157.254 166.135 157.479 166.23 157.762C166.327 158.044 166.376 158.395 166.378 158.814C166.378 159.217 166.337 159.576 166.257 159.89C166.177 160.204 166.062 160.468 165.911 160.683C165.763 160.899 165.582 161.064 165.37 161.176C165.157 161.288 164.918 161.344 164.652 161.344C164.38 161.344 164.138 161.29 163.927 161.183C163.716 161.074 163.544 160.926 163.413 160.735C163.28 160.544 163.198 160.323 163.165 160.075H163.845C163.89 160.273 163.98 160.433 164.117 160.556C164.255 160.677 164.433 160.738 164.652 160.738C164.986 160.738 165.247 160.591 165.435 160.297C165.622 160.002 165.716 159.59 165.718 159.061H165.682C165.605 159.19 165.508 159.301 165.392 159.394C165.278 159.487 165.149 159.558 165.006 159.61C164.863 159.66 164.711 159.686 164.549 159.686C164.286 159.686 164.047 159.621 163.831 159.491C163.616 159.36 163.445 159.181 163.316 158.953C163.188 158.725 163.125 158.465 163.125 158.174C163.125 157.883 163.19 157.619 163.321 157.383C163.453 157.146 163.637 156.959 163.874 156.821C164.112 156.681 164.39 156.613 164.71 156.616ZM164.712 157.2C164.538 157.2 164.381 157.244 164.242 157.331C164.104 157.416 163.994 157.533 163.914 157.679C163.834 157.824 163.794 157.986 163.794 158.165C163.794 158.343 163.832 158.505 163.91 158.65C163.988 158.794 164.095 158.908 164.231 158.994C164.367 159.078 164.523 159.12 164.699 159.12C164.829 159.12 164.951 159.094 165.064 159.043C165.177 158.993 165.276 158.922 165.361 158.832C165.445 158.741 165.512 158.637 165.559 158.522C165.607 158.407 165.63 158.285 165.63 158.158C165.63 157.988 165.59 157.831 165.51 157.686C165.431 157.541 165.323 157.424 165.185 157.335C165.047 157.245 164.889 157.2 164.712 157.2Z" fill="#8E8E89"/>
<path d="M195.922 144.195V62.5625" stroke="#E4E3D5"/>
<path d="M189.059 161.281V160.778L190.604 159.165C190.769 158.989 190.905 158.835 191.011 158.704C191.12 158.57 191.201 158.444 191.255 158.324C191.308 158.204 191.335 158.077 191.335 157.942C191.335 157.789 191.3 157.657 191.228 157.546C191.156 157.434 191.059 157.348 190.936 157.288C190.812 157.227 190.674 157.196 190.519 157.196C190.355 157.196 190.213 157.229 190.091 157.297C189.969 157.364 189.876 157.46 189.81 157.583C189.745 157.705 189.712 157.849 189.712 158.014H189.055C189.055 157.734 189.118 157.489 189.246 157.279C189.374 157.069 189.549 156.907 189.772 156.791C189.995 156.674 190.249 156.616 190.532 156.616C190.819 156.616 191.072 156.674 191.29 156.789C191.511 156.903 191.682 157.059 191.806 157.257C191.929 157.453 191.99 157.674 191.99 157.922C191.99 158.093 191.959 158.26 191.895 158.423C191.832 158.586 191.723 158.768 191.567 158.969C191.411 159.168 191.194 159.41 190.916 159.695L190.008 160.652V160.686H192.064V161.281H189.059ZM194.31 161.358C193.958 161.356 193.657 161.262 193.407 161.077C193.158 160.891 192.966 160.621 192.835 160.266C192.702 159.911 192.636 159.483 192.636 158.982C192.636 158.484 192.702 158.057 192.835 157.704C192.968 157.35 193.16 157.081 193.41 156.895C193.661 156.709 193.961 156.616 194.31 156.616C194.659 156.616 194.959 156.71 195.209 156.897C195.458 157.083 195.649 157.352 195.781 157.706C195.915 158.058 195.982 158.484 195.982 158.982C195.982 159.484 195.916 159.913 195.784 160.268C195.651 160.621 195.461 160.891 195.211 161.079C194.961 161.265 194.661 161.358 194.31 161.358ZM194.31 160.758C194.619 160.758 194.861 160.605 195.035 160.302C195.21 159.997 195.298 159.558 195.298 158.982C195.298 158.6 195.258 158.277 195.177 158.014C195.098 157.749 194.985 157.548 194.837 157.412C194.689 157.274 194.514 157.205 194.31 157.205C194.002 157.205 193.761 157.358 193.585 157.664C193.41 157.969 193.322 158.408 193.32 158.982C193.32 159.366 193.359 159.69 193.438 159.956C193.519 160.219 193.632 160.419 193.779 160.555C193.927 160.69 194.103 160.758 194.31 160.758ZM196.585 161.281V160.778L198.13 159.165C198.294 158.989 198.431 158.835 198.537 158.704C198.646 158.57 198.727 158.444 198.78 158.324C198.834 158.204 198.861 158.077 198.861 157.942C198.861 157.789 198.825 157.657 198.754 157.546C198.682 157.434 198.585 157.348 198.462 157.288C198.338 157.227 198.2 157.196 198.045 157.196C197.881 157.196 197.739 157.229 197.617 157.297C197.495 157.364 197.401 157.46 197.336 157.583C197.27 157.705 197.238 157.849 197.238 158.014H196.58C196.58 157.734 196.644 157.489 196.772 157.279C196.899 157.069 197.075 156.907 197.298 156.791C197.521 156.674 197.775 156.616 198.058 156.616C198.345 156.616 198.598 156.674 198.816 156.789C199.036 156.903 199.208 157.059 199.331 157.257C199.454 157.453 199.516 157.674 199.516 157.922C199.516 158.093 199.484 158.26 199.421 158.423C199.358 158.586 199.249 158.768 199.093 158.969C198.937 159.168 198.719 159.41 198.442 159.695L197.534 160.652V160.686H199.59V161.281H196.585ZM201.836 161.358C201.483 161.356 201.183 161.262 200.933 161.077C200.683 160.891 200.492 160.621 200.36 160.266C200.228 159.911 200.161 159.483 200.161 158.982C200.161 158.484 200.228 158.057 200.36 157.704C200.494 157.35 200.686 157.081 200.935 156.895C201.187 156.709 201.487 156.616 201.836 156.616C202.185 156.616 202.485 156.71 202.734 156.897C202.984 157.083 203.175 157.352 203.307 157.706C203.441 158.058 203.508 158.484 203.508 158.982C203.508 159.484 203.441 159.913 203.31 160.268C203.177 160.621 202.986 160.891 202.736 161.079C202.487 161.265 202.187 161.358 201.836 161.358ZM201.836 160.758C202.145 160.758 202.386 160.605 202.56 160.302C202.736 159.997 202.823 159.558 202.823 158.982C202.823 158.6 202.784 158.277 202.703 158.014C202.624 157.749 202.51 157.548 202.362 157.412C202.215 157.274 202.04 157.205 201.836 157.205C201.528 157.205 201.287 157.358 201.111 157.664C200.936 157.969 200.848 158.408 200.846 158.982C200.846 159.366 200.885 159.69 200.964 159.956C201.045 160.219 201.158 160.419 201.305 160.555C201.453 160.69 201.629 160.758 201.836 160.758Z" fill="#8E8E89"/>
<path d="M232.57 144.195V62.5625" stroke="#E4E3D5"/>
<path d="M226.247 161.281V160.778L227.792 159.165C227.957 158.989 228.092 158.835 228.2 158.704C228.308 158.57 228.389 158.444 228.443 158.324C228.496 158.204 228.523 158.077 228.523 157.942C228.523 157.789 228.487 157.657 228.416 157.546C228.345 157.434 228.247 157.348 228.124 157.288C228.001 157.227 227.861 157.196 227.707 157.196C227.544 157.196 227.4 157.229 227.279 157.297C227.157 157.364 227.063 157.46 226.998 157.583C226.933 157.705 226.899 157.849 226.899 158.014H226.242C226.242 157.734 226.306 157.489 226.434 157.279C226.562 157.069 226.737 156.907 226.96 156.791C227.183 156.674 227.436 156.616 227.72 156.616C228.007 156.616 228.26 156.674 228.478 156.789C228.698 156.903 228.869 157.059 228.993 157.257C229.116 157.453 229.178 157.674 229.178 157.922C229.178 158.093 229.146 158.26 229.082 158.423C229.02 158.586 228.911 158.768 228.755 158.969C228.598 159.168 228.382 159.41 228.104 159.695L227.196 160.652V160.686H229.252V161.281H226.247ZM231.498 161.358C231.146 161.356 230.844 161.262 230.595 161.077C230.345 160.891 230.154 160.621 230.022 160.266C229.89 159.911 229.824 159.483 229.824 158.982C229.824 158.484 229.89 158.057 230.022 157.704C230.156 157.35 230.347 157.081 230.597 156.895C230.848 156.709 231.148 156.616 231.498 156.616C231.847 156.616 232.146 156.71 232.396 156.897C232.646 157.083 232.837 157.352 232.969 157.706C233.103 158.058 233.17 158.484 233.17 158.982C233.17 159.484 233.104 159.913 232.971 160.268C232.839 160.621 232.648 160.891 232.398 161.079C232.149 161.265 231.848 161.358 231.498 161.358ZM231.498 160.758C231.807 160.758 232.049 160.605 232.222 160.302C232.398 159.997 232.485 159.558 232.485 158.982C232.485 158.6 232.445 158.277 232.365 158.014C232.286 157.749 232.173 157.548 232.024 157.412C231.876 157.274 231.701 157.205 231.498 157.205C231.19 157.205 230.949 157.358 230.773 157.664C230.598 157.969 230.509 158.408 230.508 158.982C230.508 159.366 230.547 159.69 230.626 159.956C230.706 160.219 230.82 160.419 230.967 160.555C231.114 160.69 231.291 160.758 231.498 160.758ZM233.772 161.281V160.778L235.317 159.165C235.482 158.989 235.618 158.835 235.725 158.704C235.833 158.57 235.914 158.444 235.968 158.324C236.022 158.204 236.049 158.077 236.049 157.942C236.049 157.789 236.013 157.657 235.941 157.546C235.87 157.434 235.772 157.348 235.649 157.288C235.526 157.227 235.387 157.196 235.233 157.196C235.069 157.196 234.926 157.229 234.804 157.297C234.683 157.364 234.589 157.46 234.524 157.583C234.458 157.705 234.425 157.849 234.425 158.014H233.768C233.768 157.734 233.832 157.489 233.959 157.279C234.088 157.069 234.263 156.907 234.486 156.791C234.708 156.674 234.962 156.616 235.246 156.616C235.533 156.616 235.786 156.674 236.004 156.789C236.224 156.903 236.395 157.059 236.519 157.257C236.642 157.453 236.704 157.674 236.704 157.922C236.704 158.093 236.672 158.26 236.608 158.423C236.545 158.586 236.436 158.768 236.28 158.969C236.124 159.168 235.907 159.41 235.629 159.695L234.722 160.652V160.686H236.778V161.281H233.772ZM239.166 156.679V161.281H238.475V157.376H238.448L237.356 158.094V157.429L238.495 156.679H239.166Z" fill="#8E8E89"/>
<path d="M269.219 144.195V62.5625" stroke="#E4E3D5"/>
<path d="M262.45 161.281V160.778L263.995 159.165C264.16 158.989 264.295 158.835 264.403 158.704C264.511 158.57 264.592 158.444 264.646 158.324C264.699 158.204 264.726 158.077 264.726 157.942C264.726 157.789 264.69 157.657 264.619 157.546C264.547 157.434 264.45 157.348 264.327 157.288C264.203 157.227 264.064 157.196 263.91 157.196C263.746 157.196 263.604 157.229 263.482 157.297C263.36 157.364 263.266 157.46 263.201 157.583C263.135 157.705 263.103 157.849 263.103 158.014H262.445C262.445 157.734 262.509 157.489 262.637 157.279C262.765 157.069 262.94 156.907 263.163 156.791C263.386 156.674 263.639 156.616 263.923 156.616C264.21 156.616 264.462 156.674 264.681 156.789C264.901 156.903 265.073 157.059 265.196 157.257C265.319 157.453 265.381 157.674 265.381 157.922C265.381 158.093 265.349 158.26 265.285 158.423C265.223 158.586 265.113 158.768 264.958 158.969C264.801 159.168 264.585 159.41 264.307 159.695L263.4 160.652V160.686H265.455V161.281H262.45ZM267.701 161.358C267.349 161.356 267.048 161.262 266.798 161.077C266.548 160.891 266.357 160.621 266.225 160.266C266.093 159.911 266.027 159.483 266.027 158.982C266.027 158.484 266.093 158.057 266.225 157.704C266.359 157.35 266.55 157.081 266.8 156.895C267.051 156.709 267.351 156.616 267.701 156.616C268.05 156.616 268.35 156.71 268.599 156.897C268.849 157.083 269.04 157.352 269.172 157.706C269.306 158.058 269.373 158.484 269.373 158.982C269.373 159.484 269.307 159.913 269.174 160.268C269.042 160.621 268.851 160.891 268.601 161.079C268.352 161.265 268.051 161.358 267.701 161.358ZM267.701 160.758C268.01 160.758 268.252 160.605 268.426 160.302C268.601 159.997 268.689 159.558 268.689 158.982C268.689 158.6 268.648 158.277 268.568 158.014C268.49 157.749 268.375 157.548 268.227 157.412C268.08 157.274 267.904 157.205 267.701 157.205C267.393 157.205 267.152 157.358 266.976 157.664C266.801 157.969 266.712 158.408 266.711 158.982C266.711 159.366 266.751 159.69 266.829 159.956C266.909 160.219 267.023 160.419 267.17 160.555C267.317 160.69 267.495 160.758 267.701 160.758ZM269.976 161.281V160.778L271.52 159.165C271.685 158.989 271.821 158.835 271.929 158.704C272.036 158.57 272.117 158.444 272.171 158.324C272.225 158.204 272.251 158.077 272.251 157.942C272.251 157.789 272.216 157.657 272.144 157.546C272.073 157.434 271.976 157.348 271.853 157.288C271.729 157.227 271.59 157.196 271.436 157.196C271.272 157.196 271.129 157.229 271.008 157.297C270.886 157.364 270.792 157.46 270.726 157.583C270.661 157.705 270.628 157.849 270.628 158.014H269.971C269.971 157.734 270.035 157.489 270.163 157.279C270.291 157.069 270.466 156.907 270.689 156.791C270.912 156.674 271.165 156.616 271.449 156.616C271.736 156.616 271.988 156.674 272.207 156.789C272.427 156.903 272.598 157.059 272.722 157.257C272.845 157.453 272.907 157.674 272.907 157.922C272.907 158.093 272.875 158.26 272.811 158.423C272.748 158.586 272.639 158.768 272.483 158.969C272.327 159.168 272.111 159.41 271.832 159.695L270.925 160.652V160.686H272.981V161.281H269.976ZM273.637 161.281V160.778L275.182 159.165C275.347 158.989 275.483 158.835 275.59 158.704C275.698 158.57 275.779 158.444 275.833 158.324C275.887 158.204 275.913 158.077 275.913 157.942C275.913 157.789 275.877 157.657 275.806 157.546C275.735 157.434 275.637 157.348 275.514 157.288C275.391 157.227 275.252 157.196 275.098 157.196C274.934 157.196 274.791 157.229 274.669 157.297C274.548 157.364 274.453 157.46 274.388 157.583C274.323 157.705 274.29 157.849 274.29 158.014H273.632C273.632 157.734 273.696 157.489 273.824 157.279C273.952 157.069 274.128 156.907 274.35 156.791C274.573 156.674 274.827 156.616 275.111 156.616C275.398 156.616 275.65 156.674 275.868 156.789C276.089 156.903 276.26 157.059 276.384 157.257C276.507 157.453 276.568 157.674 276.568 157.922C276.568 158.093 276.536 158.26 276.473 158.423C276.41 158.586 276.301 158.768 276.145 158.969C275.989 159.168 275.772 159.41 275.494 159.695L274.587 160.652V160.686H276.642V161.281H273.637Z" fill="#8E8E89"/>
<path d="M306.492 144.195V62.5625" stroke="#E4E3D5"/>
<path d="M299.63 161.281V160.778L301.175 159.165C301.339 158.989 301.476 158.835 301.582 158.704C301.691 158.57 301.772 158.444 301.825 158.324C301.879 158.204 301.906 158.077 301.906 157.942C301.906 157.789 301.87 157.657 301.799 157.546C301.727 157.434 301.63 157.348 301.507 157.288C301.383 157.227 301.245 157.196 301.09 157.196C300.926 157.196 300.784 157.229 300.662 157.297C300.54 157.364 300.446 157.46 300.381 157.583C300.316 157.705 300.283 157.849 300.283 158.014H299.625C299.625 157.734 299.689 157.489 299.817 157.279C299.945 157.069 300.12 156.907 300.343 156.791C300.566 156.674 300.82 156.616 301.103 156.616C301.39 156.616 301.643 156.674 301.861 156.789C302.082 156.903 302.253 157.059 302.377 157.257C302.5 157.453 302.561 157.674 302.561 157.922C302.561 158.093 302.529 158.26 302.466 158.423C302.403 158.586 302.294 158.768 302.138 158.969C301.982 159.168 301.764 159.41 301.487 159.695L300.579 160.652V160.686H302.635V161.281H299.63ZM304.881 161.358C304.529 161.356 304.228 161.262 303.978 161.077C303.728 160.891 303.537 160.621 303.405 160.266C303.273 159.911 303.206 159.483 303.206 158.982C303.206 158.484 303.273 158.057 303.405 157.704C303.539 157.35 303.731 157.081 303.981 156.895C304.232 156.709 304.532 156.616 304.881 156.616C305.23 156.616 305.53 156.71 305.779 156.897C306.029 157.083 306.22 157.352 306.352 157.706C306.486 158.058 306.553 158.484 306.553 158.982C306.553 159.484 306.487 159.913 306.355 160.268C306.222 160.621 306.031 160.891 305.782 161.079C305.532 161.265 305.232 161.358 304.881 161.358ZM304.881 160.758C305.19 160.758 305.431 160.605 305.605 160.302C305.781 159.997 305.868 159.558 305.868 158.982C305.868 158.6 305.829 158.277 305.748 158.014C305.669 157.749 305.556 157.548 305.407 157.412C305.26 157.274 305.085 157.205 304.881 157.205C304.573 157.205 304.332 157.358 304.156 157.664C303.981 157.969 303.893 158.408 303.891 158.982C303.891 159.366 303.93 159.69 304.009 159.956C304.09 160.219 304.203 160.419 304.35 160.555C304.498 160.69 304.674 160.758 304.881 160.758ZM307.155 161.281V160.778L308.7 159.165C308.865 158.989 309.002 158.835 309.108 158.704C309.217 158.57 309.298 158.444 309.351 158.324C309.405 158.204 309.432 158.077 309.432 157.942C309.432 157.789 309.396 157.657 309.325 157.546C309.253 157.434 309.156 157.348 309.033 157.288C308.909 157.227 308.77 157.196 308.615 157.196C308.452 157.196 308.31 157.229 308.188 157.297C308.066 157.364 307.972 157.46 307.907 157.583C307.841 157.705 307.809 157.849 307.809 158.014H307.151C307.151 157.734 307.215 157.489 307.343 157.279C307.47 157.069 307.646 156.907 307.869 156.791C308.092 156.674 308.345 156.616 308.629 156.616C308.916 156.616 309.168 156.674 309.387 156.789C309.607 156.903 309.779 157.059 309.902 157.257C310.025 157.453 310.087 157.674 310.087 157.922C310.087 158.093 310.055 158.26 309.991 158.423C309.929 158.586 309.819 158.768 309.663 158.969C309.507 159.168 309.29 159.41 309.013 159.695L308.105 160.652V160.686H310.16V161.281H307.155ZM312.407 161.344C312.101 161.344 311.827 161.291 311.586 161.184C311.347 161.078 311.157 160.931 311.018 160.742C310.88 160.552 310.805 160.331 310.795 160.081H311.495C311.504 160.218 311.549 160.336 311.631 160.436C311.714 160.535 311.823 160.612 311.956 160.666C312.09 160.719 312.239 160.747 312.402 160.747C312.582 160.747 312.741 160.715 312.879 160.652C313.019 160.589 313.129 160.502 313.207 160.389C313.286 160.275 313.325 160.144 313.325 159.996C313.325 159.842 313.286 159.706 313.207 159.589C313.13 159.471 313.016 159.378 312.866 159.311C312.717 159.243 312.538 159.209 312.326 159.209H311.941V158.643H312.326C312.496 158.643 312.644 158.612 312.773 158.551C312.902 158.489 313.003 158.404 313.076 158.295C313.149 158.184 313.185 158.055 313.185 157.906C313.185 157.763 313.153 157.64 313.089 157.535C313.026 157.429 312.937 157.346 312.822 157.286C312.707 157.226 312.572 157.196 312.415 157.196C312.267 157.196 312.128 157.224 311.999 157.279C311.871 157.333 311.767 157.411 311.687 157.513C311.606 157.613 311.563 157.734 311.557 157.874H310.89C310.898 157.626 310.971 157.407 311.109 157.219C311.249 157.029 311.434 156.882 311.662 156.776C311.891 156.669 312.145 156.616 312.425 156.616C312.717 156.616 312.97 156.674 313.182 156.789C313.397 156.903 313.562 157.055 313.677 157.245C313.795 157.436 313.853 157.644 313.851 157.87C313.853 158.128 313.781 158.346 313.637 158.526C313.495 158.706 313.304 158.827 313.066 158.888V158.924C313.37 158.97 313.604 159.092 313.771 159.288C313.939 159.484 314.022 159.728 314.021 160.018C314.022 160.271 313.952 160.499 313.811 160.699C313.672 160.9 313.481 161.058 313.238 161.174C312.996 161.287 312.719 161.344 312.407 161.344Z" fill="#8E8E89"/>
<path d="M18.2399 64.2886V68.8908H17.5488V64.9852H17.522L16.4297 65.7043V65.0391L17.5689 64.2886H18.2399ZM20.8761 68.9672C20.5239 68.9657 20.2229 68.8721 19.9732 68.6863C19.7236 68.5006 19.5325 68.2301 19.4003 67.8751C19.268 67.52 19.2019 67.0923 19.2019 66.5919C19.2019 66.093 19.268 65.6668 19.4003 65.3133C19.534 64.9597 19.7258 64.69 19.9754 64.5043C20.2266 64.3185 20.5269 64.2256 20.8761 64.2256C21.2253 64.2256 21.5249 64.3192 21.7745 64.5065C22.0242 64.6923 22.2152 64.9619 22.3474 65.3155C22.4812 65.6676 22.5481 66.093 22.5481 66.5919C22.5481 67.0938 22.482 67.5223 22.3497 67.8773C22.2174 68.2308 22.0265 68.5013 21.7768 68.6886C21.5271 68.8744 21.2269 68.9672 20.8761 68.9672ZM20.8761 68.3672C21.1852 68.3672 21.4267 68.2152 21.6006 67.911C21.776 67.6069 21.8637 67.1672 21.8637 66.5919C21.8637 66.2099 21.8236 65.887 21.7433 65.6233C21.6645 65.3582 21.5508 65.1575 21.4023 65.0211C21.2551 64.8833 21.0797 64.8144 20.8761 64.8144C20.5684 64.8144 20.3269 64.9672 20.1516 65.2728C19.9762 65.5784 19.8878 66.0182 19.8863 66.5919C19.8863 66.9754 19.9257 67.2998 20.0044 67.5649C20.0847 67.8286 20.1984 68.0286 20.3455 68.165C20.4927 68.2998 20.6695 68.3672 20.8761 68.3672ZM24.7401 68.9672C24.3879 68.9657 24.0869 68.8721 23.8373 68.6863C23.5875 68.5006 23.3966 68.2301 23.2643 67.8751C23.132 67.52 23.0659 67.0923 23.0659 66.5919C23.0659 66.093 23.132 65.6668 23.2643 65.3133C23.3981 64.9597 23.5898 64.69 23.8395 64.5043C24.0906 64.3185 24.3909 64.2256 24.7401 64.2256C25.0894 64.2256 25.3889 64.3192 25.6386 64.5065C25.8882 64.6923 26.0792 64.9619 26.2115 65.3155C26.3452 65.6676 26.4121 66.093 26.4121 66.5919C26.4121 67.0938 26.346 67.5223 26.2137 67.8773C26.0815 68.2308 25.8905 68.5013 25.6408 68.6886C25.3911 68.8744 25.0909 68.9672 24.7401 68.9672ZM24.7401 68.3672C25.0493 68.3672 25.2908 68.2152 25.4647 67.911C25.64 67.6069 25.7277 67.1672 25.7277 66.5919C25.7277 66.2099 25.6876 65.887 25.6074 65.6233C25.5286 65.3582 25.4149 65.1575 25.2662 65.0211C25.1191 64.8833 24.9437 64.8144 24.7401 64.8144C24.4325 64.8144 24.191 64.9672 24.0156 65.2728C23.8402 65.5784 23.7518 66.0182 23.7503 66.5919C23.7503 66.9754 23.7897 67.2998 23.8685 67.5649C23.9487 67.8286 24.0624 68.0286 24.2095 68.165C24.3567 68.2998 24.5335 68.3672 24.7401 68.3672ZM27.6367 67.72L27.6322 66.8998H27.7481L29.1124 65.4391H29.9105L28.3545 67.102H28.2497L27.6367 67.72ZM27.0236 68.8908V64.2886H27.6901V68.8908H27.0236ZM29.186 68.8908L27.9599 67.2504L28.4191 66.7807L30.0042 68.8908H29.186Z" fill="#8E8E89"/>
<path d="M43.0625 67.2378H306.415" stroke="#E4E3D5"/>
<path d="M18.0115 88.2541C17.7321 88.2541 17.481 88.2003 17.258 88.0927C17.0366 87.9833 16.8597 87.8333 16.7274 87.6434C16.5952 87.453 16.5245 87.2359 16.5156 86.9916H17.1845C17.2008 87.1891 17.2877 87.3517 17.4453 87.4789C17.6028 87.6067 17.7916 87.67 18.0115 87.67C18.1869 87.67 18.3422 87.6295 18.4774 87.5485C18.6142 87.4663 18.7212 87.353 18.7985 87.2093C18.8773 87.0657 18.9166 86.9018 18.9166 86.717C18.9166 86.5303 18.8765 86.3633 18.7962 86.2165C18.716 86.0696 18.6052 85.9538 18.4641 85.8703C18.3244 85.7861 18.1639 85.7437 17.9826 85.7418C17.8443 85.7418 17.7054 85.7659 17.5656 85.814C17.426 85.8621 17.313 85.9247 17.2268 86.0026L16.5959 85.9083L16.8523 83.589H19.3625V84.1845H17.4252L17.2803 85.4723H17.3071C17.3962 85.3856 17.5144 85.3128 17.6615 85.2546C17.8102 85.1957 17.9692 85.1666 18.1386 85.1666C18.4165 85.1666 18.6639 85.2337 18.881 85.3666C19.0994 85.5001 19.2711 85.6824 19.3959 85.9127C19.5222 86.1418 19.5847 86.4057 19.5832 86.7037C19.5847 87.0018 19.5178 87.2676 19.3826 87.5017C19.2488 87.7352 19.063 87.9194 18.8252 88.0541C18.5889 88.1877 18.3177 88.2541 18.0115 88.2541ZM21.7986 88.268C21.4464 88.2661 21.1454 88.1725 20.8958 87.9871C20.6461 87.801 20.4551 87.5308 20.3228 87.1758C20.1906 86.8208 20.1244 86.393 20.1244 85.8925C20.1244 85.3938 20.1906 84.9673 20.3228 84.6142C20.4566 84.2604 20.6483 83.9909 20.898 83.8048C21.1491 83.6194 21.4494 83.5264 21.7986 83.5264C22.1479 83.5264 22.4474 83.62 22.697 83.8073C22.9467 83.9928 23.1377 84.2623 23.27 84.6161C23.4037 84.9679 23.4707 85.3938 23.4707 85.8925C23.4707 86.3943 23.4045 86.8227 23.2722 87.1777C23.1399 87.5314 22.949 87.8016 22.6993 87.989C22.4496 88.175 22.1494 88.268 21.7986 88.268ZM21.7986 87.6681C22.1077 87.6681 22.3493 87.5156 22.5231 87.2119C22.6985 86.9075 22.7862 86.4677 22.7862 85.8925C22.7862 85.5102 22.7461 85.1875 22.6658 84.9242C22.5871 84.6591 22.4734 84.4579 22.3248 84.3218C22.1776 84.1839 22.0022 84.1149 21.7986 84.1149C21.491 84.1149 21.2494 84.268 21.0741 84.5737C20.8987 84.8793 20.8103 85.3185 20.8088 85.8925C20.8088 86.2759 20.8482 86.6006 20.927 86.8657C21.0072 87.129 21.1209 87.3296 21.268 87.4656C21.4152 87.6004 21.592 87.6681 21.7986 87.6681ZM24.6951 87.0208L24.6907 86.2006H24.8066L26.1709 84.7395H26.969L25.413 86.4025H25.3082L24.6951 87.0208ZM24.082 88.1915V83.589H24.7486V88.1915H24.082ZM26.2445 88.1915L25.0184 86.5512L25.4776 86.081L27.0627 88.1915H26.2445Z" fill="#8E8E89"/>
<path d="M43.0625 86.3804H306.415" stroke="#E4E3D5"/>
<path d="M16.5045 107.492V106.989L18.0494 105.375C18.2143 105.2 18.3503 105.046 18.4573 104.915C18.5658 104.781 18.6468 104.655 18.7003 104.535C18.7538 104.415 18.7806 104.288 18.7806 104.153C18.7806 104 18.7449 103.868 18.6736 103.757C18.6022 103.645 18.5049 103.559 18.3815 103.499C18.2582 103.438 18.1192 103.407 17.9647 103.407C17.8012 103.407 17.6585 103.44 17.5366 103.508C17.4147 103.575 17.3211 103.671 17.2557 103.793C17.1903 103.916 17.1577 104.06 17.1577 104.225H16.5C16.5 103.945 16.5639 103.7 16.6917 103.49C16.8195 103.28 16.9949 103.118 17.2178 103.002C17.4408 102.885 17.6942 102.827 17.978 102.827C18.2649 102.827 18.5176 102.885 18.736 103C18.9559 103.114 19.1276 103.269 19.251 103.468C19.3743 103.664 19.436 103.885 19.436 104.133C19.436 104.303 19.404 104.471 19.3401 104.634C19.2777 104.797 19.1685 104.979 19.0124 105.18C18.8564 105.379 18.6394 105.621 18.3615 105.906L17.4542 106.863V106.897H19.5096V107.492H16.5045ZM21.7556 107.569C21.4034 107.567 21.1025 107.473 20.8528 107.288C20.6031 107.102 20.4121 106.832 20.2798 106.477C20.1476 106.122 20.0814 105.694 20.0814 105.193C20.0814 104.695 20.1476 104.268 20.2798 103.915C20.4136 103.561 20.6054 103.292 20.855 103.106C21.1062 102.92 21.4064 102.827 21.7556 102.827C22.1049 102.827 22.4044 102.921 22.6541 103.108C22.9038 103.294 23.0947 103.563 23.227 103.917C23.3608 104.269 23.4277 104.695 23.4277 105.193C23.4277 105.695 23.3615 106.123 23.2292 106.478C23.0969 106.832 22.906 107.102 22.6563 107.29C22.4066 107.476 22.1064 107.569 21.7556 107.569ZM21.7556 106.969C22.0648 106.969 22.3063 106.816 22.4802 106.513C22.6555 106.208 22.7433 105.768 22.7433 105.193C22.7433 104.811 22.7031 104.488 22.6228 104.225C22.5441 103.96 22.4304 103.759 22.2818 103.623C22.1346 103.485 21.9593 103.416 21.7556 103.416C21.448 103.416 21.2065 103.569 21.0311 103.874C20.8558 104.18 20.7673 104.619 20.7658 105.193C20.7658 105.577 20.8052 105.901 20.884 106.166C20.9643 106.43 21.0779 106.63 21.2251 106.766C21.3722 106.901 21.5491 106.969 21.7556 106.969ZM24.6521 106.322L24.6477 105.501H24.7636L26.128 104.04H26.9261L25.37 105.703H25.2652L24.6521 106.322ZM24.0391 107.492V102.89H24.7057V107.492H24.0391ZM26.2016 107.492L24.9754 105.852L25.4347 105.382L27.0197 107.492H26.2016Z" fill="#8E8E89"/>
<path d="M43.0625 106.156H306.415" stroke="#E4E3D5"/>
<path d="M18.2399 122.191V126.793H17.5488V122.887H17.522L16.4297 123.606V122.941L17.5689 122.191H18.2399ZM20.8761 126.87C20.5239 126.868 20.2229 126.774 19.9732 126.589C19.7236 126.403 19.5325 126.132 19.4003 125.777C19.268 125.422 19.2019 124.995 19.2019 124.494C19.2019 123.995 19.268 123.569 19.4003 123.216C19.534 122.862 19.7258 122.592 19.9754 122.406C20.2266 122.221 20.5269 122.128 20.8761 122.128C21.2253 122.128 21.5249 122.222 21.7745 122.409C22.0242 122.594 22.2152 122.864 22.3474 123.218C22.4812 123.569 22.5481 123.995 22.5481 124.494C22.5481 124.996 22.482 125.424 22.3497 125.779C22.2174 126.133 22.0265 126.403 21.7768 126.591C21.5271 126.777 21.2269 126.87 20.8761 126.87ZM20.8761 126.27C21.1852 126.27 21.4267 126.117 21.6006 125.813C21.776 125.509 21.8637 125.069 21.8637 124.494C21.8637 124.112 21.8236 123.789 21.7433 123.526C21.6645 123.261 21.5508 123.059 21.4023 122.923C21.2551 122.785 21.0797 122.716 20.8761 122.716C20.5684 122.716 20.3269 122.87 20.1516 123.175C19.9762 123.481 19.8878 123.92 19.8863 124.494C19.8863 124.877 19.9257 125.202 20.0044 125.467C20.0847 125.731 20.1984 125.931 20.3455 126.067C20.4927 126.202 20.6695 126.27 20.8761 126.27ZM23.7726 125.622L23.7682 124.802H23.884L25.2484 123.341H26.0465L24.4904 125.004H24.3856L23.7726 125.622ZM23.1595 126.793V122.191H23.8261V126.793H23.1595ZM25.322 126.793L24.0959 125.153L24.5551 124.683L26.1402 126.793H25.322Z" fill="#8E8E89"/>
<path d="M43.0625 125.298H306.415" stroke="#E4E3D5"/>
<path d="M18.0961 146.17C17.7439 146.168 17.443 146.075 17.1932 145.889C16.9436 145.703 16.7526 145.433 16.6203 145.078C16.488 144.723 16.4219 144.295 16.4219 143.795C16.4219 143.296 16.488 142.87 16.6203 142.517C16.7541 142.163 16.9458 141.893 17.1955 141.707C17.4467 141.522 17.7469 141.429 18.0961 141.429C18.4454 141.429 18.7448 141.522 18.9945 141.71C19.2442 141.895 19.4352 142.165 19.5675 142.518C19.7013 142.87 19.7681 143.296 19.7681 143.795C19.7681 144.297 19.702 144.725 19.5697 145.08C19.4374 145.434 19.2464 145.704 18.9968 145.891C18.7471 146.077 18.4468 146.17 18.0961 146.17ZM18.0961 145.57C18.4053 145.57 18.6468 145.418 18.8207 145.114C18.996 144.81 19.0837 144.37 19.0837 143.795C19.0837 143.413 19.0436 143.09 18.9633 142.827C18.8846 142.561 18.7708 142.36 18.6222 142.224C18.4751 142.086 18.2997 142.017 18.0961 142.017C17.7885 142.017 17.547 142.17 17.3716 142.476C17.1962 142.782 17.1078 143.221 17.1063 143.795C17.1063 144.178 17.1457 144.503 17.2244 144.768C17.3047 145.031 17.4184 145.232 17.5656 145.368C17.7126 145.503 17.8896 145.57 18.0961 145.57Z" fill="#8E8E89"/>
<path d="M43.0625 144.441H306.811" stroke="#E4E3D5"/>
<mask id="mask0_6001_8482" style="mask-type:alpha" maskUnits="userSpaceOnUse" x="51" y="62" width="256" height="82">
<path d="M306.102 62.8081H51.8516V143.808H306.102V62.8081Z" fill="#D9D9D9"/>
</mask>
<g mask="url(#mask0_6001_8482)">
<path d="M124.522 95.5259C123.585 95.86 122.709 96.3473 121.931 96.968L88.7669 123.421C87.6126 124.342 86.2495 124.964 84.7978 125.234L54.0898 130.936C52.2432 131.279 50.5837 132.28 49.4191 133.754C45.3982 138.841 49.0218 146.324 55.5064 146.324H301.991C307.194 146.324 311.312 141.926 310.972 136.735L307.248 79.9167C306.842 73.7245 300.439 69.7912 294.732 72.2286L270.804 82.4489C269.861 82.8519 268.993 83.4133 268.238 84.1088L234.066 115.616C233.135 116.475 232.033 117.128 230.832 117.531L201.939 127.239C198.334 128.45 194.357 127.265 192.004 124.279L163.518 88.1342C161.127 85.1006 157.067 83.9308 153.429 85.2271L124.522 95.5259Z" fill="#F3FF97" stroke="#F3FF97" stroke-dasharray="2 2"/>
</g>
</g>
</g>
<rect x="1" y="0.5" width="338" height="180" rx="11.5" stroke="#8E8E89"/>
</g>
<defs>
<clipPath id="clip0_6001_8482">
<rect x="0.5" width="339" height="181" rx="12" fill="white"/>
</clipPath>
<clipPath id="clip1_6001_8482">
<rect width="339" height="162" fill="white" transform="translate(1 17)"/>
</clipPath>
</defs>
</svg>
