<svg width="366" height="195" viewBox="0 0 366 195" fill="none" xmlns="http://www.w3.org/2000/svg">
<g clip-path="url(#clip0_6001_8526)">
<rect width="366" height="195" rx="8" fill="#FCFCFA"/>
<g clip-path="url(#clip1_6001_8526)">
<path d="M359.037 10H10.963C4.90829 10 0 14.9249 0 21V175C0 181.075 4.90829 186 10.963 186H359.037C365.092 186 370 181.075 370 175V21C370 14.9249 365.092 10 359.037 10Z" fill="#FCFCFA"/>
<path d="M24.1016 32.7558C24.0205 32.4922 23.9086 32.2562 23.7658 32.0478C23.6263 31.8362 23.4576 31.6556 23.2597 31.5058C23.0651 31.3561 22.8412 31.2438 22.5882 31.1689C22.3352 31.0908 22.0594 31.0517 21.7609 31.0517C21.2256 31.0517 20.7487 31.1868 20.3302 31.457C19.9117 31.7272 19.5824 32.1244 19.3423 32.6484C19.1055 33.1693 18.9871 33.8041 18.9871 34.5527C18.9871 35.308 19.1055 35.9476 19.3423 36.4717C19.5791 36.9958 19.9084 37.3945 20.3302 37.6679C20.7519 37.9381 21.2418 38.0732 21.7998 38.0732C22.3059 38.0732 22.7439 37.9756 23.1137 37.7803C23.4868 37.585 23.774 37.3082 23.9751 36.9502C24.1762 36.5888 24.2768 36.1657 24.2768 35.6807L24.6855 35.7441H21.9799V34.3281H26.0239V35.5293C26.0239 36.3854 25.8421 37.126 25.4788 37.751C25.1154 38.3759 24.6159 38.8577 23.9799 39.1963C23.3441 39.5316 22.6141 39.6992 21.7901 39.6992C20.8719 39.6992 20.0658 39.4925 19.3715 39.0791C18.6804 38.6624 18.1403 38.0716 17.751 37.3067C17.365 36.5384 17.1719 35.627 17.1719 34.5723C17.1719 33.7649 17.2855 33.044 17.5125 32.4092C17.7429 31.7744 18.0641 31.2357 18.4761 30.7929C18.8881 30.347 19.3715 30.0084 19.9263 29.7773C20.481 29.5429 21.0845 29.4258 21.7366 29.4258C22.2881 29.4258 22.8023 29.5072 23.2792 29.6699C23.7561 29.8294 24.1795 30.0573 24.5493 30.3535C24.9224 30.6497 25.229 31.0013 25.4691 31.4082C25.7091 31.8151 25.8665 32.2643 25.9411 32.7558H24.1016ZM27.5548 39.5625V32.0625H29.2629V33.3125H29.3407C29.477 32.8796 29.7106 32.5459 30.0414 32.3115C30.3756 32.0739 30.7568 31.9551 31.1851 31.9551C31.2824 31.9551 31.391 31.96 31.5111 31.9697C31.6344 31.9762 31.7366 31.9876 31.8177 32.0039V33.6298C31.7431 33.6039 31.6246 33.581 31.4624 33.5615C31.3035 33.5388 31.1494 33.5273 31.0001 33.5273C30.6789 33.5273 30.3902 33.5973 30.1339 33.7373C29.8809 33.874 29.6814 34.0644 29.5354 34.3086C29.3893 34.5527 29.3164 34.8343 29.3164 35.1533V39.5625H27.5548ZM35.8037 39.709C35.0737 39.709 34.4411 39.5478 33.9058 39.2255C33.3705 38.9033 32.9553 38.4524 32.66 37.873C32.3681 37.2936 32.222 36.6166 32.222 35.8418C32.222 35.0671 32.3681 34.3884 32.66 33.8056C32.9553 33.223 33.3705 32.7705 33.9058 32.4482C34.4411 32.1259 35.0737 31.9649 35.8037 31.9649C36.5336 31.9649 37.1663 32.1259 37.7016 32.4482C38.2369 32.7705 38.6505 33.223 38.9425 33.8056C39.2377 34.3884 39.3853 35.0671 39.3853 35.8418C39.3853 36.6166 39.2377 37.2936 38.9425 37.873C38.6505 38.4524 38.2369 38.9033 37.7016 39.2255C37.1663 39.5478 36.5336 39.709 35.8037 39.709ZM35.8134 38.293C36.2092 38.293 36.5401 38.1839 36.8061 37.9658C37.0722 37.7445 37.2701 37.4482 37.3998 37.0771C37.5328 36.7061 37.5994 36.2926 37.5994 35.8369C37.5994 35.378 37.5328 34.9629 37.3998 34.5918C37.2701 34.2175 37.0722 33.9196 36.8061 33.6983C36.5401 33.4769 36.2092 33.3662 35.8134 33.3662C35.4079 33.3662 35.0705 33.4769 34.8012 33.6983C34.5352 33.9196 34.3357 34.2175 34.2026 34.5918C34.0729 34.9629 34.008 35.378 34.008 35.8369C34.008 36.2926 34.0729 36.7061 34.2026 37.0771C34.3357 37.4482 34.5352 37.7445 34.8012 37.9658C35.0705 38.1839 35.4079 38.293 35.8134 38.293ZM42.072 39.5625L39.96 32.0625H41.7557L43.0696 37.3359H43.1377L44.4809 32.0625H46.2571L47.6002 37.3067H47.6732L48.9677 32.0625H50.7682L48.6513 39.5625H46.8168L45.4152 34.4941H45.313L43.9115 39.5625H42.072ZM55.5936 32.0625V33.4296H51.2966V32.0625H55.5936ZM52.3575 30.2656H54.1192V37.3067C54.1192 37.5443 54.1548 37.7265 54.2262 37.8535C54.3008 37.9772 54.3982 38.0618 54.5182 38.1074C54.6382 38.153 54.7713 38.1758 54.9172 38.1758C55.0275 38.1758 55.1281 38.1676 55.219 38.1513C55.313 38.1351 55.3844 38.1205 55.4331 38.1074L55.7299 39.4893C55.6358 39.5218 55.5012 39.5576 55.326 39.5967C55.1541 39.6357 54.9432 39.6585 54.6934 39.665C54.2522 39.6781 53.8548 39.6113 53.5011 39.4649C53.1475 39.3151 52.8669 39.084 52.6593 38.7715C52.4549 38.459 52.3543 38.0683 52.3575 37.5996V30.2656ZM58.8522 35.168V39.5625H57.0905V29.5625H58.8132V33.3369H58.9008C59.076 32.9137 59.3469 32.58 59.7135 32.3359C60.0833 32.0885 60.5538 31.9649 61.1247 31.9649C61.6438 31.9649 62.0964 32.0739 62.4824 32.292C62.8685 32.5101 63.167 32.8291 63.3779 33.249C63.592 33.669 63.699 34.1816 63.699 34.7871V39.5625H61.9374V35.0605C61.9374 34.556 61.8076 34.1638 61.5481 33.8838C61.2918 33.6006 60.9317 33.459 60.4678 33.459C60.1563 33.459 59.8773 33.5273 59.6307 33.6641C59.3874 33.7975 59.196 33.9912 59.0565 34.2451C58.9203 34.499 58.8522 34.8066 58.8522 35.168Z" fill="#8E8E89"/>
<path d="M314.062 31.5312H315.03L316.965 34.7988H317.046L318.981 31.5312H319.949L317.428 35.6465V38.5312H316.583V35.6465L314.062 31.5312ZM322.181 38.6406C321.676 38.6406 321.242 38.529 320.876 38.3057C320.513 38.0801 320.232 37.7656 320.035 37.3623C319.839 36.9567 319.741 36.485 319.741 35.9473C319.741 35.4095 319.839 34.9355 320.035 34.5254C320.232 34.113 320.507 33.7917 320.859 33.5615C321.213 33.3291 321.626 33.2129 322.099 33.2129C322.371 33.2129 322.64 33.2585 322.906 33.3496C323.172 33.4407 323.414 33.5889 323.632 33.794C323.85 33.9968 324.024 34.2656 324.153 34.6006C324.283 34.9355 324.347 35.348 324.347 35.8379V36.1796H320.314V35.4824H323.53C323.53 35.1862 323.471 34.9219 323.352 34.6894C323.236 34.457 323.071 34.2736 322.855 34.1391C322.642 34.0047 322.39 33.9375 322.099 33.9375C321.778 33.9375 321.502 34.0172 321.268 34.1767C321.036 34.334 320.857 34.5391 320.733 34.792C320.608 35.0449 320.546 35.3161 320.546 35.6054V36.0703C320.546 36.4668 320.614 36.8029 320.75 37.0786C320.888 37.352 321.08 37.5606 321.325 37.7041C321.571 37.8454 321.856 37.916 322.181 37.916C322.392 37.916 322.583 37.8864 322.753 37.8272C322.925 37.7656 323.074 37.6745 323.199 37.5537C323.324 37.4306 323.421 37.278 323.489 37.0957L324.266 37.3144C324.183 37.5788 324.046 37.8112 323.853 38.0117C323.66 38.21 323.421 38.3649 323.138 38.4766C322.854 38.5859 322.535 38.6406 322.181 38.6406ZM326.904 38.6543C326.573 38.6543 326.272 38.5916 326.001 38.4663C325.731 38.3387 325.517 38.1552 325.358 37.916C325.199 37.6745 325.119 37.3828 325.119 37.041C325.119 36.7402 325.178 36.4964 325.296 36.3096C325.415 36.1205 325.572 35.9723 325.77 35.8653C325.968 35.7581 326.185 35.6784 326.424 35.6259C326.664 35.5713 326.906 35.528 327.15 35.4961C327.467 35.4551 327.725 35.4243 327.922 35.4038C328.122 35.381 328.268 35.3434 328.359 35.291C328.452 35.2386 328.499 35.1474 328.499 35.0176V34.9902C328.499 34.653 328.406 34.3909 328.223 34.2041C328.041 34.0173 327.765 33.9238 327.395 33.9238C327.011 33.9238 326.71 34.0081 326.492 34.1767C326.274 34.3454 326.12 34.5254 326.032 34.7168L325.269 34.4434C325.405 34.1244 325.587 33.876 325.814 33.6983C326.044 33.5182 326.293 33.3929 326.564 33.3223C326.836 33.2493 327.104 33.2129 327.367 33.2129C327.535 33.2129 327.729 33.2334 327.946 33.2744C328.167 33.3131 328.379 33.394 328.584 33.5171C328.791 33.6402 328.962 33.8258 329.098 34.0742C329.234 34.3226 329.302 34.6553 329.302 35.0723V38.5312H328.499V37.8203H328.458C328.403 37.9342 328.312 38.0561 328.185 38.186C328.058 38.3159 327.889 38.4264 327.677 38.5176C327.466 38.6087 327.208 38.6543 326.904 38.6543ZM327.027 37.9297C327.345 37.9297 327.613 37.867 327.831 37.7417C328.051 37.6164 328.217 37.4545 328.328 37.2563C328.442 37.0581 328.499 36.8496 328.499 36.6309V35.8925C328.464 35.9336 328.39 35.9712 328.274 36.0054C328.16 36.0373 328.029 36.0657 327.879 36.0908C327.731 36.1136 327.587 36.1341 327.446 36.1523C327.307 36.1683 327.195 36.182 327.108 36.1933C326.899 36.2207 326.704 36.2651 326.523 36.3266C326.343 36.3859 326.198 36.4759 326.087 36.5967C325.978 36.7151 325.923 36.8769 325.923 37.082C325.923 37.3623 326.027 37.5742 326.233 37.7178C326.442 37.8591 326.707 37.9297 327.027 37.9297ZM330.564 38.5312V33.2812H331.341V34.0742H331.396C331.491 33.8144 331.664 33.6037 331.913 33.4419C332.163 33.2801 332.445 33.1992 332.758 33.1992C332.817 33.1992 332.891 33.2004 332.979 33.2026C333.068 33.2049 333.135 33.2083 333.181 33.2129V34.0332C333.153 34.0263 333.091 34.0161 332.993 34.0024C332.898 33.9865 332.796 33.9785 332.69 33.9785C332.436 33.9785 332.208 34.032 332.008 34.1391C331.811 34.244 331.654 34.3898 331.538 34.5767C331.425 34.7612 331.368 34.972 331.368 35.209V38.5312H330.564ZM334.732 31.5312V38.5312H333.927V31.5312H334.732ZM336.516 40.5C336.38 40.5 336.258 40.4886 336.152 40.4658C336.045 40.4453 335.971 40.4248 335.93 40.4043L336.135 39.6933C336.33 39.7435 336.502 39.7617 336.652 39.748C336.802 39.7344 336.935 39.6671 337.051 39.5464C337.169 39.4279 337.277 39.2353 337.375 38.9688L337.525 38.5586L335.59 33.2812H336.462L337.906 37.4649H337.96L339.405 33.2812H340.277L338.056 39.2968C337.956 39.568 337.832 39.7925 337.685 39.9702C337.537 40.1502 337.366 40.2835 337.17 40.3701C336.977 40.4567 336.759 40.5 336.516 40.5Z" fill="#8E8E89"/>
<path d="M346.359 33.5469L348.758 35.9531L351.156 33.5469" stroke="#3B3B35" stroke-linecap="round" stroke-linejoin="round"/>
<path d="M54.8125 148.188V59.5" stroke="#E4E3D5"/>
<path d="M47.833 166.75V166.203L49.5192 164.45C49.6993 164.26 49.8477 164.093 49.9645 163.95C50.0829 163.805 50.1713 163.667 50.2297 163.537C50.2881 163.407 50.3173 163.268 50.3173 163.122C50.3173 162.956 50.2783 162.813 50.2005 162.692C50.1227 162.57 50.0164 162.476 49.8818 162.412C49.7471 162.345 49.5954 162.311 49.4267 162.311C49.2483 162.311 49.0926 162.348 48.9596 162.421C48.8266 162.494 48.7243 162.598 48.653 162.731C48.5816 162.865 48.5459 163.021 48.5459 163.2H47.8281C47.8281 162.896 47.8979 162.63 48.0374 162.401C48.1769 162.174 48.3683 161.997 48.6116 161.872C48.8549 161.745 49.1315 161.682 49.4413 161.682C49.7544 161.682 50.0302 161.744 50.2686 161.869C50.5087 161.993 50.696 162.162 50.8307 162.377C50.9653 162.591 51.0327 162.831 51.0327 163.1C51.0327 163.286 50.9978 163.467 50.928 163.644C50.8599 163.822 50.7406 164.02 50.5704 164.238C50.4 164.454 50.1632 164.717 49.8598 165.026L48.8695 166.067V166.103H51.113V166.75H47.833ZM53.5644 166.833C53.18 166.831 52.8515 166.729 52.579 166.528C52.3065 166.326 52.0981 166.032 51.9537 165.646C51.8093 165.261 51.7371 164.796 51.7371 164.252C51.7371 163.71 51.8093 163.247 51.9537 162.863C52.0996 162.479 52.3089 162.186 52.5814 161.984C52.8555 161.783 53.1833 161.682 53.5644 161.682C53.9457 161.682 54.2725 161.783 54.545 161.987C54.8175 162.188 55.026 162.481 55.1704 162.866C55.3163 163.248 55.3893 163.71 55.3893 164.252C55.3893 164.797 55.3171 165.263 55.1728 165.649C55.0284 166.033 54.82 166.326 54.5475 166.53C54.2749 166.732 53.9472 166.833 53.5644 166.833ZM53.5644 166.181C53.9018 166.181 54.1654 166.016 54.3552 165.686C54.5466 165.355 54.6424 164.877 54.6424 164.252C54.6424 163.837 54.5985 163.486 54.5109 163.2C54.4249 162.912 54.3009 162.694 54.1387 162.546C53.9781 162.396 53.7866 162.321 53.5644 162.321C53.2287 162.321 52.965 162.487 52.7737 162.819C52.5822 163.152 52.4857 163.629 52.4841 164.252C52.4841 164.669 52.5271 165.022 52.613 165.31C52.7007 165.596 52.8248 165.814 52.9853 165.961C53.1459 166.108 53.3389 166.181 53.5644 166.181ZM57.9375 161.75V166.75H57.1832V162.507H57.154L55.9618 163.288V162.565L57.2052 161.75H57.9375ZM60.8197 166.818C60.5974 166.815 60.3785 166.775 60.1627 166.696C59.9486 166.618 59.754 166.488 59.5788 166.306C59.4036 166.124 59.2632 165.878 59.1578 165.571C59.054 165.263 59.0021 164.879 59.0021 164.419C59.0021 163.982 59.0451 163.595 59.1311 163.256C59.2186 162.918 59.3444 162.632 59.5082 162.399C59.672 162.165 59.8699 161.987 60.1019 161.865C60.3338 161.743 60.5942 161.682 60.883 161.682C61.1798 161.682 61.4434 161.74 61.6737 161.858C61.9041 161.975 62.0906 162.137 62.2334 162.343C62.3778 162.55 62.4694 162.785 62.5083 163.048H61.7662C61.7159 162.84 61.6162 162.67 61.4669 162.538C61.3177 162.407 61.123 162.341 60.883 162.341C60.518 162.341 60.2333 162.5 60.0289 162.819C59.8261 163.138 59.724 163.582 59.7223 164.15H59.7588C59.8448 164.008 59.9502 163.888 60.0751 163.788C60.2017 163.688 60.3428 163.61 60.4985 163.556C60.6558 163.501 60.8213 163.473 60.9948 163.473C61.2836 163.473 61.5448 163.544 61.7784 163.686C62.0136 163.826 62.2009 164.02 62.3404 164.267C62.4799 164.514 62.5497 164.797 62.5497 165.116C62.5497 165.435 62.4775 165.725 62.3331 165.983C62.1904 166.242 61.9893 166.447 61.7297 166.599C61.4702 166.749 61.1668 166.821 60.8197 166.818ZM60.8172 166.183C61.0087 166.183 61.1798 166.136 61.3307 166.042C61.4815 165.948 61.6008 165.82 61.6883 165.661C61.7759 165.501 61.8197 165.323 61.8197 165.126C61.8197 164.934 61.7767 164.76 61.6908 164.601C61.6064 164.443 61.4896 164.318 61.3404 164.225C61.1928 164.133 61.024 164.087 60.8343 164.087C60.6899 164.087 60.5561 164.114 60.4328 164.169C60.3112 164.225 60.2041 164.301 60.1116 164.399C60.0191 164.496 59.9462 164.609 59.8927 164.736C59.8407 164.861 59.8148 164.994 59.8148 165.134C59.8148 165.321 59.8578 165.495 59.9437 165.654C60.0313 165.814 60.1506 165.942 60.3014 166.04C60.4539 166.135 60.6258 166.183 60.8172 166.183Z" fill="#8E8E89"/>
<path d="M94.125 148.188V59.5" stroke="#E4E3D5"/>
<path d="M87.3407 166.75V166.203L89.027 164.45C89.2072 164.26 89.3552 164.093 89.4723 163.95C89.5902 163.805 89.6786 163.667 89.7375 163.537C89.7958 163.407 89.8252 163.268 89.8252 163.122C89.8252 162.956 89.7862 162.813 89.7081 162.692C89.6299 162.57 89.5237 162.476 89.3894 162.412C89.2545 162.345 89.103 162.311 88.9345 162.311C88.7556 162.311 88.6001 162.348 88.4672 162.421C88.3343 162.494 88.2322 162.598 88.1609 162.731C88.089 162.865 88.0533 163.021 88.0533 163.2H87.3359C87.3359 162.896 87.4058 162.63 87.5449 162.401C87.6847 162.174 87.8759 161.997 88.1191 161.872C88.3623 161.745 88.6392 161.682 88.9489 161.682C89.262 161.682 89.5381 161.744 89.7766 161.869C90.0164 161.993 90.2034 162.162 90.3384 162.377C90.4727 162.591 90.5405 162.831 90.5405 163.1C90.5405 163.286 90.5056 163.467 90.4357 163.644C90.3672 163.822 90.248 164.02 90.078 164.238C89.9074 164.454 89.671 164.717 89.3675 165.026L88.3774 166.067V166.103H90.6207V166.75H87.3407ZM93.0723 166.833C92.6879 166.831 92.359 166.729 92.0863 166.528C91.8143 166.326 91.6053 166.032 91.4614 165.646C91.3169 165.261 91.2449 164.796 91.2449 164.252C91.2449 163.71 91.3169 163.247 91.4614 162.863C91.6074 162.479 91.8164 162.186 92.0891 161.984C92.3631 161.783 92.6907 161.682 93.0723 161.682C93.4533 161.682 93.7801 161.783 94.0528 161.987C94.3248 162.188 94.5338 162.481 94.6777 162.866C94.8236 163.248 94.897 163.71 94.897 164.252C94.897 164.797 94.825 165.263 94.6804 165.649C94.5359 166.033 94.3276 166.326 94.0549 166.53C93.7828 166.732 93.4546 166.833 93.0723 166.833ZM93.0723 166.181C93.4094 166.181 93.6732 166.016 93.863 165.686C94.0542 165.355 94.1501 164.877 94.1501 164.252C94.1501 163.837 94.1063 163.486 94.0186 163.2C93.9329 162.912 93.8082 162.694 93.6465 162.546C93.4855 162.396 93.2943 162.321 93.0723 162.321C92.7366 162.321 92.4728 162.487 92.2809 162.819C92.0898 163.152 91.9931 163.629 91.9918 164.252C91.9918 164.669 92.0349 165.022 92.1206 165.31C92.2083 165.596 92.3323 165.814 92.4926 165.961C92.6537 166.108 92.8469 166.181 93.0723 166.181ZM97.4452 161.75V166.75H96.6908V162.507H96.6613L95.4691 163.288V162.565L96.7127 161.75H97.4452ZM98.7552 166.75L100.931 162.434V162.397H98.4147V161.75H101.709V162.419L99.5411 166.75H98.7552Z" fill="#8E8E89"/>
<path d="M133.438 148.188V59.5" stroke="#E4E3D5"/>
<path d="M126.474 166.75V166.203L128.16 164.45C128.34 164.26 128.489 164.093 128.605 163.95C128.724 163.805 128.812 163.667 128.87 163.537C128.929 163.407 128.958 163.268 128.958 163.122C128.958 162.956 128.919 162.813 128.841 162.692C128.763 162.57 128.657 162.476 128.522 162.412C128.388 162.345 128.236 162.311 128.067 162.311C127.889 162.311 127.733 162.348 127.6 162.421C127.467 162.494 127.365 162.598 127.294 162.731C127.222 162.865 127.187 163.021 127.187 163.2H126.469C126.469 162.896 126.539 162.63 126.678 162.401C126.818 162.174 127.009 161.997 127.253 161.872C127.496 161.745 127.772 161.682 128.082 161.682C128.395 161.682 128.671 161.744 128.909 161.869C129.149 161.993 129.337 162.162 129.471 162.377C129.606 162.591 129.673 162.831 129.673 163.1C129.673 163.286 129.638 163.467 129.569 163.644C129.501 163.822 129.381 164.02 129.211 164.238C129.041 164.454 128.804 164.717 128.5 165.026L127.51 166.067V166.103H129.754V166.75H126.474ZM132.205 166.833C131.821 166.831 131.492 166.729 131.22 166.528C130.947 166.326 130.739 166.032 130.594 165.646C130.45 165.261 130.378 164.796 130.378 164.252C130.378 163.71 130.45 163.247 130.594 162.863C130.74 162.479 130.95 162.186 131.222 161.984C131.496 161.783 131.824 161.682 132.205 161.682C132.586 161.682 132.913 161.783 133.186 161.987C133.458 162.188 133.667 162.481 133.811 162.866C133.957 163.248 134.03 163.71 134.03 164.252C134.03 164.797 133.958 165.263 133.813 165.649C133.669 166.033 133.46 166.326 133.188 166.53C132.916 166.732 132.588 166.833 132.205 166.833ZM132.205 166.181C132.542 166.181 132.806 166.016 132.996 165.686C133.187 165.355 133.283 164.877 133.283 164.252C133.283 163.837 133.239 163.486 133.151 163.2C133.066 162.912 132.942 162.694 132.779 162.546C132.619 162.396 132.427 162.321 132.205 162.321C131.869 162.321 131.606 162.487 131.414 162.819C131.223 163.152 131.127 163.629 131.125 164.252C131.125 164.669 131.168 165.022 131.253 165.31C131.341 165.596 131.465 165.814 131.626 165.961C131.786 166.108 131.98 166.181 132.205 166.181ZM136.578 161.75V166.75H135.824V162.507H135.795L134.603 163.288V162.565L135.846 161.75H136.578ZM139.404 166.818C139.056 166.818 138.747 166.758 138.48 166.638C138.214 166.517 138.005 166.351 137.854 166.139C137.704 165.928 137.629 165.687 137.63 165.417C137.629 165.205 137.672 165.011 137.759 164.833C137.849 164.654 137.97 164.505 138.122 164.386C138.274 164.266 138.445 164.19 138.633 164.157V164.128C138.385 164.067 138.186 163.934 138.037 163.728C137.887 163.521 137.814 163.283 137.815 163.015C137.814 162.759 137.881 162.531 138.018 162.331C138.155 162.129 138.344 161.97 138.584 161.855C138.825 161.739 139.098 161.682 139.404 161.682C139.708 161.682 139.979 161.74 140.217 161.858C140.457 161.973 140.646 162.131 140.784 162.333C140.922 162.533 140.992 162.76 140.993 163.015C140.992 163.283 140.915 163.521 140.764 163.728C140.614 163.934 140.417 164.067 140.176 164.128V164.157C140.362 164.19 140.53 164.266 140.679 164.386C140.83 164.505 140.95 164.654 141.039 164.833C141.13 165.011 141.176 165.205 141.178 165.417C141.176 165.687 141.1 165.928 140.949 166.139C140.799 166.351 140.589 166.517 140.322 166.638C140.056 166.758 139.75 166.818 139.404 166.818ZM139.404 166.201C139.611 166.201 139.789 166.166 139.939 166.098C140.09 166.028 140.207 165.931 140.29 165.807C140.373 165.682 140.415 165.536 140.416 165.368C140.415 165.194 140.37 165.04 140.28 164.907C140.193 164.773 140.074 164.668 139.922 164.592C139.772 164.516 139.599 164.477 139.404 164.477C139.208 164.477 139.034 164.516 138.882 164.592C138.729 164.668 138.609 164.773 138.521 164.907C138.433 165.04 138.39 165.194 138.392 165.368C138.39 165.536 138.43 165.682 138.512 165.807C138.594 165.931 138.712 166.028 138.864 166.098C139.017 166.166 139.197 166.201 139.404 166.201ZM139.404 163.874C139.569 163.874 139.717 163.84 139.845 163.774C139.973 163.707 140.074 163.614 140.146 163.495C140.221 163.377 140.259 163.237 140.261 163.078C140.259 162.922 140.222 162.785 140.149 162.668C140.077 162.551 139.978 162.461 139.85 162.397C139.722 162.332 139.573 162.299 139.404 162.299C139.232 162.299 139.082 162.332 138.951 162.397C138.823 162.461 138.724 162.551 138.653 162.668C138.581 162.785 138.547 162.922 138.548 163.078C138.547 163.237 138.582 163.377 138.655 163.495C138.728 163.614 138.829 163.707 138.957 163.774C139.086 163.84 139.236 163.874 139.404 163.874Z" fill="#8E8E89"/>
<path d="M172.75 148.188V59.5" stroke="#E4E3D5"/>
<path d="M165.77 166.75V166.203L167.457 164.45C167.636 164.26 167.785 164.093 167.901 163.95C168.02 163.805 168.108 163.667 168.167 163.537C168.225 163.407 168.254 163.269 168.254 163.122C168.254 162.956 168.216 162.813 168.138 162.692C168.06 162.57 167.953 162.477 167.819 162.412C167.684 162.345 167.533 162.312 167.364 162.312C167.185 162.312 167.03 162.348 166.897 162.421C166.764 162.494 166.662 162.598 166.59 162.732C166.519 162.865 166.483 163.021 166.483 163.2H165.766C165.766 162.896 165.835 162.63 165.975 162.402C166.114 162.174 166.306 161.997 166.549 161.872C166.792 161.745 167.069 161.682 167.379 161.682C167.692 161.682 167.967 161.744 168.206 161.869C168.446 161.993 168.633 162.162 168.768 162.378C168.902 162.591 168.97 162.831 168.97 163.1C168.97 163.286 168.935 163.467 168.865 163.645C168.797 163.822 168.678 164.02 168.508 164.238C168.337 164.454 168.1 164.717 167.797 165.026L166.806 166.067V166.103H169.05V166.75H165.77ZM171.501 166.833C171.117 166.831 170.789 166.729 170.516 166.528C170.243 166.326 170.035 166.032 169.891 165.647C169.747 165.261 169.675 164.796 169.675 164.252C169.675 163.711 169.747 163.247 169.891 162.864C170.037 162.479 170.246 162.186 170.519 161.984C170.793 161.783 171.12 161.682 171.501 161.682C171.883 161.682 172.21 161.784 172.482 161.987C172.755 162.188 172.963 162.481 173.107 162.866C173.253 163.248 173.327 163.711 173.327 164.252C173.327 164.798 173.254 165.263 173.11 165.649C172.966 166.033 172.757 166.326 172.485 166.53C172.212 166.732 171.884 166.833 171.501 166.833ZM171.501 166.181C171.839 166.181 172.103 166.016 172.293 165.686C172.484 165.355 172.58 164.877 172.58 164.252C172.58 163.837 172.536 163.486 172.448 163.2C172.362 162.912 172.238 162.694 172.075 162.546C171.915 162.396 171.724 162.321 171.501 162.321C171.166 162.321 170.902 162.488 170.711 162.82C170.519 163.152 170.423 163.629 170.421 164.252C170.421 164.669 170.464 165.022 170.55 165.31C170.638 165.596 170.762 165.814 170.922 165.961C171.083 166.108 171.276 166.181 171.501 166.181ZM175.875 161.75V166.75H175.12V162.507H175.091L173.899 163.288V162.565L175.142 161.75H175.875ZM178.674 161.682C178.897 161.683 179.115 161.724 179.331 161.803C179.547 161.883 179.741 162.014 179.915 162.195C180.09 162.375 180.23 162.619 180.333 162.927C180.439 163.233 180.492 163.614 180.494 164.069C180.494 164.507 180.451 164.897 180.363 165.239C180.275 165.579 180.15 165.866 179.985 166.1C179.824 166.335 179.626 166.513 179.395 166.635C179.162 166.758 178.901 166.818 178.611 166.818C178.314 166.818 178.05 166.76 177.82 166.643C177.59 166.525 177.402 166.364 177.258 166.157C177.114 165.948 177.024 165.709 176.988 165.439H177.73C177.779 165.654 177.878 165.828 178.027 165.961C178.178 166.093 178.372 166.159 178.611 166.159C178.976 166.159 179.26 166 179.465 165.681C179.669 165.36 179.772 164.912 179.774 164.338H179.735C179.651 164.478 179.545 164.598 179.419 164.699C179.294 164.8 179.153 164.878 178.998 164.934C178.842 164.989 178.676 165.017 178.499 165.017C178.212 165.017 177.951 164.946 177.715 164.804C177.48 164.663 177.293 164.468 177.153 164.221C177.014 163.973 176.944 163.691 176.944 163.374C176.944 163.057 177.016 162.771 177.158 162.514C177.303 162.257 177.504 162.054 177.762 161.904C178.022 161.753 178.325 161.678 178.674 161.682ZM178.677 162.316C178.487 162.316 178.315 162.364 178.163 162.458C178.013 162.551 177.893 162.677 177.806 162.837C177.718 162.994 177.674 163.17 177.674 163.364C177.674 163.557 177.716 163.733 177.801 163.891C177.887 164.047 178.003 164.172 178.151 164.265C178.3 164.356 178.47 164.402 178.662 164.402C178.805 164.402 178.938 164.374 179.061 164.318C179.184 164.263 179.292 164.186 179.384 164.089C179.477 163.99 179.549 163.877 179.601 163.752C179.653 163.627 179.679 163.495 179.679 163.356C179.679 163.172 179.635 163.002 179.547 162.844C179.462 162.686 179.343 162.559 179.193 162.463C179.042 162.365 178.87 162.316 178.677 162.316Z" fill="#8E8E89"/>
<path d="M212.75 148.188V59.5" stroke="#E4E3D5"/>
<path d="M205.255 166.75V166.203L206.941 164.45C207.121 164.26 207.269 164.093 207.386 163.95C207.504 163.805 207.593 163.667 207.652 163.537C207.71 163.407 207.739 163.268 207.739 163.122C207.739 162.956 207.7 162.813 207.622 162.692C207.544 162.57 207.438 162.476 207.304 162.412C207.169 162.345 207.017 162.311 206.849 162.311C206.67 162.311 206.514 162.348 206.381 162.421C206.248 162.494 206.146 162.598 206.074 162.731C206.003 162.865 205.967 163.021 205.967 163.2H205.25C205.25 162.896 205.319 162.63 205.459 162.401C205.599 162.174 205.79 161.997 206.033 161.872C206.276 161.745 206.553 161.682 206.863 161.682C207.176 161.682 207.452 161.744 207.69 161.869C207.93 161.993 208.118 162.162 208.252 162.377C208.387 162.591 208.454 162.831 208.454 163.1C208.454 163.286 208.42 163.467 208.35 163.644C208.281 163.822 208.162 164.02 207.992 164.238C207.822 164.454 207.584 164.717 207.282 165.026L206.291 166.067V166.103H208.535V166.75H205.255ZM210.986 166.833C210.601 166.831 210.273 166.729 210 166.528C209.728 166.326 209.519 166.032 209.375 165.646C209.231 165.261 209.159 164.796 209.159 164.252C209.159 163.71 209.231 163.247 209.375 162.863C209.521 162.479 209.73 162.186 210.003 161.984C210.277 161.783 210.605 161.682 210.986 161.682C211.367 161.682 211.694 161.783 211.967 161.987C212.239 162.188 212.448 162.481 212.592 162.866C212.738 163.248 212.811 163.71 212.811 164.252C212.811 164.797 212.738 165.263 212.594 165.649C212.45 166.033 212.242 166.326 211.969 166.53C211.696 166.732 211.369 166.833 210.986 166.833ZM210.986 166.181C211.323 166.181 211.587 166.016 211.777 165.686C211.968 165.355 212.064 164.877 212.064 164.252C212.064 163.837 212.02 163.486 211.933 163.2C211.846 162.912 211.722 162.694 211.561 162.546C211.4 162.396 211.208 162.321 210.986 162.321C210.65 162.321 210.387 162.487 210.195 162.819C210.004 163.152 209.907 163.629 209.906 164.252C209.906 164.669 209.948 165.022 210.035 165.31C210.122 165.596 210.246 165.814 210.407 165.961C210.568 166.108 210.76 166.181 210.986 166.181ZM213.469 166.75V166.203L215.155 164.45C215.335 164.26 215.483 164.093 215.6 163.95C215.718 163.805 215.807 163.667 215.865 163.537C215.924 163.407 215.953 163.268 215.953 163.122C215.953 162.956 215.914 162.813 215.836 162.692C215.758 162.57 215.652 162.476 215.518 162.412C215.383 162.345 215.231 162.311 215.063 162.311C214.884 162.311 214.728 162.348 214.595 162.421C214.462 162.494 214.36 162.598 214.288 162.731C214.217 162.865 214.181 163.021 214.181 163.2H213.463C213.463 162.896 213.533 162.63 213.673 162.401C213.812 162.174 214.004 161.997 214.247 161.872C214.49 161.745 214.767 161.682 215.077 161.682C215.39 161.682 215.666 161.744 215.904 161.869C216.144 161.993 216.331 162.162 216.466 162.377C216.601 162.591 216.668 162.831 216.668 163.1C216.668 163.286 216.633 163.467 216.564 163.644C216.495 163.822 216.376 164.02 216.206 164.238C216.036 164.454 215.798 164.717 215.496 165.026L214.505 166.067V166.103H216.749V166.75H213.469ZM219.2 166.833C218.815 166.831 218.487 166.729 218.214 166.528C217.942 166.326 217.733 166.032 217.589 165.646C217.445 165.261 217.372 164.796 217.372 164.252C217.372 163.71 217.445 163.247 217.589 162.863C217.735 162.479 217.944 162.186 218.217 161.984C218.491 161.783 218.819 161.682 219.2 161.682C219.581 161.682 219.908 161.783 220.18 161.987C220.453 162.188 220.661 162.481 220.806 162.866C220.952 163.248 221.025 163.71 221.025 164.252C221.025 164.797 220.952 165.263 220.808 165.649C220.664 166.033 220.456 166.326 220.183 166.53C219.91 166.732 219.583 166.833 219.2 166.833ZM219.2 166.181C219.537 166.181 219.801 166.016 219.99 165.686C220.182 165.355 220.277 164.877 220.277 164.252C220.277 163.837 220.234 163.486 220.147 163.2C220.06 162.912 219.936 162.694 219.774 162.546C219.614 162.396 219.422 162.321 219.2 162.321C218.864 162.321 218.601 162.487 218.409 162.819C218.218 163.152 218.121 163.629 218.12 164.252C218.12 164.669 218.162 165.022 218.249 165.31C218.336 165.596 218.46 165.814 218.621 165.961C218.782 166.108 218.974 166.181 219.2 166.181Z" fill="#8E8E89"/>
<path d="M252.75 148.188V59.5" stroke="#E4E3D5"/>
<path d="M245.849 166.75V166.203L247.535 164.45C247.715 164.26 247.863 164.093 247.98 163.95C248.099 163.805 248.187 163.667 248.245 163.537C248.304 163.407 248.333 163.268 248.333 163.122C248.333 162.956 248.294 162.813 248.216 162.692C248.138 162.57 248.032 162.476 247.897 162.412C247.763 162.345 247.611 162.311 247.442 162.311C247.264 162.311 247.108 162.348 246.975 162.421C246.842 162.494 246.74 162.598 246.669 162.731C246.597 162.865 246.561 163.021 246.561 163.2H245.844C245.844 162.896 245.914 162.63 246.053 162.401C246.193 162.174 246.384 161.997 246.627 161.872C246.87 161.745 247.147 161.682 247.457 161.682C247.77 161.682 248.046 161.744 248.284 161.869C248.524 161.993 248.711 162.162 248.846 162.377C248.981 162.591 249.048 162.831 249.048 163.1C249.048 163.286 249.013 163.467 248.944 163.644C248.876 163.822 248.756 164.02 248.586 164.238C248.415 164.454 248.179 164.717 247.875 165.026L246.885 166.067V166.103H249.129V166.75H245.849ZM251.58 166.833C251.196 166.831 250.867 166.729 250.595 166.528C250.322 166.326 250.114 166.032 249.969 165.646C249.825 165.261 249.753 164.796 249.753 164.252C249.753 163.71 249.825 163.247 249.969 162.863C250.115 162.479 250.324 162.186 250.597 161.984C250.871 161.783 251.198 161.682 251.58 161.682C251.961 161.682 252.288 161.783 252.561 161.987C252.833 162.188 253.042 162.481 253.186 162.866C253.332 163.248 253.405 163.71 253.405 164.252C253.405 164.797 253.333 165.263 253.188 165.649C253.044 166.033 252.835 166.326 252.563 166.53C252.291 166.732 251.962 166.833 251.58 166.833ZM251.58 166.181C251.917 166.181 252.181 166.016 252.371 165.686C252.562 165.355 252.658 164.877 252.658 164.252C252.658 163.837 252.614 163.486 252.526 163.2C252.441 162.912 252.317 162.694 252.154 162.546C251.993 162.396 251.802 162.321 251.58 162.321C251.244 162.321 250.981 162.487 250.789 162.819C250.598 163.152 250.501 163.629 250.5 164.252C250.5 164.669 250.543 165.022 250.628 165.31C250.716 165.596 250.84 165.814 251.001 165.961C251.161 166.108 251.355 166.181 251.58 166.181ZM254.063 166.75V166.203L255.749 164.45C255.929 164.26 256.077 164.093 256.194 163.95C256.312 163.805 256.4 163.667 256.459 163.537C256.518 163.407 256.547 163.268 256.547 163.122C256.547 162.956 256.508 162.813 256.43 162.692C256.352 162.57 256.246 162.476 256.111 162.412C255.976 162.345 255.825 162.311 255.656 162.311C255.477 162.311 255.322 162.348 255.189 162.421C255.056 162.494 254.954 162.598 254.883 162.731C254.811 162.865 254.775 163.021 254.775 163.2H254.058C254.058 162.896 254.128 162.63 254.267 162.401C254.407 162.174 254.598 161.997 254.841 161.872C255.084 161.745 255.361 161.682 255.671 161.682C255.984 161.682 256.26 161.744 256.498 161.869C256.738 161.993 256.925 162.162 257.06 162.377C257.195 162.591 257.262 162.831 257.262 163.1C257.262 163.286 257.227 163.467 257.158 163.644C257.089 163.822 256.97 164.02 256.8 164.238C256.629 164.454 256.393 164.717 256.089 165.026L255.099 166.067V166.103H257.343V166.75H254.063ZM259.95 161.75V166.75H259.195V162.507H259.166L257.974 163.288V162.565L259.217 161.75H259.95Z" fill="#8E8E89"/>
<path d="M292.742 148.188V59.5" stroke="#E4E3D5"/>
<path d="M285.364 166.75V166.203L287.05 164.45C287.231 164.26 287.379 164.093 287.496 163.95C287.614 163.805 287.702 163.667 287.761 163.537C287.819 163.407 287.849 163.268 287.849 163.122C287.849 162.956 287.81 162.813 287.731 162.692C287.653 162.57 287.547 162.476 287.413 162.412C287.278 162.345 287.126 162.311 286.958 162.311C286.779 162.311 286.624 162.348 286.491 162.421C286.358 162.494 286.256 162.598 286.184 162.731C286.112 162.865 286.077 163.021 286.077 163.2H285.359C285.359 162.896 285.429 162.63 285.568 162.401C285.708 162.174 285.899 161.997 286.143 161.872C286.386 161.745 286.663 161.682 286.972 161.682C287.285 161.682 287.561 161.744 287.8 161.869C288.04 161.993 288.227 162.162 288.362 162.377C288.496 162.591 288.564 162.831 288.564 163.1C288.564 163.286 288.529 163.467 288.459 163.644C288.391 163.822 288.271 164.02 288.101 164.238C287.931 164.454 287.694 164.717 287.391 165.026L286.401 166.067V166.103H288.644V166.75H285.364ZM291.096 166.833C290.711 166.831 290.382 166.729 290.11 166.528C289.838 166.326 289.629 166.032 289.485 165.646C289.34 165.261 289.268 164.796 289.268 164.252C289.268 163.71 289.34 163.247 289.485 162.863C289.631 162.479 289.84 162.186 290.113 161.984C290.387 161.783 290.714 161.682 291.096 161.682C291.477 161.682 291.804 161.783 292.076 161.987C292.348 162.188 292.557 162.481 292.701 162.866C292.847 163.248 292.92 163.71 292.92 164.252C292.92 164.797 292.848 165.263 292.704 165.649C292.559 166.033 292.351 166.326 292.078 166.53C291.806 166.732 291.478 166.833 291.096 166.833ZM291.096 166.181C291.433 166.181 291.697 166.016 291.886 165.686C292.078 165.355 292.174 164.877 292.174 164.252C292.174 163.837 292.13 163.486 292.042 163.2C291.956 162.912 291.832 162.694 291.67 162.546C291.509 162.396 291.318 162.321 291.096 162.321C290.76 162.321 290.496 162.487 290.304 162.819C290.113 163.152 290.017 163.629 290.015 164.252C290.015 164.669 290.058 165.022 290.144 165.31C290.232 165.596 290.356 165.814 290.516 165.961C290.677 166.108 290.87 166.181 291.096 166.181ZM293.578 166.75V166.203L295.264 164.45C295.444 164.26 295.593 164.093 295.71 163.95C295.828 163.805 295.916 163.667 295.975 163.537C296.033 163.407 296.062 163.268 296.062 163.122C296.062 162.956 296.024 162.813 295.945 162.692C295.867 162.57 295.761 162.476 295.627 162.412C295.492 162.345 295.34 162.311 295.172 162.311C294.993 162.311 294.838 162.348 294.705 162.421C294.572 162.494 294.47 162.598 294.398 162.731C294.326 162.865 294.291 163.021 294.291 163.2H293.573C293.573 162.896 293.643 162.63 293.782 162.401C293.922 162.174 294.113 161.997 294.357 161.872C294.6 161.745 294.877 161.682 295.186 161.682C295.499 161.682 295.775 161.744 296.013 161.869C296.254 161.993 296.441 162.162 296.576 162.377C296.71 162.591 296.777 162.831 296.777 163.1C296.777 163.286 296.743 163.467 296.673 163.644C296.605 163.822 296.485 164.02 296.315 164.238C296.145 164.454 295.908 164.717 295.605 165.026L294.614 166.067V166.103H296.858V166.75H293.578ZM297.575 166.75V166.203L299.26 164.45C299.441 164.26 299.589 164.093 299.706 163.95C299.824 163.805 299.913 163.667 299.971 163.537C300.03 163.407 300.059 163.268 300.059 163.122C300.059 162.956 300.02 162.813 299.942 162.692C299.864 162.57 299.758 162.476 299.624 162.412C299.489 162.345 299.337 162.311 299.169 162.311C298.99 162.311 298.834 162.348 298.701 162.421C298.568 162.494 298.466 162.598 298.394 162.731C298.323 162.865 298.287 163.021 298.287 163.2H297.569C297.569 162.896 297.639 162.63 297.779 162.401C297.918 162.174 298.11 161.997 298.353 161.872C298.596 161.745 298.873 161.682 299.183 161.682C299.496 161.682 299.772 161.744 300.01 161.869C300.25 161.993 300.438 162.162 300.573 162.377C300.707 162.591 300.774 162.831 300.774 163.1C300.774 163.286 300.739 163.467 300.67 163.644C300.601 163.822 300.482 164.02 300.312 164.238C300.142 164.454 299.904 164.717 299.602 165.026L298.611 166.067V166.103H300.854V166.75H297.575Z" fill="#8E8E89"/>
<path d="M333.43 148.188V59.5" stroke="#E4E3D5"/>
<path d="M325.935 166.75V166.203L327.621 164.45C327.801 164.26 327.95 164.093 328.066 163.95C328.185 163.805 328.273 163.667 328.331 163.537C328.39 163.407 328.419 163.268 328.419 163.122C328.419 162.956 328.38 162.813 328.302 162.692C328.224 162.57 328.118 162.476 327.984 162.412C327.849 162.345 327.697 162.311 327.529 162.311C327.35 162.311 327.195 162.348 327.062 162.421C326.929 162.494 326.826 162.598 326.755 162.731C326.683 162.865 326.648 163.021 326.648 163.2H325.93C325.93 162.896 326 162.63 326.139 162.401C326.278 162.174 326.47 161.997 326.714 161.872C326.957 161.745 327.234 161.682 327.543 161.682C327.856 161.682 328.132 161.744 328.37 161.869C328.611 161.993 328.798 162.162 328.933 162.377C329.067 162.591 329.134 162.831 329.134 163.1C329.134 163.286 329.099 163.467 329.03 163.644C328.962 163.822 328.842 164.02 328.672 164.238C328.502 164.454 328.265 164.717 327.962 165.026L326.971 166.067V166.103H329.214V166.75H325.935ZM331.666 166.833C331.282 166.831 330.953 166.729 330.681 166.528C330.408 166.326 330.2 166.032 330.055 165.646C329.911 165.261 329.839 164.796 329.839 164.252C329.839 163.71 329.911 163.247 330.055 162.863C330.202 162.479 330.411 162.186 330.684 161.984C330.958 161.783 331.285 161.682 331.666 161.682C332.048 161.682 332.375 161.783 332.647 161.987C332.919 162.188 333.128 162.481 333.272 162.866C333.418 163.248 333.491 163.71 333.491 164.252C333.491 164.797 333.419 165.263 333.275 165.649C333.13 166.033 332.922 166.326 332.649 166.53C332.377 166.732 332.049 166.833 331.666 166.833ZM331.666 166.181C332.004 166.181 332.267 166.016 332.457 165.686C332.649 165.355 332.744 164.877 332.744 164.252C332.744 163.837 332.701 163.486 332.613 163.2C332.527 162.912 332.403 162.694 332.24 162.546C332.08 162.396 331.889 162.321 331.666 162.321C331.33 162.321 331.067 162.487 330.875 162.819C330.684 163.152 330.588 163.629 330.586 164.252C330.586 164.669 330.629 165.022 330.715 165.31C330.803 165.596 330.927 165.814 331.087 165.961C331.248 166.108 331.441 166.181 331.666 166.181ZM334.148 166.75V166.203L335.835 164.45C336.015 164.26 336.164 164.093 336.28 163.95C336.399 163.805 336.487 163.667 336.545 163.537C336.604 163.407 336.633 163.268 336.633 163.122C336.633 162.956 336.594 162.813 336.516 162.692C336.438 162.57 336.332 162.476 336.198 162.412C336.063 162.345 335.911 162.311 335.742 162.311C335.564 162.311 335.409 162.348 335.276 162.421C335.143 162.494 335.04 162.598 334.969 162.731C334.897 162.865 334.862 163.021 334.862 163.2H334.144C334.144 162.896 334.214 162.63 334.353 162.401C334.492 162.174 334.684 161.997 334.928 161.872C335.171 161.745 335.448 161.682 335.757 161.682C336.07 161.682 336.346 161.744 336.584 161.869C336.825 161.993 337.012 162.162 337.146 162.377C337.281 162.591 337.348 162.831 337.348 163.1C337.348 163.286 337.313 163.467 337.244 163.644C337.176 163.822 337.056 164.02 336.886 164.238C336.716 164.454 336.479 164.717 336.176 165.026L335.185 166.067V166.103H337.428V166.75H334.148ZM339.88 166.818C339.546 166.818 339.248 166.76 338.985 166.645C338.723 166.529 338.517 166.369 338.364 166.164C338.214 165.957 338.132 165.718 338.121 165.446H338.885C338.895 165.594 338.944 165.723 339.033 165.832C339.124 165.939 339.243 166.023 339.389 166.081C339.535 166.139 339.697 166.169 339.875 166.169C340.072 166.169 340.245 166.135 340.396 166.067C340.549 165.998 340.668 165.903 340.754 165.781C340.84 165.657 340.882 165.514 340.882 165.354C340.882 165.186 340.84 165.039 340.754 164.912C340.669 164.783 340.545 164.682 340.382 164.609C340.219 164.535 340.023 164.499 339.792 164.499H339.372V163.884H339.792C339.977 163.884 340.14 163.85 340.28 163.783C340.421 163.717 340.531 163.624 340.61 163.506C340.69 163.385 340.73 163.244 340.73 163.083C340.73 162.928 340.695 162.794 340.625 162.68C340.556 162.564 340.459 162.474 340.333 162.409C340.208 162.344 340.06 162.311 339.89 162.311C339.728 162.311 339.576 162.342 339.435 162.401C339.296 162.461 339.182 162.545 339.094 162.656C339.006 162.764 338.96 162.896 338.953 163.048H338.225C338.234 162.778 338.313 162.541 338.464 162.336C338.617 162.131 338.818 161.97 339.067 161.855C339.318 161.739 339.595 161.682 339.9 161.682C340.219 161.682 340.495 161.744 340.727 161.869C340.961 161.993 341.141 162.158 341.267 162.365C341.395 162.572 341.459 162.798 341.457 163.044C341.459 163.324 341.381 163.561 341.223 163.757C341.067 163.952 340.86 164.083 340.6 164.15V164.189C340.931 164.239 341.187 164.371 341.37 164.584C341.553 164.797 341.644 165.062 341.642 165.378C341.644 165.653 341.567 165.899 341.413 166.117C341.261 166.335 341.052 166.507 340.788 166.633C340.523 166.756 340.221 166.818 339.88 166.818Z" fill="#8E8E89"/>
<path d="M18.8117 61.375V66.375H18.0574V62.1318H18.0282L16.8359 62.9131V62.1905L18.0793 61.375H18.8117ZM21.689 66.458C21.3045 66.4564 20.976 66.3547 20.7035 66.1528C20.431 65.951 20.2225 65.6573 20.0782 65.2715C19.9338 64.8858 19.8616 64.4211 19.8616 63.8775C19.8616 63.3355 19.9338 62.8724 20.0782 62.4883C20.2242 62.1042 20.4334 61.8112 20.7059 61.6094C20.9801 61.4076 21.3078 61.3066 21.689 61.3066C22.0701 61.3066 22.397 61.4084 22.6695 61.6118C22.942 61.8137 23.1505 62.1066 23.2948 62.4907C23.4408 62.8732 23.5138 63.3355 23.5138 63.8775C23.5138 64.4227 23.4417 64.8882 23.2973 65.2739C23.1529 65.658 22.9445 65.9519 22.672 66.1553C22.3994 66.3572 22.0718 66.458 21.689 66.458ZM21.689 65.8062C22.0264 65.8062 22.2899 65.641 22.4797 65.3106C22.6712 64.9802 22.7668 64.5025 22.7668 63.8775C22.7668 63.4624 22.723 63.1117 22.6355 62.8252C22.5495 62.5371 22.4254 62.3191 22.2632 62.1709C22.1026 62.0212 21.9112 61.9463 21.689 61.9463C21.3532 61.9463 21.0896 62.1123 20.8982 62.4444C20.7068 62.7764 20.6103 63.2541 20.6086 63.8775C20.6086 64.2941 20.6516 64.6465 20.7376 64.9346C20.8252 65.2211 20.9493 65.4383 21.1098 65.5865C21.2705 65.733 21.4635 65.8062 21.689 65.8062ZM25.9064 66.458C25.5219 66.4564 25.1934 66.3547 24.9209 66.1528C24.6484 65.951 24.4399 65.6573 24.2955 65.2715C24.1512 64.8858 24.079 64.4211 24.079 63.8775C24.079 63.3355 24.1512 62.8724 24.2955 62.4883C24.4416 62.1042 24.6508 61.8112 24.9233 61.6094C25.1975 61.4076 25.5251 61.3066 25.9064 61.3066C26.2875 61.3066 26.6144 61.4084 26.8869 61.6118C27.1594 61.8137 27.3678 62.1066 27.5122 62.4907C27.6582 62.8732 27.7312 63.3355 27.7312 63.8775C27.7312 64.4227 27.6591 64.8882 27.5147 65.2739C27.3703 65.658 27.1619 65.9519 26.8893 66.1553C26.6168 66.3572 26.2892 66.458 25.9064 66.458ZM25.9064 65.8062C26.2437 65.8062 26.5073 65.641 26.6971 65.3106C26.8885 64.9802 26.9842 64.5025 26.9842 63.8775C26.9842 63.4624 26.9404 63.1117 26.8529 62.8252C26.7669 62.5371 26.6428 62.3191 26.4805 62.1709C26.32 62.0212 26.1286 61.9463 25.9064 61.9463C25.5705 61.9463 25.307 62.1123 25.1156 62.4444C24.9241 62.7764 24.8276 63.2541 24.826 63.8775C24.826 64.2941 24.869 64.6465 24.955 64.9346C25.0425 65.2211 25.1666 65.4383 25.3272 65.5865C25.4878 65.733 25.6809 65.8062 25.9064 65.8062ZM29.0677 65.1031L29.0629 64.2119H29.1893L30.6785 62.6251H31.5495L29.8512 64.4317H29.7368L29.0677 65.1031ZM28.3986 66.375V61.375H29.1261V66.375H28.3986ZM30.7588 66.375L29.4205 64.5928L29.9217 64.0826L31.6518 66.375H30.7588Z" fill="#8E8E89"/>
<path d="M45.9062 64.5796H333.341" stroke="#E4E3D5"/>
<path d="M18.5702 87.4117C18.2653 87.4117 17.9911 87.3533 17.7478 87.2364C17.5061 87.1175 17.3131 86.9545 17.1687 86.7483C17.0243 86.5413 16.9472 86.3055 16.9375 86.0401H17.6675C17.6853 86.2546 17.7802 86.4313 17.9522 86.5695C18.1241 86.7084 18.3301 86.7771 18.5702 86.7771C18.7616 86.7771 18.9311 86.7331 19.0787 86.6451C19.2279 86.5558 19.3448 86.4327 19.4291 86.2766C19.5151 86.1206 19.5581 85.9425 19.5581 85.7418C19.5581 85.539 19.5143 85.3575 19.4266 85.198C19.3391 85.0385 19.2182 84.9126 19.0641 84.8219C18.9117 84.7305 18.7365 84.6844 18.5386 84.6823C18.3877 84.6823 18.2361 84.7085 18.0835 84.7607C17.9311 84.813 17.8078 84.881 17.7137 84.9656L17.0251 84.8631L17.305 82.3435H20.0447V82.9904H17.9303L17.7721 84.3895H17.8013C17.8986 84.2953 18.0276 84.2162 18.1882 84.153C18.3504 84.089 18.524 84.0574 18.7089 84.0574C19.0122 84.0574 19.2823 84.1303 19.5191 84.2746C19.7576 84.4197 19.9449 84.6177 20.0812 84.868C20.2191 85.1168 20.2872 85.4035 20.2856 85.7273C20.2872 86.0511 20.2142 86.3399 20.0666 86.5943C19.9206 86.848 19.7178 87.048 19.4583 87.1945C19.2004 87.3395 18.9043 87.4117 18.5702 87.4117ZM22.7036 87.4268C22.3192 87.4248 21.9907 87.323 21.7182 87.1216C21.4457 86.9195 21.2372 86.6259 21.0929 86.2402C20.9485 85.8545 20.8763 85.3898 20.8763 84.846C20.8763 84.3042 20.9485 83.8408 21.0929 83.4572C21.2388 83.0729 21.4481 82.78 21.7206 82.5779C21.9947 82.3765 22.3224 82.2754 22.7036 82.2754C23.0848 82.2754 23.4117 82.3771 23.6842 82.5806C23.9567 82.7821 24.1652 83.075 24.3095 83.4593C24.4555 83.8415 24.5285 84.3042 24.5285 84.846C24.5285 85.3911 24.4563 85.8566 24.3119 86.2423C24.1676 86.6266 23.9591 86.9201 23.6866 87.1236C23.4141 87.3258 23.0864 87.4268 22.7036 87.4268ZM22.7036 86.7751C23.041 86.7751 23.3046 86.6094 23.4944 86.2794C23.6858 85.9487 23.7815 85.4709 23.7815 84.846C23.7815 84.4307 23.7377 84.0801 23.6501 83.7941C23.5641 83.506 23.44 83.2874 23.2779 83.1396C23.1173 82.9897 22.9258 82.9148 22.7036 82.9148C22.3678 82.9148 22.1042 83.0811 21.9128 83.4132C21.7214 83.7453 21.6249 84.2224 21.6233 84.846C21.6233 85.2626 21.6662 85.6153 21.7522 85.9033C21.8399 86.1893 21.9639 86.4073 22.1245 86.5551C22.2851 86.7015 22.4781 86.7751 22.7036 86.7751ZM25.865 86.0718L25.8601 85.1808H25.9866L27.4757 83.5933H28.3468L26.6485 85.4001H26.5341L25.865 86.0718ZM25.1958 87.3436V82.3435H25.9234V87.3436H25.1958ZM27.556 87.3436L26.2178 85.5616L26.719 85.0508L28.449 87.3436H27.556Z" fill="#8E8E89"/>
<path d="M45.9062 85.376H333.341" stroke="#E4E3D5"/>
<path d="M16.9267 108.312V107.766L18.6129 106.013C18.793 105.822 18.9414 105.655 19.0582 105.512C19.1766 105.367 19.265 105.23 19.3234 105.1C19.3818 104.969 19.411 104.831 19.411 104.684C19.411 104.519 19.3721 104.375 19.2942 104.255C19.2164 104.132 19.1101 104.039 18.9754 103.974C18.8408 103.908 18.6892 103.874 18.5205 103.874C18.3421 103.874 18.1863 103.91 18.0533 103.984C17.9203 104.057 17.8181 104.161 17.7467 104.294C17.6753 104.427 17.6397 104.583 17.6397 104.763H16.9219C16.9219 104.458 16.9916 104.192 17.1311 103.964C17.2706 103.736 17.462 103.56 17.7053 103.435C17.9487 103.307 18.2252 103.244 18.5351 103.244C18.8481 103.244 19.1239 103.307 19.3624 103.432C19.6024 103.556 19.7898 103.725 19.9244 103.94C20.0591 104.153 20.1264 104.394 20.1264 104.662C20.1264 104.848 20.0915 105.03 20.0217 105.207C19.9536 105.384 19.8344 105.582 19.6641 105.8C19.4937 106.017 19.2569 106.279 18.9536 106.589L17.9633 107.629V107.665H20.2067V108.312H16.9267ZM22.6581 108.396C22.2737 108.394 21.9452 108.292 21.6727 108.09C21.4002 107.888 21.1917 107.595 21.0474 107.209C20.903 106.823 20.8308 106.359 20.8308 105.815C20.8308 105.273 20.903 104.81 21.0474 104.426C21.1934 104.042 21.4026 103.749 21.6751 103.547C21.9493 103.345 22.2769 103.244 22.6581 103.244C23.0393 103.244 23.3662 103.346 23.6387 103.549C23.9112 103.751 24.1197 104.044 24.264 104.428C24.4101 104.81 24.483 105.273 24.483 105.815C24.483 106.36 24.4108 106.825 24.2664 107.211C24.1221 107.595 23.9136 107.889 23.6411 108.092C23.3686 108.295 23.041 108.396 22.6581 108.396ZM22.6581 107.744C22.9956 107.744 23.2592 107.578 23.4489 107.248C23.6403 106.917 23.736 106.44 23.736 105.815C23.736 105.399 23.6923 105.049 23.6046 104.763C23.5187 104.475 23.3946 104.256 23.2324 104.108C23.0718 103.958 22.8804 103.884 22.6581 103.884C22.3224 103.884 22.0588 104.05 21.8673 104.382C21.676 104.714 21.5794 105.191 21.5778 105.815C21.5778 106.231 21.6208 106.584 21.7068 106.872C21.7944 107.158 21.9185 107.376 22.0791 107.524C22.2397 107.67 22.4327 107.744 22.6581 107.744ZM25.8195 107.041L25.8146 106.15H25.9412L27.4303 104.562H28.3014L26.603 106.369H26.4886L25.8195 107.041ZM25.1504 108.312V103.312H25.8779V108.312H25.1504ZM27.5106 108.312L26.1723 106.53L26.6736 106.02L28.4035 108.312H27.5106Z" fill="#8E8E89"/>
<path d="M45.9062 106.86H333.341" stroke="#E4E3D5"/>
<path d="M18.8117 124.281V129.281H18.0574V125.038H18.0282L16.8359 125.819V125.096L18.0793 124.281H18.8117ZM21.689 129.364C21.3045 129.362 20.976 129.261 20.7035 129.059C20.431 128.857 20.2225 128.563 20.0782 128.178C19.9338 127.792 19.8616 127.327 19.8616 126.783C19.8616 126.242 19.9338 125.778 20.0782 125.395C20.2242 125.01 20.4334 124.718 20.7059 124.515C20.9801 124.314 21.3078 124.213 21.689 124.213C22.0701 124.213 22.397 124.315 22.6695 124.518C22.942 124.72 23.1505 125.012 23.2948 125.397C23.4408 125.779 23.5138 126.242 23.5138 126.783C23.5138 127.329 23.4417 127.794 23.2973 128.18C23.1529 128.564 22.9445 128.858 22.672 129.061C22.3994 129.263 22.0718 129.364 21.689 129.364ZM21.689 128.713C22.0264 128.713 22.2899 128.547 22.4797 128.217C22.6712 127.886 22.7668 127.408 22.7668 126.783C22.7668 126.368 22.723 126.018 22.6355 125.732C22.5495 125.444 22.4254 125.225 22.2632 125.077C22.1026 124.927 21.9112 124.852 21.689 124.852C21.3532 124.852 21.0896 125.019 20.8982 125.351C20.7068 125.683 20.6103 126.16 20.6086 126.783C20.6086 127.2 20.6516 127.553 20.7376 127.841C20.8252 128.127 20.9493 128.345 21.1098 128.493C21.2705 128.639 21.4635 128.713 21.689 128.713ZM24.8503 128.009L24.8455 127.118H24.972L26.4611 125.531H27.3322L25.6338 127.338H25.5194L24.8503 128.009ZM24.1812 129.281V124.281H24.9087V129.281H24.1812ZM26.5414 129.281L25.2031 127.499L25.7044 126.988L27.4344 129.281H26.5414Z" fill="#8E8E89"/>
<path d="M45.9062 127.657H333.341" stroke="#E4E3D5"/>
<path d="M18.6554 150.333C18.2711 150.331 17.9426 150.229 17.67 150.028C17.3975 149.826 17.1891 149.532 17.0447 149.146C16.9003 148.761 16.8281 148.296 16.8281 147.752C16.8281 147.21 16.9003 146.747 17.0447 146.363C17.1907 145.979 17.3999 145.686 17.6725 145.484C17.9466 145.283 18.2743 145.182 18.6554 145.182C19.0367 145.182 19.3635 145.283 19.636 145.487C19.9086 145.688 20.117 145.981 20.2614 146.366C20.4074 146.748 20.4804 147.21 20.4804 147.752C20.4804 148.297 20.4081 148.763 20.2638 149.149C20.1194 149.533 19.911 149.826 19.6385 150.03C19.366 150.232 19.0383 150.333 18.6554 150.333ZM18.6554 149.681C18.9929 149.681 19.2565 149.516 19.4463 149.186C19.6377 148.855 19.7334 148.377 19.7334 147.752C19.7334 147.337 19.6896 146.986 19.602 146.7C19.516 146.412 19.3919 146.194 19.2297 146.046C19.0691 145.896 18.8777 145.821 18.6554 145.821C18.3197 145.821 18.0561 145.987 17.8647 146.319C17.6733 146.652 17.5768 147.129 17.5751 147.752C17.5751 148.169 17.6181 148.522 17.7041 148.81C17.7917 149.096 17.9158 149.314 18.0764 149.461C18.2369 149.608 18.43 149.681 18.6554 149.681Z" fill="#8E8E89"/>
<path d="M45.9062 148.454H333.773" stroke="#E4E3D5"/>
<mask id="mask0_6001_8526" style="mask-type:alpha" maskUnits="userSpaceOnUse" x="55" y="59" width="278" height="89">
<path d="M333 59.7671H55.5V147.767H333V59.7671Z" fill="#D9D9D9"/>
</mask>
<g mask="url(#mask0_6001_8526)">
<path d="M134.682 95.3593C133.746 95.6912 132.872 96.1757 132.094 96.7932L95.6262 125.748C94.4733 126.663 93.1134 127.282 91.6657 127.549L57.9195 133.787C55.9177 134.157 54.1174 135.239 52.8516 136.833C48.4667 142.356 52.3995 150.5 59.4511 150.5H329.388C334.591 150.5 338.71 146.101 338.368 140.909L334.176 77.2318C333.768 71.0472 327.378 67.1156 321.674 69.5406L294.341 81.1614C293.398 81.5621 292.531 82.1207 291.777 82.8132L254.246 117.258C253.315 118.113 252.214 118.761 251.015 119.162L218.74 129.957C215.145 131.159 211.182 129.98 208.829 127.008L177.006 86.8144C174.616 83.7958 170.57 82.6318 166.941 83.9188L134.682 95.3593Z" fill="#F3FF97" stroke="#F3FF97" stroke-dasharray="2 2"/>
</g>
</g>
</g>
<rect x="0.5" y="0.5" width="365" height="194" rx="11.5" stroke="#8E8E89"/>
<defs>
<clipPath id="clip0_6001_8526">
<rect width="366" height="195" rx="12" fill="white"/>
</clipPath>
<clipPath id="clip1_6001_8526">
<rect width="370" height="176" fill="white" transform="translate(0 10)"/>
</clipPath>
</defs>
</svg>
