<svg width="34" height="35" viewBox="0 0 34 35" fill="none" xmlns="http://www.w3.org/2000/svg">
<path d="M22.1746 33.2503C13.7236 36.2491 4.44172 31.8291 1.44299 23.3781C-1.55573 14.9271 2.86423 5.6452 11.3153 2.64647C19.7663 -0.352256 29.0481 4.06771 32.0469 12.5187C35.0456 20.9698 30.6256 30.2516 22.1746 33.2503ZM12.4509 5.84709C5.76758 8.21859 2.27211 15.559 4.64361 22.2424C7.01511 28.9258 14.3555 32.4212 21.0389 30.0497C27.7223 27.6782 31.2177 20.3378 28.8462 13.6544C26.4747 6.97105 19.1343 3.47559 12.4509 5.84709Z" fill="#F5F4F2"/>
<path d="M15.4663 2.6078C15.4181 2.04643 15.8343 1.54892 16.3976 1.53607C16.9609 1.52323 17.3993 2.00124 17.3767 2.56422L17.3059 4.33397C17.2883 4.77261 16.9182 5.11134 16.4794 5.12135C16.0405 5.13136 15.6554 4.80985 15.6178 4.37248L15.4663 2.6078Z" fill="#3B3B35"/>
<path d="M12.1707 21V14H13.3007V21H12.1707ZM10.7707 15.03V14H13.2007V15.03H10.7707ZM14.1554 21.4L16.9554 13.6H17.9854L15.1854 21.4H14.1554ZM18.3591 20.32L20.9391 17.58C21.1524 17.3533 21.3258 17.15 21.4591 16.97C21.5924 16.79 21.6891 16.62 21.7491 16.46C21.8091 16.3 21.8391 16.1367 21.8391 15.97C21.8391 15.6567 21.7358 15.4133 21.5291 15.24C21.3291 15.06 21.0724 14.97 20.7591 14.97C20.4258 14.97 20.1324 15.0533 19.8791 15.22C19.6258 15.3867 19.3991 15.6467 19.1991 16L18.3991 15.34C18.6724 14.8667 19.0091 14.51 19.4091 14.27C19.8091 14.0233 20.2724 13.9 20.7991 13.9C21.2324 13.9 21.6124 13.9867 21.9391 14.16C22.2658 14.3333 22.5191 14.5767 22.6991 14.89C22.8791 15.1967 22.9691 15.5533 22.9691 15.96C22.9691 16.2533 22.9324 16.5167 22.8591 16.75C22.7924 16.9767 22.6758 17.2067 22.5091 17.44C22.3424 17.6667 22.1124 17.9333 21.8191 18.24L19.8391 20.29L18.3591 20.32ZM18.3591 21V20.32L19.3491 19.97H23.1091V21H18.3591Z" fill="#3B3B35"/>
</svg>
