<svg width="34" height="35" viewBox="0 0 34 35" fill="none" xmlns="http://www.w3.org/2000/svg">
<path d="M22.1746 33.2503C13.7236 36.2491 4.44172 31.8291 1.44299 23.3781C-1.55573 14.9271 2.86423 5.6452 11.3153 2.64647C19.7663 -0.352256 29.0481 4.06771 32.0469 12.5187C35.0456 20.9698 30.6256 30.2516 22.1746 33.2503ZM12.4509 5.84709C5.76758 8.21859 2.27211 15.559 4.64361 22.2424C7.01511 28.9258 14.3555 32.4212 21.0389 30.0497C27.7223 27.6782 31.2177 20.3378 28.8462 13.6544C26.4747 6.97105 19.1343 3.47559 12.4509 5.84709Z" fill="#F5F4F2"/>
<path d="M15.5324 3.37789C15.4477 2.39121 16.1805 1.51229 17.1705 1.53684C18.6972 1.57471 20.214 1.82788 21.6755 2.29131C23.708 2.93579 25.5937 3.9743 27.2248 5.34753C28.856 6.72076 30.2007 8.40183 31.1822 10.2947C32.1637 12.1877 32.7627 14.2554 32.9451 16.3798C33.1274 18.5042 32.8896 20.6437 32.2451 22.6762C31.6006 24.7087 30.5621 26.5944 29.1889 28.2255C27.8156 29.8567 26.1346 31.2014 24.2417 32.1829C22.8805 32.8886 21.4291 33.3966 19.9311 33.6941C18.9598 33.8871 18.088 33.1459 18.0033 32.1592C17.9186 31.1725 18.6548 30.3167 19.6196 30.0934C20.6497 29.8551 21.6481 29.488 22.5909 28.9992C24.0657 28.2345 25.3755 27.1868 26.4454 25.9159C27.5154 24.645 28.3245 23.1759 28.8266 21.5923C29.3288 20.0087 29.5141 18.3417 29.372 16.6865C29.2299 15.0313 28.7632 13.4203 27.9985 11.9455C27.2338 10.4707 26.1861 9.16089 24.9152 8.09097C23.6443 7.02104 22.1752 6.21191 20.5916 5.70977C19.5793 5.38878 18.5329 5.19725 17.4772 5.13796C16.4885 5.08243 15.6172 4.36456 15.5324 3.37789Z" fill="#3B3B35"/>
<path d="M9.86301 20.32L12.443 17.58C12.6563 17.3533 12.8297 17.15 12.963 16.97C13.0963 16.79 13.193 16.62 13.253 16.46C13.313 16.3 13.343 16.1367 13.343 15.97C13.343 15.6567 13.2397 15.4133 13.033 15.24C12.833 15.06 12.5763 14.97 12.263 14.97C11.9297 14.97 11.6363 15.0533 11.383 15.22C11.1297 15.3867 10.903 15.6467 10.703 16L9.90301 15.34C10.1763 14.8667 10.513 14.51 10.913 14.27C11.313 14.0233 11.7763 13.9 12.303 13.9C12.7363 13.9 13.1163 13.9867 13.443 14.16C13.7697 14.3333 14.023 14.5767 14.203 14.89C14.383 15.1967 14.473 15.5533 14.473 15.96C14.473 16.2533 14.4363 16.5167 14.363 16.75C14.2963 16.9767 14.1797 17.2067 14.013 17.44C13.8463 17.6667 13.6163 17.9333 13.323 18.24L11.343 20.29L9.86301 20.32ZM9.86301 21V20.32L10.853 19.97H14.613V21H9.86301ZM15.0832 21.4L17.8832 13.6H18.9132L16.1132 21.4H15.0832ZM19.2868 20.32L21.8668 17.58C22.0802 17.3533 22.2535 17.15 22.3868 16.97C22.5202 16.79 22.6168 16.62 22.6768 16.46C22.7368 16.3 22.7668 16.1367 22.7668 15.97C22.7668 15.6567 22.6635 15.4133 22.4568 15.24C22.2568 15.06 22.0002 14.97 21.6868 14.97C21.3535 14.97 21.0602 15.0533 20.8068 15.22C20.5535 15.3867 20.3268 15.6467 20.1268 16L19.3268 15.34C19.6002 14.8667 19.9368 14.51 20.3368 14.27C20.7368 14.0233 21.2002 13.9 21.7268 13.9C22.1602 13.9 22.5402 13.9867 22.8668 14.16C23.1935 14.3333 23.4468 14.5767 23.6268 14.89C23.8068 15.1967 23.8968 15.5533 23.8968 15.96C23.8968 16.2533 23.8602 16.5167 23.7868 16.75C23.7202 16.9767 23.6035 17.2067 23.4368 17.44C23.2702 17.6667 23.0402 17.9333 22.7468 18.24L20.7668 20.29L19.2868 20.32ZM19.2868 21V20.32L20.2768 19.97H24.0368V21H19.2868Z" fill="#3B3B35"/>
</svg>
